<svg width="473" height="8" viewBox="0 0 473 8" fill="none" xmlns="http://www.w3.org/2000/svg">
<rect width="7.96552" height="472.308" transform="translate(0 7.96484) rotate(-90)" fill="#F27121"/>
<path d="M2.06894 3.92025C2.50445 3.50961 3.03452 3.21603 3.61077 3.0663C4.18702 2.91658 4.7911 2.91549 5.36788 3.06312C6.22336 3.25418 7.05775 3.53176 7.85852 3.89168C8.3523 4.10712 8.85747 4.29471 9.37171 4.4536C9.65125 4.549 9.94198 4.60664 10.2364 4.62502C11.1763 4.92978 11.5804 4.39645 11.5898 3.03455C11.5236 3.03167 11.46 3.00736 11.4084 2.9652C11.3568 2.92305 11.3199 2.86526 11.3031 2.80029C11.2863 2.73533 11.2904 2.66662 11.315 2.60423C11.3395 2.54184 11.3831 2.48905 11.4394 2.4536C13.3192 1.44408 14.1462 4.10121 12.8022 5.31073C12.3539 5.62924 11.8392 5.83876 11.2981 5.923C10.7569 6.00723 10.2038 5.96392 9.68187 5.79644C7.11603 5.19644 5.11411 3.0536 2.3133 4.27264C2.11593 4.35836 1.88097 4.12025 2.06894 3.94883L2.06894 3.92025Z" fill="#F8CA95"/>
<path d="M29.325 3.92025C28.8895 3.50961 28.3594 3.21603 27.7832 3.0663C27.2069 2.91658 26.6029 2.91549 26.0261 3.06312C25.1733 3.25278 24.3419 3.53041 23.5448 3.89168C23.0479 4.10714 22.5396 4.29473 22.0223 4.4536C21.7427 4.549 21.452 4.60664 21.1576 4.62502C20.2647 4.92978 19.8136 4.39645 19.8042 3.03455C19.8704 3.03167 19.9339 3.00736 19.9855 2.9652C20.0371 2.92305 20.0741 2.86526 20.0909 2.80029C20.1077 2.73533 20.1035 2.66662 20.079 2.60423C20.0545 2.54184 20.0109 2.48905 19.9546 2.4536C18.1218 1.44408 17.2477 4.10121 18.5917 5.31073C19.04 5.62925 19.5547 5.83876 20.0959 5.923C20.6371 6.00723 21.1901 5.96392 21.7121 5.79644C24.2779 5.19644 26.2799 3.0536 29.0807 4.27264C29.278 4.35836 29.513 4.12025 29.325 3.94882L29.325 3.92025Z" fill="#F8CA95"/>
<path d="M13.8643 2.8624C14.05 3.10544 14.2837 3.30656 14.5504 3.45288C14.7196 3.57669 14.8981 3.71001 15.0767 3.81478C14.7208 4.1124 14.3818 4.43038 14.0617 4.76715C13.9019 4.93858 14.0617 5.27191 14.306 5.1862C14.7051 5.05091 15.0844 4.86193 15.4339 4.6243C15.4339 4.99573 15.5372 5.3862 15.5842 5.73858C15.5958 5.79949 15.6279 5.85443 15.675 5.89394C15.7222 5.93346 15.7815 5.95508 15.8427 5.95508C15.9039 5.95508 15.9632 5.93346 16.0104 5.89394C16.0575 5.85443 16.0897 5.79949 16.1012 5.73858C16.1012 5.36715 16.1952 4.96716 16.2046 4.58621C16.4389 4.79437 16.7057 4.9617 16.994 5.08144C17.0631 5.10152 17.1369 5.0974 17.2034 5.06975C17.27 5.0421 17.3253 4.99255 17.3606 4.92907C17.3933 4.86696 17.4063 4.79617 17.3979 4.72632C17.3895 4.65646 17.36 4.59092 17.3136 4.53859C17.0974 4.27192 16.8907 4.00525 16.7027 3.72906C16.9731 3.33652 17.1794 2.9024 17.3136 2.44337C17.4546 2.02432 16.8813 1.84337 16.6557 2.15765C16.4301 2.47193 16.0918 2.83384 15.8192 3.18622L15.8192 3.25288C15.5677 3.04442 15.2854 2.8773 14.9827 2.75764C14.7187 2.59913 14.4235 2.50159 14.118 2.47194C14.07 2.46445 14.0209 2.47108 13.9765 2.49106C13.9321 2.51104 13.8942 2.54354 13.8675 2.58466C13.8408 2.62579 13.8263 2.67381 13.8257 2.72305C13.8251 2.77229 13.8385 2.82065 13.8643 2.8624Z" fill="#F8CA95"/>
<path d="M31.463 3.92025C31.8985 3.50961 32.4286 3.21603 33.0048 3.0663C33.5811 2.91658 34.1851 2.91549 34.7619 3.06312C35.6174 3.25418 36.4518 3.53176 37.2526 3.89168C37.7463 4.10712 38.2515 4.29471 38.7658 4.4536C39.0453 4.549 39.336 4.60664 39.6304 4.62502C40.5703 4.92978 40.9744 4.39645 40.9838 3.03455C40.9176 3.03167 40.8541 3.00736 40.8025 2.9652C40.7509 2.92305 40.714 2.86526 40.6971 2.80029C40.6803 2.73533 40.6845 2.66662 40.709 2.60423C40.7336 2.54184 40.7772 2.48905 40.8335 2.4536C42.7132 1.44408 43.5403 4.10121 42.1963 5.31073C41.748 5.62924 41.2333 5.83876 40.6921 5.923C40.1509 6.00723 39.5979 5.96392 39.0759 5.79644C36.5101 5.19644 34.5082 3.0536 31.7073 4.27264C31.51 4.35836 31.275 4.12025 31.463 3.94883L31.463 3.92025Z" fill="#F8CA95"/>
<path d="M58.7196 3.92025C58.2841 3.50961 57.754 3.21603 57.1777 3.0663C56.6015 2.91658 55.9974 2.91549 55.4206 3.06312C54.5678 3.25278 53.7364 3.53041 52.9394 3.89168C52.4424 4.10714 51.9341 4.29473 51.4168 4.4536C51.1373 4.549 50.8465 4.60664 50.5521 4.62502C49.6592 4.92978 49.2081 4.39645 49.1987 3.03455C49.2649 3.03167 49.3285 3.00736 49.3801 2.9652C49.4317 2.92305 49.4686 2.86526 49.4854 2.80029C49.5022 2.73533 49.4981 2.66662 49.4735 2.60423C49.449 2.54184 49.4054 2.48905 49.3491 2.4536C47.5163 1.44408 46.6423 4.10121 47.9863 5.31073C48.4346 5.62925 48.9493 5.83876 49.4904 5.923C50.0316 6.00723 50.5847 5.96392 51.1066 5.79644C53.6725 5.19644 55.6744 3.0536 58.4752 4.27264C58.6726 4.35836 58.9075 4.12025 58.7196 3.94882L58.7196 3.92025Z" fill="#F8CA95"/>
<path d="M43.2583 2.8624C43.444 3.10544 43.6777 3.30656 43.9444 3.45288C44.1136 3.57669 44.2922 3.71001 44.4708 3.81478C44.1148 4.1124 43.7759 4.43038 43.4557 4.76715C43.2959 4.93858 43.4557 5.27191 43.7001 5.1862C44.0991 5.05091 44.4785 4.86193 44.8279 4.6243C44.8279 4.99573 44.9313 5.3862 44.9783 5.73858C44.9898 5.79949 45.0219 5.85443 45.0691 5.89394C45.1163 5.93346 45.1756 5.95508 45.2368 5.95508C45.298 5.95508 45.3572 5.93346 45.4044 5.89394C45.4516 5.85443 45.4837 5.79949 45.4952 5.73858C45.4952 5.36715 45.5892 4.96716 45.5986 4.58621C45.8329 4.79437 46.0997 4.9617 46.3881 5.08144C46.4572 5.10152 46.531 5.0974 46.5975 5.06975C46.664 5.0421 46.7194 4.99255 46.7546 4.92907C46.7873 4.86696 46.8003 4.79617 46.7919 4.72632C46.7835 4.65646 46.7541 4.59092 46.7077 4.53859C46.4915 4.27192 46.2847 4.00525 46.0967 3.72906C46.3672 3.33652 46.5735 2.9024 46.7077 2.44337C46.8486 2.02432 46.2753 1.84337 46.0497 2.15765C45.8242 2.47193 45.4858 2.83384 45.2132 3.18622L45.2132 3.25288C44.9617 3.04442 44.6795 2.8773 44.3768 2.75764C44.1128 2.59913 43.8175 2.50159 43.5121 2.47194C43.4641 2.46445 43.4149 2.47108 43.3705 2.49106C43.3261 2.51104 43.2883 2.54354 43.2616 2.58466C43.2348 2.62579 43.2203 2.67381 43.2197 2.72305C43.2192 2.77229 43.2326 2.82065 43.2583 2.8624Z" fill="#F8CA95"/>
<path d="M60.8575 3.92025C61.293 3.50961 61.8231 3.21603 62.3993 3.0663C62.9756 2.91658 63.5797 2.91549 64.1564 3.06312C65.0119 3.25418 65.8463 3.53176 66.6471 3.89168C67.1409 4.10712 67.646 4.29471 68.1603 4.4536C68.4398 4.549 68.7305 4.60664 69.025 4.62502C69.9648 4.92978 70.369 4.39645 70.3784 3.03455C70.3122 3.03167 70.2486 3.00736 70.197 2.9652C70.1454 2.92305 70.1085 2.86526 70.0917 2.80029C70.0749 2.73533 70.079 2.66662 70.1035 2.60423C70.1281 2.54184 70.1717 2.48905 70.228 2.4536C72.1077 1.44408 72.9348 4.10121 71.5908 5.31073C71.1425 5.62924 70.6278 5.83876 70.0866 5.923C69.5455 6.00723 68.9924 5.96392 68.4704 5.79644C65.9046 5.19644 63.9027 3.0536 61.1019 4.27264C60.9045 4.35836 60.6695 4.12025 60.8575 3.94883L60.8575 3.92025Z" fill="#F8CA95"/>
<path d="M88.1141 3.92025C87.6786 3.50961 87.1485 3.21603 86.5723 3.0663C85.996 2.91658 85.3919 2.91549 84.8152 3.06312C83.9623 3.25278 83.1309 3.53041 82.3339 3.89168C81.8369 4.10714 81.3286 4.29473 80.8113 4.4536C80.5318 4.549 80.2411 4.60664 79.9466 4.62502C79.0538 4.92978 78.6026 4.39645 78.5932 3.03455C78.6595 3.03167 78.723 3.00736 78.7746 2.9652C78.8262 2.92305 78.8631 2.86526 78.8799 2.80029C78.8968 2.73533 78.8926 2.66662 78.8681 2.60423C78.8435 2.54184 78.7999 2.48905 78.7436 2.4536C76.9109 1.44408 76.0368 4.10121 77.3808 5.31073C77.8291 5.62925 78.3438 5.83876 78.885 5.923C79.4261 6.00723 79.9792 5.96392 80.5012 5.79644C83.067 5.19644 85.0689 3.0536 87.8697 4.27264C88.0671 4.35836 88.3021 4.12025 88.1141 3.94882L88.1141 3.92025Z" fill="#F8CA95"/>
<path d="M72.6529 2.8624C72.8385 3.10544 73.0722 3.30656 73.339 3.45288C73.5081 3.57669 73.6867 3.71001 73.8653 3.81478C73.5093 4.1124 73.1704 4.43038 72.8502 4.76715C72.6905 4.93858 72.8502 5.27191 73.0946 5.1862C73.4937 5.05091 73.873 4.86193 74.2224 4.6243C74.2224 4.99573 74.3258 5.3862 74.3728 5.73858C74.3843 5.79949 74.4164 5.85443 74.4636 5.89394C74.5108 5.93346 74.5701 5.95508 74.6313 5.95508C74.6925 5.95508 74.7518 5.93346 74.7989 5.89394C74.8461 5.85443 74.8782 5.79949 74.8897 5.73858C74.8897 5.36715 74.9837 4.96716 74.9931 4.58621C75.2275 4.79437 75.4943 4.9617 75.7826 5.08144C75.8517 5.10152 75.9255 5.0974 75.992 5.06975C76.0585 5.0421 76.1139 4.99255 76.1492 4.92907C76.1818 4.86696 76.1948 4.79617 76.1864 4.72632C76.178 4.65646 76.1486 4.59092 76.1022 4.53859C75.886 4.27192 75.6792 4.00525 75.4913 3.72906C75.7617 3.33652 75.968 2.9024 76.1022 2.44337C76.2432 2.02432 75.6698 1.84337 75.4443 2.15765C75.2187 2.47193 74.8803 2.83384 74.6078 3.18622L74.6078 3.25288C74.3563 3.04442 74.074 2.8773 73.7713 2.75764C73.5073 2.59913 73.2121 2.50159 72.9066 2.47194C72.8586 2.46445 72.8095 2.47108 72.765 2.49106C72.7206 2.51104 72.6828 2.54354 72.6561 2.58466C72.6294 2.62579 72.6148 2.67381 72.6143 2.72305C72.6137 2.77229 72.6271 2.82065 72.6529 2.8624Z" fill="#F8CA95"/>
<path d="M90.2516 3.92025C90.6871 3.50961 91.2171 3.21603 91.7934 3.0663C92.3696 2.91658 92.9737 2.91549 93.5505 3.06312C94.406 3.25418 95.2404 3.53176 96.0411 3.89168C96.5349 4.10712 97.0401 4.29471 97.5543 4.4536C97.8339 4.549 98.1246 4.60664 98.419 4.62502C99.3589 4.92978 99.763 4.39645 99.7724 3.03455C99.7062 3.03167 99.6426 3.00736 99.591 2.9652C99.5394 2.92305 99.5025 2.86526 99.4857 2.80029C99.4689 2.73533 99.4731 2.66662 99.4976 2.60423C99.5221 2.54184 99.5657 2.48905 99.622 2.4536C101.502 1.44408 102.329 4.10121 100.985 5.31073C100.537 5.62924 100.022 5.83876 99.4807 5.923C98.9395 6.00723 98.3865 5.96392 97.8645 5.79644C95.2986 5.19644 93.2967 3.0536 90.4959 4.27264C90.2985 4.35836 90.0636 4.12025 90.2516 3.94883L90.2516 3.92025Z" fill="#F8CA95"/>
<path d="M117.508 3.92025C117.072 3.50961 116.542 3.21603 115.966 3.0663C115.39 2.91658 114.785 2.91549 114.209 3.06312C113.356 3.25278 112.524 3.53041 111.727 3.89168C111.23 4.10714 110.722 4.29473 110.205 4.4536C109.925 4.549 109.635 4.60664 109.34 4.62502C108.447 4.92978 107.996 4.39645 107.987 3.03455C108.053 3.03167 108.117 3.00736 108.168 2.9652C108.22 2.92305 108.257 2.86526 108.273 2.80029C108.29 2.73533 108.286 2.66662 108.262 2.60423C108.237 2.54184 108.193 2.48905 108.137 2.4536C106.304 1.44408 105.43 4.10121 106.774 5.31073C107.223 5.62925 107.737 5.83876 108.279 5.923C108.82 6.00723 109.373 5.96392 109.895 5.79644C112.461 5.19644 114.462 3.0536 117.263 4.27264C117.461 4.35836 117.696 4.12025 117.508 3.94882L117.508 3.92025Z" fill="#F8CA95"/>
<path d="M102.047 2.8624C102.233 3.10544 102.466 3.30656 102.733 3.45288C102.902 3.57669 103.081 3.71001 103.259 3.81478C102.903 4.1124 102.564 4.43038 102.244 4.76715C102.084 4.93858 102.244 5.27191 102.489 5.1862C102.888 5.05091 103.267 4.86193 103.616 4.6243C103.616 4.99573 103.72 5.3862 103.767 5.73858C103.778 5.79949 103.81 5.85443 103.858 5.89394C103.905 5.93346 103.964 5.95508 104.025 5.95508C104.087 5.95508 104.146 5.93346 104.193 5.89394C104.24 5.85443 104.272 5.79949 104.284 5.73858C104.284 5.36715 104.378 4.96716 104.387 4.58621C104.622 4.79437 104.888 4.9617 105.177 5.08144C105.246 5.10152 105.32 5.0974 105.386 5.06975C105.453 5.0421 105.508 4.99255 105.543 4.92907C105.576 4.86696 105.589 4.79617 105.58 4.72632C105.572 4.65646 105.543 4.59092 105.496 4.53859C105.28 4.27192 105.073 4.00525 104.885 3.72906C105.156 3.33652 105.362 2.9024 105.496 2.44337C105.637 2.02432 105.064 1.84337 104.838 2.15765C104.613 2.47193 104.274 2.83384 104.002 3.18622L104.002 3.25288C103.75 3.04442 103.468 2.8773 103.165 2.75764C102.901 2.59913 102.606 2.50159 102.301 2.47194C102.253 2.46445 102.203 2.47108 102.159 2.49106C102.115 2.51104 102.077 2.54354 102.05 2.58466C102.023 2.62579 102.009 2.67381 102.008 2.72305C102.008 2.77229 102.021 2.82065 102.047 2.8624Z" fill="#F8CA95"/>
<path d="M119.646 3.92025C120.081 3.50961 120.611 3.21603 121.187 3.0663C121.764 2.91658 122.368 2.91549 122.945 3.06312C123.8 3.25418 124.634 3.53176 125.435 3.89168C125.929 4.10712 126.434 4.29471 126.948 4.4536C127.228 4.549 127.519 4.60664 127.813 4.62502C128.753 4.92978 129.157 4.39645 129.166 3.03455C129.1 3.03167 129.037 3.00736 128.985 2.9652C128.933 2.92305 128.897 2.86526 128.88 2.80029C128.863 2.73533 128.867 2.66662 128.892 2.60423C128.916 2.54184 128.96 2.48905 129.016 2.4536C130.896 1.44408 131.723 4.10121 130.379 5.31073C129.931 5.62924 129.416 5.83876 128.875 5.923C128.334 6.00723 127.78 5.96392 127.259 5.79644C124.693 5.19644 122.691 3.0536 119.89 4.27264C119.693 4.35836 119.458 4.12025 119.646 3.94883L119.646 3.92025Z" fill="#F8CA95"/>
<path d="M146.902 3.92025C146.467 3.50961 145.937 3.21603 145.36 3.0663C144.784 2.91658 144.18 2.91549 143.603 3.06312C142.75 3.25278 141.919 3.53041 141.122 3.89168C140.625 4.10714 140.117 4.29473 139.599 4.4536C139.32 4.549 139.029 4.60664 138.735 4.62502C137.842 4.92978 137.391 4.39645 137.381 3.03455C137.448 3.03167 137.511 3.00736 137.563 2.9652C137.614 2.92305 137.651 2.86526 137.668 2.80029C137.685 2.73533 137.681 2.66662 137.656 2.60423C137.632 2.54184 137.588 2.48905 137.532 2.4536C135.699 1.44408 134.825 4.10121 136.169 5.31073C136.617 5.62925 137.132 5.83876 137.673 5.923C138.214 6.00723 138.767 5.96392 139.289 5.79644C141.855 5.19644 143.857 3.0536 146.658 4.27264C146.855 4.35836 147.09 4.12025 146.902 3.94882L146.902 3.92025Z" fill="#F8CA95"/>
<path d="M131.441 2.8624C131.627 3.10544 131.86 3.30656 132.127 3.45288C132.296 3.57669 132.475 3.71001 132.653 3.81478C132.297 4.1124 131.959 4.43038 131.638 4.76715C131.479 4.93858 131.638 5.27191 131.883 5.1862C132.282 5.05091 132.661 4.86193 133.011 4.6243C133.011 4.99573 133.114 5.3862 133.161 5.73858C133.172 5.79949 133.205 5.85443 133.252 5.89394C133.299 5.93346 133.358 5.95508 133.419 5.95508C133.481 5.95508 133.54 5.93346 133.587 5.89394C133.634 5.85443 133.666 5.79949 133.678 5.73858C133.678 5.36715 133.772 4.96716 133.781 4.58621C134.016 4.79437 134.282 4.9617 134.571 5.08144C134.64 5.10152 134.714 5.0974 134.78 5.06975C134.847 5.0421 134.902 4.99255 134.937 4.92907C134.97 4.86696 134.983 4.79617 134.975 4.72632C134.966 4.65646 134.937 4.59092 134.89 4.53859C134.674 4.27192 134.467 4.00525 134.279 3.72906C134.55 3.33652 134.756 2.9024 134.89 2.44337C135.031 2.02432 134.458 1.84337 134.232 2.15765C134.007 2.47193 133.668 2.83384 133.396 3.18622L133.396 3.25288C133.144 3.04442 132.862 2.8773 132.559 2.75764C132.295 2.59913 132 2.50159 131.695 2.47194C131.647 2.46445 131.598 2.47108 131.553 2.49106C131.509 2.51104 131.471 2.54354 131.444 2.58466C131.417 2.62579 131.403 2.67381 131.402 2.72305C131.402 2.77229 131.415 2.82065 131.441 2.8624Z" fill="#F8CA95"/>
<path d="M149.04 3.92025C149.476 3.50961 150.006 3.21603 150.582 3.0663C151.158 2.91658 151.762 2.91549 152.339 3.06312C153.195 3.25418 154.029 3.53176 154.83 3.89168C155.323 4.10712 155.829 4.29471 156.343 4.4536C156.622 4.549 156.913 4.60664 157.208 4.62502C158.147 4.92978 158.552 4.39645 158.561 3.03455C158.495 3.03167 158.431 3.00736 158.38 2.9652C158.328 2.92305 158.291 2.86526 158.274 2.80029C158.257 2.73533 158.262 2.66662 158.286 2.60423C158.311 2.54184 158.354 2.48905 158.411 2.4536C160.29 1.44408 161.117 4.10121 159.773 5.31073C159.325 5.62924 158.81 5.83876 158.269 5.923C157.728 6.00723 157.175 5.96392 156.653 5.79644C154.087 5.19644 152.085 3.0536 149.284 4.27264C149.087 4.35836 148.852 4.12025 149.04 3.94883L149.04 3.92025Z" fill="#F8CA95"/>
<path d="M176.297 3.92025C175.861 3.50961 175.331 3.21603 174.755 3.0663C174.179 2.91658 173.575 2.91549 172.998 3.06312C172.145 3.25278 171.314 3.53041 170.517 3.89168C170.02 4.10714 169.511 4.29473 168.994 4.4536C168.714 4.549 168.424 4.60664 168.129 4.62502C167.236 4.92978 166.785 4.39645 166.776 3.03455C166.842 3.03167 166.906 3.00736 166.957 2.9652C167.009 2.92305 167.046 2.86526 167.063 2.80029C167.079 2.73533 167.075 2.66662 167.051 2.60423C167.026 2.54184 166.983 2.48905 166.926 2.4536C165.093 1.44408 164.219 4.10121 165.563 5.31073C166.012 5.62925 166.526 5.83876 167.068 5.923C167.609 6.00723 168.162 5.96392 168.684 5.79644C171.25 5.19644 173.252 3.0536 176.052 4.27264C176.25 4.35836 176.485 4.12025 176.297 3.94882L176.297 3.92025Z" fill="#F8CA95"/>
<path d="M160.835 2.8624C161.021 3.10544 161.255 3.30656 161.522 3.45288C161.691 3.57669 161.869 3.71001 162.048 3.81478C161.692 4.1124 161.353 4.43038 161.033 4.76715C160.873 4.93858 161.033 5.27191 161.277 5.1862C161.676 5.05091 162.056 4.86193 162.405 4.6243C162.405 4.99573 162.508 5.3862 162.555 5.73858C162.567 5.79949 162.599 5.85443 162.646 5.89394C162.693 5.93346 162.753 5.95508 162.814 5.95508C162.875 5.95508 162.934 5.93346 162.982 5.89394C163.029 5.85443 163.061 5.79949 163.072 5.73858C163.072 5.36715 163.166 4.96716 163.176 4.58621C163.41 4.79437 163.677 4.9617 163.965 5.08144C164.034 5.10152 164.108 5.0974 164.175 5.06975C164.241 5.0421 164.297 4.99255 164.332 4.92907C164.364 4.86696 164.377 4.79617 164.369 4.72632C164.361 4.65646 164.331 4.59092 164.285 4.53859C164.069 4.27192 163.862 4.00525 163.674 3.72906C163.944 3.33652 164.151 2.9024 164.285 2.44337C164.426 2.02432 163.852 1.84337 163.627 2.15765C163.401 2.47193 163.063 2.83384 162.79 3.18622L162.79 3.25288C162.539 3.04442 162.257 2.8773 161.954 2.75764C161.69 2.59913 161.395 2.50159 161.089 2.47194C161.041 2.46445 160.992 2.47108 160.948 2.49106C160.903 2.51104 160.865 2.54354 160.839 2.58466C160.812 2.62579 160.797 2.67381 160.797 2.72305C160.796 2.77229 160.81 2.82065 160.835 2.8624Z" fill="#F8CA95"/>
<path d="M178.434 3.92025C178.87 3.50961 179.4 3.21603 179.976 3.0663C180.552 2.91658 181.156 2.91549 181.733 3.06312C182.589 3.25418 183.423 3.53176 184.224 3.89168C184.718 4.10712 185.223 4.29471 185.737 4.4536C186.016 4.549 186.307 4.60664 186.602 4.62502C187.541 4.92978 187.946 4.39645 187.955 3.03455C187.889 3.03167 187.825 3.00736 187.774 2.9652C187.722 2.92305 187.685 2.86526 187.668 2.80029C187.652 2.73533 187.656 2.66662 187.68 2.60423C187.705 2.54184 187.748 2.48905 187.805 2.4536C189.684 1.44408 190.511 4.10121 189.167 5.31073C188.719 5.62924 188.204 5.83876 187.663 5.923C187.122 6.00723 186.569 5.96392 186.047 5.79644C183.481 5.19644 181.479 3.0536 178.679 4.27264C178.481 4.35836 178.246 4.12025 178.434 3.94883L178.434 3.92025Z" fill="#F8CA95"/>
<path d="M205.69 3.92025C205.255 3.50961 204.725 3.21603 204.148 3.0663C203.572 2.91658 202.968 2.91549 202.391 3.06312C201.539 3.25278 200.707 3.53041 199.91 3.89168C199.413 4.10714 198.905 4.29473 198.387 4.4536C198.108 4.549 197.817 4.60664 197.523 4.62502C196.63 4.92978 196.179 4.39645 196.169 3.03455C196.236 3.03167 196.299 3.00736 196.351 2.9652C196.402 2.92305 196.439 2.86526 196.456 2.80029C196.473 2.73533 196.469 2.66662 196.444 2.60423C196.42 2.54184 196.376 2.48905 196.32 2.4536C194.487 1.44408 193.613 4.10121 194.957 5.31073C195.405 5.62925 195.92 5.83876 196.461 5.923C197.002 6.00723 197.555 5.96392 198.077 5.79644C200.643 5.19644 202.645 3.0536 205.446 4.27264C205.643 4.35836 205.878 4.12025 205.69 3.94882L205.69 3.92025Z" fill="#F8CA95"/>
<path d="M190.23 2.8624C190.415 3.10544 190.649 3.30656 190.916 3.45288C191.085 3.57669 191.263 3.71001 191.442 3.81478C191.086 4.1124 190.747 4.43038 190.427 4.76715C190.267 4.93858 190.427 5.27191 190.671 5.1862C191.07 5.05091 191.45 4.86193 191.799 4.6243C191.799 4.99573 191.902 5.3862 191.949 5.73858C191.961 5.79949 191.993 5.85443 192.04 5.89394C192.087 5.93346 192.147 5.95508 192.208 5.95508C192.269 5.95508 192.328 5.93346 192.376 5.89394C192.423 5.85443 192.455 5.79949 192.466 5.73858C192.466 5.36715 192.56 4.96716 192.57 4.58621C192.804 4.79437 193.071 4.9617 193.359 5.08144C193.428 5.10152 193.502 5.0974 193.569 5.06975C193.635 5.0421 193.691 4.99255 193.726 4.92907C193.758 4.86696 193.772 4.79617 193.763 4.72632C193.755 4.65646 193.725 4.59092 193.679 4.53859C193.463 4.27192 193.256 4.00525 193.068 3.72906C193.338 3.33652 193.545 2.9024 193.679 2.44337C193.82 2.02432 193.246 1.84337 193.021 2.15765C192.795 2.47193 192.457 2.83384 192.184 3.18622L192.184 3.25288C191.933 3.04442 191.651 2.8773 191.348 2.75764C191.084 2.59913 190.789 2.50159 190.483 2.47194C190.435 2.46445 190.386 2.47108 190.342 2.49106C190.297 2.51104 190.259 2.54354 190.233 2.58466C190.206 2.62579 190.192 2.67381 190.191 2.72305C190.19 2.77229 190.204 2.82065 190.23 2.8624Z" fill="#F8CA95"/>
<path d="M207.829 3.92025C208.264 3.50961 208.794 3.21603 209.371 3.0663C209.947 2.91658 210.551 2.91549 211.128 3.06312C211.983 3.25418 212.818 3.53176 213.618 3.89168C214.112 4.10712 214.617 4.29471 215.131 4.4536C215.411 4.549 215.702 4.60664 215.996 4.62502C216.936 4.92978 217.34 4.39645 217.35 3.03455C217.283 3.03167 217.22 3.00736 217.168 2.9652C217.117 2.92305 217.08 2.86526 217.063 2.80029C217.046 2.73533 217.05 2.66662 217.075 2.60423C217.099 2.54184 217.143 2.48905 217.199 2.4536C219.079 1.44408 219.906 4.10121 218.562 5.31073C218.114 5.62924 217.599 5.83876 217.058 5.923C216.517 6.00723 215.964 5.96392 215.442 5.79644C212.876 5.19644 210.874 3.0536 208.073 4.27264C207.876 4.35836 207.641 4.12025 207.829 3.94883L207.829 3.92025Z" fill="#F8CA95"/>
<path d="M235.085 3.92025C234.649 3.50961 234.119 3.21603 233.543 3.0663C232.967 2.91658 232.363 2.91549 231.786 3.06312C230.933 3.25278 230.102 3.53041 229.305 3.89168C228.808 4.10714 228.299 4.29473 227.782 4.4536C227.502 4.549 227.212 4.60664 226.917 4.62502C226.024 4.92978 225.573 4.39645 225.564 3.03455C225.63 3.03167 225.694 3.00736 225.745 2.9652C225.797 2.92305 225.834 2.86526 225.851 2.80029C225.867 2.73533 225.863 2.66662 225.839 2.60423C225.814 2.54184 225.771 2.48905 225.714 2.4536C223.882 1.44408 223.007 4.10121 224.351 5.31073C224.8 5.62925 225.315 5.83876 225.856 5.923C226.397 6.00723 226.95 5.96392 227.472 5.79644C230.038 5.19644 232.04 3.0536 234.84 4.27264C235.038 4.35836 235.273 4.12025 235.085 3.94882L235.085 3.92025Z" fill="#F8CA95"/>
<path d="M219.624 2.8624C219.81 3.10544 220.043 3.30656 220.31 3.45288C220.479 3.57669 220.658 3.71001 220.836 3.81478C220.481 4.1124 220.142 4.43038 219.821 4.76715C219.662 4.93858 219.821 5.27191 220.066 5.1862C220.465 5.05091 220.844 4.86193 221.194 4.6243C221.194 4.99573 221.297 5.3862 221.344 5.73858C221.356 5.79949 221.388 5.85443 221.435 5.89394C221.482 5.93346 221.541 5.95508 221.602 5.95508C221.664 5.95508 221.723 5.93346 221.77 5.89394C221.817 5.85443 221.849 5.79949 221.861 5.73858C221.861 5.36715 221.955 4.96716 221.964 4.58621C222.199 4.79437 222.465 4.9617 222.754 5.08144C222.823 5.10152 222.897 5.0974 222.963 5.06975C223.03 5.0421 223.085 4.99255 223.12 4.92907C223.153 4.86696 223.166 4.79617 223.158 4.72632C223.149 4.65646 223.12 4.59092 223.073 4.53859C222.857 4.27192 222.65 4.00525 222.462 3.72906C222.733 3.33652 222.939 2.9024 223.073 2.44337C223.214 2.02432 222.641 1.84337 222.415 2.15765C222.19 2.47193 221.852 2.83384 221.579 3.18622L221.579 3.25288C221.327 3.04442 221.045 2.8773 220.742 2.75764C220.479 2.59913 220.183 2.50159 219.878 2.47194C219.83 2.46445 219.781 2.47108 219.736 2.49106C219.692 2.51104 219.654 2.54354 219.627 2.58466C219.601 2.62579 219.586 2.67381 219.585 2.72305C219.585 2.77229 219.598 2.82065 219.624 2.8624Z" fill="#F8CA95"/>
<path d="M237.223 3.92025C237.658 3.50961 238.188 3.21603 238.765 3.0663C239.341 2.91658 239.945 2.91549 240.522 3.06312C241.377 3.25418 242.212 3.53176 243.012 3.89168C243.506 4.10712 244.011 4.29471 244.526 4.4536C244.805 4.549 245.096 4.60664 245.39 4.62502C246.33 4.92978 246.734 4.39645 246.744 3.03455C246.677 3.03167 246.614 3.00736 246.562 2.9652C246.511 2.92305 246.474 2.86526 246.457 2.80029C246.44 2.73533 246.444 2.66662 246.469 2.60423C246.493 2.54184 246.537 2.48905 246.593 2.4536C248.473 1.44408 249.3 4.10121 247.956 5.31073C247.508 5.62924 246.993 5.83876 246.452 5.923C245.911 6.00723 245.358 5.96392 244.836 5.79644C242.27 5.19644 240.268 3.0536 237.467 4.27264C237.27 4.35836 237.035 4.12025 237.223 3.94883L237.223 3.92025Z" fill="#F8CA95"/>
<path d="M264.479 3.92025C264.044 3.50961 263.514 3.21603 262.937 3.0663C262.361 2.91658 261.757 2.91549 261.18 3.06312C260.328 3.25278 259.496 3.53041 258.699 3.89168C258.202 4.10714 257.694 4.29473 257.177 4.4536C256.897 4.549 256.606 4.60664 256.312 4.62502C255.419 4.92978 254.968 4.39645 254.958 3.03455C255.025 3.03167 255.088 3.00736 255.14 2.9652C255.191 2.92305 255.228 2.86526 255.245 2.80029C255.262 2.73533 255.258 2.66662 255.233 2.60423C255.209 2.54184 255.165 2.48905 255.109 2.4536C253.276 1.44408 252.402 4.10121 253.746 5.31073C254.194 5.62925 254.709 5.83876 255.25 5.923C255.791 6.00723 256.344 5.96392 256.866 5.79644C259.432 5.19644 261.434 3.0536 264.235 4.27264C264.432 4.35836 264.667 4.12025 264.479 3.94882L264.479 3.92025Z" fill="#F8CA95"/>
<path d="M249.018 2.8624C249.204 3.10544 249.437 3.30656 249.704 3.45288C249.873 3.57669 250.052 3.71001 250.231 3.81478C249.875 4.1124 249.536 4.43038 249.215 4.76715C249.056 4.93858 249.215 5.27191 249.46 5.1862C249.859 5.05091 250.238 4.86193 250.588 4.6243C250.588 4.99573 250.691 5.3862 250.738 5.73858C250.75 5.79949 250.782 5.85443 250.829 5.89394C250.876 5.93346 250.935 5.95508 250.997 5.95508C251.058 5.95508 251.117 5.93346 251.164 5.89394C251.211 5.85443 251.243 5.79949 251.255 5.73858C251.255 5.36715 251.349 4.96716 251.358 4.58621C251.593 4.79437 251.859 4.9617 252.148 5.08144C252.217 5.10152 252.291 5.0974 252.357 5.06975C252.424 5.0421 252.479 4.99255 252.514 4.92907C252.547 4.86696 252.56 4.79617 252.552 4.72632C252.543 4.65646 252.514 4.59092 252.467 4.53859C252.251 4.27192 252.044 4.00525 251.856 3.72906C252.127 3.33652 252.333 2.9024 252.467 2.44337C252.608 2.02432 252.035 1.84337 251.809 2.15765C251.584 2.47193 251.246 2.83384 250.973 3.18622L250.973 3.25288C250.722 3.04442 250.439 2.8773 250.137 2.75764C249.873 2.59913 249.577 2.50159 249.272 2.47194C249.224 2.46445 249.175 2.47108 249.13 2.49106C249.086 2.51104 249.048 2.54354 249.021 2.58466C248.995 2.62579 248.98 2.67381 248.98 2.72305C248.979 2.77229 248.992 2.82065 249.018 2.8624Z" fill="#F8CA95"/>
<path d="M266.617 3.92025C267.052 3.50961 267.582 3.21603 268.159 3.0663C268.735 2.91658 269.339 2.91549 269.916 3.06312C270.771 3.25418 271.606 3.53176 272.406 3.89168C272.9 4.10712 273.405 4.29471 273.92 4.4536C274.199 4.549 274.49 4.60664 274.784 4.62502C275.724 4.92978 276.128 4.39645 276.138 3.03455C276.071 3.03167 276.008 3.00736 275.956 2.9652C275.905 2.92305 275.868 2.86526 275.851 2.80029C275.834 2.73533 275.838 2.66662 275.863 2.60423C275.887 2.54184 275.931 2.48905 275.987 2.4536C277.867 1.44408 278.694 4.10121 277.35 5.31073C276.902 5.62924 276.387 5.83876 275.846 5.923C275.305 6.00723 274.752 5.96392 274.23 5.79644C271.664 5.19644 269.662 3.0536 266.861 4.27264C266.664 4.35836 266.429 4.12025 266.617 3.94883L266.617 3.92025Z" fill="#F8CA95"/>
<path d="M293.873 3.92025C293.437 3.50961 292.907 3.21603 292.331 3.0663C291.755 2.91658 291.151 2.91549 290.574 3.06312C289.721 3.25278 288.89 3.53041 288.093 3.89168C287.596 4.10714 287.087 4.29473 286.57 4.4536C286.291 4.549 286 4.60664 285.705 4.62502C284.813 4.92978 284.361 4.39645 284.352 3.03455C284.418 3.03167 284.482 3.00736 284.533 2.9652C284.585 2.92305 284.622 2.86526 284.639 2.80029C284.656 2.73533 284.651 2.66662 284.627 2.60423C284.602 2.54184 284.559 2.48905 284.502 2.4536C282.67 1.44408 281.796 4.10121 283.14 5.31073C283.588 5.62925 284.103 5.83876 284.644 5.923C285.185 6.00723 285.738 5.96392 286.26 5.79644C288.826 5.19644 290.828 3.0536 293.629 4.27264C293.826 4.35836 294.061 4.12025 293.873 3.94882L293.873 3.92025Z" fill="#F8CA95"/>
<path d="M278.412 2.8624C278.598 3.10544 278.832 3.30656 279.098 3.45288C279.267 3.57669 279.446 3.71001 279.625 3.81478C279.269 4.1124 278.93 4.43038 278.61 4.76715C278.45 4.93858 278.61 5.27191 278.854 5.1862C279.253 5.05091 279.632 4.86193 279.982 4.6243C279.982 4.99573 280.085 5.3862 280.132 5.73858C280.144 5.79949 280.176 5.85443 280.223 5.89394C280.27 5.93346 280.329 5.95508 280.391 5.95508C280.452 5.95508 280.511 5.93346 280.558 5.89394C280.605 5.85443 280.638 5.79949 280.649 5.73858C280.649 5.36715 280.743 4.96716 280.752 4.58621C280.987 4.79437 281.254 4.9617 281.542 5.08144C281.611 5.10152 281.685 5.0974 281.751 5.06975C281.818 5.0421 281.873 4.99255 281.908 4.92907C281.941 4.86696 281.954 4.79617 281.946 4.72632C281.937 4.65646 281.908 4.59092 281.861 4.53859C281.645 4.27192 281.439 4.00525 281.251 3.72906C281.521 3.33652 281.727 2.9024 281.861 2.44337C282.002 2.02432 281.429 1.84337 281.204 2.15765C280.978 2.47193 280.64 2.83384 280.367 3.18622L280.367 3.25288C280.116 3.04442 279.833 2.8773 279.531 2.75764C279.267 2.59913 278.971 2.50159 278.666 2.47194C278.618 2.46445 278.569 2.47108 278.524 2.49106C278.48 2.51104 278.442 2.54354 278.415 2.58466C278.389 2.62579 278.374 2.67381 278.374 2.72305C278.373 2.77229 278.386 2.82065 278.412 2.8624Z" fill="#F8CA95"/>
<path d="M296.011 3.92025C296.447 3.50961 296.977 3.21603 297.553 3.0663C298.129 2.91658 298.733 2.91549 299.31 3.06312C300.166 3.25418 301 3.53176 301.801 3.89168C302.295 4.10712 302.8 4.29471 303.314 4.4536C303.594 4.549 303.884 4.60664 304.179 4.62502C305.119 4.92978 305.523 4.39645 305.532 3.03455C305.466 3.03167 305.402 3.00736 305.351 2.9652C305.299 2.92305 305.262 2.86526 305.245 2.80029C305.229 2.73533 305.233 2.66662 305.257 2.60423C305.282 2.54184 305.326 2.48905 305.382 2.4536C307.262 1.44408 308.089 4.10121 306.745 5.31073C306.296 5.62924 305.782 5.83876 305.24 5.923C304.699 6.00723 304.146 5.96392 303.624 5.79644C301.058 5.19644 299.056 3.0536 296.256 4.27264C296.058 4.35836 295.823 4.12025 296.011 3.94883L296.011 3.92025Z" fill="#F8CA95"/>
<path d="M323.267 3.92025C322.832 3.50961 322.302 3.21603 321.726 3.0663C321.149 2.91658 320.545 2.91549 319.968 3.06312C319.116 3.25278 318.284 3.53041 317.487 3.89168C316.99 4.10714 316.482 4.29473 315.965 4.4536C315.685 4.549 315.394 4.60664 315.1 4.62502C314.207 4.92978 313.756 4.39645 313.747 3.03455C313.813 3.03167 313.876 3.00736 313.928 2.9652C313.98 2.92305 314.016 2.86526 314.033 2.80029C314.05 2.73533 314.046 2.66662 314.021 2.60423C313.997 2.54184 313.953 2.48905 313.897 2.4536C312.064 1.44408 311.19 4.10121 312.534 5.31073C312.982 5.62925 313.497 5.83876 314.038 5.923C314.579 6.00723 315.133 5.96392 315.654 5.79644C318.22 5.19644 320.222 3.0536 323.023 4.27264C323.22 4.35836 323.455 4.12025 323.267 3.94882L323.267 3.92025Z" fill="#F8CA95"/>
<path d="M307.807 2.8624C307.992 3.10544 308.226 3.30656 308.493 3.45288C308.662 3.57669 308.841 3.71001 309.019 3.81478C308.663 4.1124 308.324 4.43038 308.004 4.76715C307.844 4.93858 308.004 5.27191 308.248 5.1862C308.647 5.05091 309.027 4.86193 309.376 4.6243C309.376 4.99573 309.48 5.3862 309.527 5.73858C309.538 5.79949 309.57 5.85443 309.617 5.89394C309.665 5.93346 309.724 5.95508 309.785 5.95508C309.846 5.95508 309.906 5.93346 309.953 5.89394C310 5.85443 310.032 5.79949 310.044 5.73858C310.044 5.36715 310.138 4.96716 310.147 4.58621C310.381 4.79437 310.648 4.9617 310.936 5.08144C311.006 5.10152 311.079 5.0974 311.146 5.06975C311.212 5.0421 311.268 4.99255 311.303 4.92907C311.336 4.86696 311.349 4.79617 311.34 4.72632C311.332 4.65646 311.302 4.59092 311.256 4.53859C311.04 4.27192 310.833 4.00525 310.645 3.72906C310.916 3.33652 311.122 2.9024 311.256 2.44337C311.397 2.02432 310.824 1.84337 310.598 2.15765C310.373 2.47193 310.034 2.83384 309.762 3.18622L309.762 3.25288C309.51 3.04442 309.228 2.8773 308.925 2.75764C308.661 2.59913 308.366 2.50159 308.06 2.47194C308.012 2.46445 307.963 2.47108 307.919 2.49106C307.874 2.51104 307.837 2.54354 307.81 2.58466C307.783 2.62579 307.769 2.67381 307.768 2.72305C307.768 2.77229 307.781 2.82065 307.807 2.8624Z" fill="#F8CA95"/>
<path d="M325.405 3.92025C325.841 3.50961 326.371 3.21603 326.947 3.0663C327.523 2.91658 328.128 2.91549 328.704 3.06312C329.56 3.25418 330.394 3.53176 331.195 3.89168C331.689 4.10712 332.194 4.29471 332.708 4.4536C332.988 4.549 333.278 4.60664 333.573 4.62502C334.513 4.92978 334.917 4.39645 334.926 3.03455C334.86 3.03167 334.796 3.00736 334.745 2.9652C334.693 2.92305 334.656 2.86526 334.64 2.80029C334.623 2.73533 334.627 2.66662 334.651 2.60423C334.676 2.54184 334.72 2.48905 334.776 2.4536C336.656 1.44408 337.483 4.10121 336.139 5.31073C335.69 5.62924 335.176 5.83876 334.634 5.923C334.093 6.00723 333.54 5.96392 333.018 5.79644C330.452 5.19644 328.451 3.0536 325.65 4.27264C325.452 4.35836 325.217 4.12025 325.405 3.94883L325.405 3.92025Z" fill="#F8CA95"/>
<path d="M352.662 3.92025C352.226 3.50961 351.696 3.21603 351.12 3.0663C350.544 2.91658 349.94 2.91549 349.363 3.06312C348.51 3.25278 347.679 3.53041 346.882 3.89168C346.385 4.10714 345.876 4.29473 345.359 4.4536C345.08 4.549 344.789 4.60664 344.494 4.62502C343.602 4.92978 343.15 4.39645 343.141 3.03455C343.207 3.03167 343.271 3.00736 343.322 2.9652C343.374 2.92305 343.411 2.86526 343.428 2.80029C343.445 2.73533 343.44 2.66662 343.416 2.60423C343.391 2.54184 343.348 2.48905 343.291 2.4536C341.459 1.44408 340.585 4.10121 341.929 5.31073C342.377 5.62925 342.892 5.83876 343.433 5.923C343.974 6.00723 344.527 5.96392 345.049 5.79644C347.615 5.19644 349.617 3.0536 352.418 4.27264C352.615 4.35836 352.85 4.12025 352.662 3.94882L352.662 3.92025Z" fill="#F8CA95"/>
<path d="M337.201 2.8624C337.386 3.10544 337.62 3.30656 337.887 3.45288C338.056 3.57669 338.235 3.71001 338.413 3.81478C338.057 4.1124 337.718 4.43038 337.398 4.76715C337.238 4.93858 337.398 5.27191 337.642 5.1862C338.042 5.05091 338.421 4.86193 338.77 4.6243C338.77 4.99573 338.874 5.3862 338.921 5.73858C338.932 5.79949 338.964 5.85443 339.011 5.89394C339.059 5.93346 339.118 5.95508 339.179 5.95508C339.24 5.95508 339.3 5.93346 339.347 5.89394C339.394 5.85443 339.426 5.79949 339.438 5.73858C339.438 5.36715 339.532 4.96716 339.541 4.58621C339.775 4.79437 340.042 4.9617 340.33 5.08144C340.4 5.10152 340.473 5.0974 340.54 5.06975C340.606 5.0421 340.662 4.99255 340.697 4.92907C340.73 4.86696 340.743 4.79617 340.734 4.72632C340.726 4.65646 340.696 4.59092 340.65 4.53859C340.434 4.27192 340.227 4.00525 340.039 3.72906C340.31 3.33652 340.516 2.9024 340.65 2.44337C340.791 2.02432 340.218 1.84337 339.992 2.15765C339.767 2.47193 339.428 2.83384 339.156 3.18622L339.156 3.25288C338.904 3.04442 338.622 2.8773 338.319 2.75764C338.055 2.59913 337.76 2.50159 337.454 2.47194C337.406 2.46445 337.357 2.47108 337.313 2.49106C337.268 2.51104 337.231 2.54354 337.204 2.58466C337.177 2.62579 337.163 2.67381 337.162 2.72305C337.162 2.77229 337.175 2.82065 337.201 2.8624Z" fill="#F8CA95"/>
<path d="M354.799 3.92025C355.235 3.50961 355.765 3.21603 356.341 3.0663C356.917 2.91658 357.522 2.91549 358.098 3.06312C358.954 3.25418 359.788 3.53176 360.589 3.89168C361.083 4.10712 361.588 4.29471 362.102 4.4536C362.382 4.549 362.672 4.60664 362.967 4.62502C363.907 4.92978 364.311 4.39645 364.32 3.03455C364.254 3.03167 364.19 3.00736 364.139 2.9652C364.087 2.92305 364.05 2.86526 364.034 2.80029C364.017 2.73533 364.021 2.66662 364.045 2.60423C364.07 2.54184 364.114 2.48905 364.17 2.4536C366.05 1.44408 366.877 4.10121 365.533 5.31073C365.084 5.62924 364.57 5.83876 364.029 5.923C363.487 6.00723 362.934 5.96392 362.412 5.79644C359.846 5.19644 357.845 3.0536 355.044 4.27264C354.846 4.35836 354.611 4.12025 354.799 3.94883L354.799 3.92025Z" fill="#F8CA95"/>
<path d="M382.056 3.92025C381.62 3.50961 381.09 3.21603 380.514 3.0663C379.937 2.91658 379.333 2.91549 378.757 3.06312C377.904 3.25278 377.072 3.53041 376.275 3.89168C375.778 4.10714 375.27 4.29473 374.753 4.4536C374.473 4.549 374.182 4.60664 373.888 4.62502C372.995 4.92978 372.544 4.39645 372.535 3.03455C372.601 3.03167 372.664 3.00736 372.716 2.9652C372.768 2.92305 372.805 2.86526 372.821 2.80029C372.838 2.73533 372.834 2.66662 372.809 2.60423C372.785 2.54184 372.741 2.48905 372.685 2.4536C370.852 1.44408 369.978 4.10121 371.322 5.31073C371.77 5.62925 372.285 5.83876 372.826 5.923C373.368 6.00723 373.921 5.96392 374.443 5.79644C377.008 5.19644 379.01 3.0536 381.811 4.27264C382.009 4.35836 382.243 4.12025 382.056 3.94882L382.056 3.92025Z" fill="#F8CA95"/>
<path d="M366.595 2.8624C366.78 3.10544 367.014 3.30656 367.281 3.45288C367.45 3.57669 367.629 3.71001 367.807 3.81478C367.451 4.1124 367.112 4.43038 366.792 4.76715C366.632 4.93858 366.792 5.27191 367.036 5.1862C367.436 5.05091 367.815 4.86193 368.164 4.6243C368.164 4.99573 368.268 5.3862 368.315 5.73858C368.326 5.79949 368.358 5.85443 368.406 5.89394C368.453 5.93346 368.512 5.95508 368.573 5.95508C368.634 5.95508 368.694 5.93346 368.741 5.89394C368.788 5.85443 368.82 5.79949 368.832 5.73858C368.832 5.36715 368.926 4.96716 368.935 4.58621C369.169 4.79437 369.436 4.9617 369.725 5.08144C369.794 5.10152 369.867 5.0974 369.934 5.06975C370 5.0421 370.056 4.99255 370.091 4.92907C370.124 4.86696 370.137 4.79617 370.128 4.72632C370.12 4.65646 370.091 4.59092 370.044 4.53859C369.828 4.27192 369.621 4.00525 369.433 3.72906C369.704 3.33652 369.91 2.9024 370.044 2.44337C370.185 2.02432 369.612 1.84337 369.386 2.15765C369.161 2.47193 368.822 2.83384 368.55 3.18622L368.55 3.25288C368.298 3.04442 368.016 2.8773 367.713 2.75764C367.449 2.59913 367.154 2.50159 366.849 2.47194C366.8 2.46445 366.751 2.47108 366.707 2.49106C366.663 2.51104 366.625 2.54354 366.598 2.58466C366.571 2.62579 366.557 2.67381 366.556 2.72305C366.556 2.77229 366.569 2.82065 366.595 2.8624Z" fill="#F8CA95"/>
<path d="M384.194 3.92025C384.629 3.50961 385.16 3.21603 385.736 3.0663C386.312 2.91658 386.916 2.91549 387.493 3.06312C388.348 3.25418 389.183 3.53176 389.984 3.89168C390.477 4.10712 390.982 4.29471 391.497 4.4536C391.776 4.549 392.067 4.60664 392.361 4.62502C393.301 4.92978 393.705 4.39645 393.715 3.03455C393.649 3.03167 393.585 3.00736 393.533 2.9652C393.482 2.92305 393.445 2.86526 393.428 2.80029C393.411 2.73533 393.415 2.66662 393.44 2.60423C393.465 2.54184 393.508 2.48905 393.564 2.4536C395.444 1.44408 396.271 4.10121 394.927 5.31073C394.479 5.62924 393.964 5.83876 393.423 5.923C392.882 6.00723 392.329 5.96392 391.807 5.79644C389.241 5.19644 387.239 3.0536 384.438 4.27264C384.241 4.35836 384.006 4.12025 384.194 3.94883L384.194 3.92025Z" fill="#F8CA95"/>
<path d="M411.45 3.92025C411.015 3.50961 410.484 3.21603 409.908 3.0663C409.332 2.91658 408.728 2.91549 408.151 3.06312C407.298 3.25278 406.467 3.53041 405.67 3.89168C405.173 4.10714 404.665 4.29473 404.147 4.4536C403.868 4.549 403.577 4.60664 403.283 4.62502C402.39 4.92978 401.939 4.39645 401.929 3.03455C401.995 3.03167 402.059 3.00736 402.111 2.9652C402.162 2.92305 402.199 2.86526 402.216 2.80029C402.233 2.73533 402.229 2.66662 402.204 2.60423C402.179 2.54184 402.136 2.48905 402.08 2.4536C400.247 1.44408 399.373 4.10121 400.717 5.31073C401.165 5.62925 401.68 5.83876 402.221 5.923C402.762 6.00723 403.315 5.96392 403.837 5.79644C406.403 5.19644 408.405 3.0536 411.206 4.27264C411.403 4.35836 411.638 4.12025 411.45 3.94882L411.45 3.92025Z" fill="#F8CA95"/>
<path d="M395.989 2.8624C396.175 3.10544 396.409 3.30656 396.675 3.45288C396.845 3.57669 397.023 3.71001 397.202 3.81478C396.846 4.1124 396.507 4.43038 396.187 4.76715C396.027 4.93858 396.187 5.27191 396.431 5.1862C396.83 5.05091 397.209 4.86193 397.559 4.6243C397.559 4.99573 397.662 5.3862 397.709 5.73858C397.721 5.79949 397.753 5.85443 397.8 5.89394C397.847 5.93346 397.907 5.95508 397.968 5.95508C398.029 5.95508 398.088 5.93346 398.135 5.89394C398.183 5.85443 398.215 5.79949 398.226 5.73858C398.226 5.36715 398.32 4.96716 398.33 4.58621C398.564 4.79437 398.831 4.9617 399.119 5.08144C399.188 5.10152 399.262 5.0974 399.328 5.06975C399.395 5.0421 399.45 4.99255 399.486 4.92907C399.518 4.86696 399.531 4.79617 399.523 4.72632C399.514 4.65646 399.485 4.59092 399.439 4.53859C399.222 4.27192 399.016 4.00525 398.828 3.72906C399.098 3.33652 399.304 2.9024 399.439 2.44337C399.58 2.02432 399.006 1.84337 398.781 2.15765C398.555 2.47193 398.217 2.83384 397.944 3.18622L397.944 3.25288C397.693 3.04442 397.41 2.8773 397.108 2.75764C396.844 2.59913 396.549 2.50159 396.243 2.47194C396.195 2.46445 396.146 2.47108 396.101 2.49106C396.057 2.51104 396.019 2.54354 395.993 2.58466C395.966 2.62579 395.951 2.67381 395.951 2.72305C395.95 2.77229 395.964 2.82065 395.989 2.8624Z" fill="#F8CA95"/>
<path d="M413.588 3.92025C414.023 3.50961 414.554 3.21603 415.13 3.0663C415.706 2.91658 416.31 2.91549 416.887 3.06312C417.742 3.25418 418.577 3.53176 419.378 3.89168C419.871 4.10712 420.377 4.29471 420.891 4.4536C421.17 4.549 421.461 4.60664 421.755 4.62502C422.695 4.92978 423.099 4.39645 423.109 3.03455C423.043 3.03167 422.979 3.00736 422.927 2.9652C422.876 2.92305 422.839 2.86526 422.822 2.80029C422.805 2.73533 422.809 2.66662 422.834 2.60423C422.859 2.54184 422.902 2.48905 422.958 2.4536C424.838 1.44408 425.665 4.10121 424.321 5.31073C423.873 5.62924 423.358 5.83876 422.817 5.923C422.276 6.00723 421.723 5.96392 421.201 5.79644C418.635 5.19644 416.633 3.0536 413.832 4.27264C413.635 4.35836 413.4 4.12025 413.588 3.94883L413.588 3.92025Z" fill="#F8CA95"/>
<path d="M440.845 3.92025C440.409 3.50961 439.879 3.21603 439.303 3.0663C438.726 2.91658 438.122 2.91549 437.546 3.06312C436.693 3.25278 435.861 3.53041 435.064 3.89168C434.567 4.10714 434.059 4.29473 433.542 4.4536C433.262 4.549 432.972 4.60664 432.677 4.62502C431.784 4.92978 431.333 4.39645 431.324 3.03455C431.39 3.03167 431.453 3.00736 431.505 2.9652C431.557 2.92305 431.594 2.86526 431.61 2.80029C431.627 2.73533 431.623 2.66662 431.599 2.60423C431.574 2.54184 431.53 2.48905 431.474 2.4536C429.641 1.44408 428.767 4.10121 430.111 5.31073C430.56 5.62925 431.074 5.83876 431.615 5.923C432.157 6.00723 432.71 5.96392 433.232 5.79644C435.797 5.19644 437.799 3.0536 440.6 4.27264C440.798 4.35836 441.033 4.12025 440.845 3.94882L440.845 3.92025Z" fill="#F8CA95"/>
<path d="M425.383 2.8624C425.569 3.10544 425.803 3.30656 426.069 3.45288C426.239 3.57669 426.417 3.71001 426.596 3.81478C426.24 4.1124 425.901 4.43038 425.581 4.76715C425.421 4.93858 425.581 5.27191 425.825 5.1862C426.224 5.05091 426.603 4.86193 426.953 4.6243C426.953 4.99573 427.056 5.3862 427.103 5.73858C427.115 5.79949 427.147 5.85443 427.194 5.89394C427.241 5.93346 427.301 5.95508 427.362 5.95508C427.423 5.95508 427.482 5.93346 427.529 5.89394C427.577 5.85443 427.609 5.79949 427.62 5.73858C427.62 5.36715 427.714 4.96716 427.724 4.58621C427.958 4.79437 428.225 4.9617 428.513 5.08144C428.582 5.10152 428.656 5.0974 428.722 5.06975C428.789 5.0421 428.844 4.99255 428.88 4.92907C428.912 4.86696 428.925 4.79617 428.917 4.72632C428.908 4.65646 428.879 4.59092 428.833 4.53859C428.616 4.27192 428.41 4.00525 428.222 3.72906C428.492 3.33652 428.698 2.9024 428.833 2.44337C428.974 2.02432 428.4 1.84337 428.175 2.15765C427.949 2.47193 427.611 2.83384 427.338 3.18622L427.338 3.25288C427.087 3.04442 426.804 2.8773 426.502 2.75764C426.238 2.59913 425.943 2.50159 425.637 2.47194C425.589 2.46445 425.54 2.47108 425.496 2.49106C425.451 2.51104 425.413 2.54354 425.387 2.58466C425.36 2.62579 425.345 2.67381 425.345 2.72305C425.344 2.77229 425.358 2.82065 425.383 2.8624Z" fill="#F8CA95"/>
<path d="M442.983 3.92025C443.418 3.50961 443.948 3.21603 444.524 3.0663C445.101 2.91658 445.705 2.91549 446.281 3.06312C447.137 3.25418 447.971 3.53176 448.772 3.89168C449.266 4.10712 449.771 4.29471 450.285 4.4536C450.565 4.549 450.856 4.60664 451.15 4.62502C452.09 4.92978 452.494 4.39645 452.503 3.03455C452.437 3.03167 452.374 3.00736 452.322 2.9652C452.27 2.92305 452.233 2.86526 452.217 2.80029C452.2 2.73533 452.204 2.66662 452.229 2.60423C452.253 2.54184 452.297 2.48905 452.353 2.4536C454.233 1.44408 455.06 4.10121 453.716 5.31073C453.268 5.62924 452.753 5.83876 452.212 5.923C451.67 6.00723 451.117 5.96392 450.595 5.79644C448.03 5.19644 446.028 3.0536 443.227 4.27264C443.03 4.35836 442.795 4.12025 442.983 3.94883L442.983 3.92025Z" fill="#F8CA95"/>
<path d="M470.239 3.92025C469.804 3.50961 469.274 3.21603 468.697 3.0663C468.121 2.91658 467.517 2.91549 466.94 3.06312C466.087 3.25278 465.256 3.53041 464.459 3.89168C463.962 4.10714 463.454 4.29473 462.936 4.4536C462.657 4.549 462.366 4.60664 462.072 4.62502C461.179 4.92978 460.728 4.39645 460.718 3.03455C460.784 3.03167 460.848 3.00736 460.9 2.9652C460.951 2.92305 460.988 2.86526 461.005 2.80029C461.022 2.73533 461.018 2.66662 460.993 2.60423C460.969 2.54184 460.925 2.48905 460.869 2.4536C459.036 1.44408 458.162 4.10121 459.506 5.31073C459.954 5.62925 460.469 5.83876 461.01 5.923C461.551 6.00723 462.104 5.96392 462.626 5.79644C465.192 5.19644 467.194 3.0536 469.995 4.27264C470.192 4.35836 470.427 4.12025 470.239 3.94882L470.239 3.92025Z" fill="#F8CA95"/>
<path d="M454.778 2.8624C454.964 3.10544 455.197 3.30656 455.464 3.45288C455.633 3.57669 455.812 3.71001 455.99 3.81478C455.634 4.1124 455.295 4.43038 454.975 4.76715C454.815 4.93858 454.975 5.27191 455.22 5.1862C455.619 5.05091 455.998 4.86193 456.347 4.6243C456.347 4.99573 456.451 5.3862 456.498 5.73858C456.509 5.79949 456.541 5.85443 456.589 5.89394C456.636 5.93346 456.695 5.95508 456.756 5.95508C456.817 5.95508 456.877 5.93346 456.924 5.89394C456.971 5.85443 457.003 5.79949 457.015 5.73858C457.015 5.36715 457.109 4.96716 457.118 4.58621C457.352 4.79437 457.619 4.9617 457.908 5.08144C457.977 5.10152 458.05 5.0974 458.117 5.06975C458.184 5.0421 458.239 4.99255 458.274 4.92907C458.307 4.86696 458.32 4.79617 458.311 4.72632C458.303 4.65646 458.274 4.59092 458.227 4.53859C458.011 4.27192 457.804 4.00525 457.616 3.72906C457.887 3.33652 458.093 2.9024 458.227 2.44337C458.368 2.02432 457.795 1.84337 457.569 2.15765C457.344 2.47193 457.005 2.83384 456.733 3.18622L456.733 3.25288C456.481 3.04442 456.199 2.8773 455.896 2.75764C455.632 2.59913 455.337 2.50159 455.032 2.47194C454.984 2.46445 454.934 2.47108 454.89 2.49106C454.846 2.51104 454.808 2.54354 454.781 2.58466C454.754 2.62579 454.74 2.67381 454.739 2.72305C454.739 2.77229 454.752 2.82065 454.778 2.8624Z" fill="#F8CA95"/>
</svg>
