<svg width="118" height="139" viewBox="0 0 118 139" fill="none" xmlns="http://www.w3.org/2000/svg">
<g clip-path="url(#clip0_5243_1165)">
<path d="M14.4099 56.2504L12.6999 57.5104L12.7799 59.6304L11.0499 58.4004L9.04988 59.1204L9.68988 57.1004L8.37988 55.4304L10.5099 55.4104L11.6999 53.6504L12.3699 55.6604L14.4099 56.2504Z" fill="#FFC60B"/>
<path d="M12.2 56.6895L17.4 59.4995L11.71 57.8795L12.2 56.6895Z" fill="#FFC60B"/>
<path d="M27.2999 25.1898L25.4899 25.3098L24.5699 26.8698L23.8899 25.1998L22.1299 24.7998L23.5099 23.6398L23.3399 21.8398L24.8799 22.7998L26.5399 22.0698L26.0999 23.8298L27.2999 25.1898Z" fill="#FFC60B"/>
<path d="M25.5099 24.4902L27.9599 28.8902L24.6099 25.1302L25.5099 24.4902Z" fill="#FFC60B"/>
<path d="M1.6599 39.1392L5.5999 41.9492L1.37993 39.5792C1.34931 39.5626 1.32234 39.5399 1.30064 39.5126C1.27895 39.4853 1.26298 39.454 1.25365 39.4204C1.24432 39.3868 1.24181 39.3517 1.24632 39.3171C1.25084 39.2826 1.26231 39.2493 1.27995 39.2192C1.29561 39.1889 1.31729 39.1621 1.34367 39.1405C1.37006 39.1189 1.40055 39.103 1.43334 39.0936C1.46612 39.0842 1.50048 39.0817 1.53429 39.0861C1.5681 39.0905 1.60064 39.1017 1.62993 39.1192L1.6599 39.1392Z" fill="#FFC60B"/>
<path d="M34.7703 60.1599L41.3602 64.6599L34.4902 60.6C34.4596 60.5833 34.4326 60.5606 34.411 60.5334C34.3893 60.5061 34.3733 60.4747 34.364 60.4411C34.3546 60.4076 34.3522 60.3724 34.3567 60.3379C34.3612 60.3033 34.3726 60.27 34.3903 60.2399C34.4274 60.1818 34.4854 60.14 34.5523 60.1233C34.6193 60.1066 34.6901 60.1161 34.7502 60.1499L34.7703 60.1599Z" fill="#FFC60B"/>
<path d="M7.07014 42.57L8.69014 43.91L6.79012 43.01C6.75824 42.996 6.72954 42.9757 6.70564 42.9503C6.68175 42.925 6.6632 42.8951 6.65108 42.8625C6.63895 42.8298 6.63346 42.7951 6.63503 42.7603C6.63659 42.7255 6.64511 42.6914 6.66011 42.66C6.69047 42.5974 6.74383 42.5489 6.80904 42.5247C6.87424 42.5005 6.9463 42.5024 7.01015 42.53L7.07014 42.57Z" fill="#FFC60B"/>
<path d="M28.8099 56.3805L30.4299 57.7205L28.5299 56.8205C28.498 56.8065 28.4693 56.7862 28.4454 56.7609C28.4215 56.7355 28.4029 56.7057 28.3908 56.673C28.3787 56.6404 28.3732 56.6056 28.3748 56.5708C28.3763 56.5361 28.3849 56.5019 28.3999 56.4705C28.4303 56.4079 28.4836 56.3595 28.5488 56.3353C28.614 56.311 28.686 56.3129 28.7499 56.3405L28.8099 56.3805Z" fill="#FFC60B"/>
<path d="M31.62 58.1595L33.25 59.5095L31.34 58.6095C31.288 58.5726 31.2507 58.5186 31.2347 58.4569C31.2187 58.3953 31.225 58.3299 31.2526 58.2725C31.2801 58.215 31.3271 58.1691 31.3852 58.143C31.4433 58.1168 31.5087 58.112 31.57 58.1295L31.62 58.1595Z" fill="#FFC60B"/>
<path d="M10.0499 44.459L27.7799 56.039L9.77992 44.899C9.74906 44.8826 9.72198 44.8598 9.70046 44.8323C9.67893 44.8047 9.66341 44.7729 9.65492 44.739C9.64644 44.7051 9.64517 44.6698 9.6512 44.6353C9.65723 44.6009 9.6704 44.5681 9.6899 44.539C9.70821 44.5101 9.73205 44.485 9.76009 44.4653C9.78812 44.4456 9.81977 44.4316 9.85323 44.4242C9.88668 44.4167 9.92129 44.416 9.95503 44.422C9.98878 44.4279 10.021 44.4405 10.0499 44.459Z" fill="#FFC60B"/>
<path d="M29.7199 68.1895L37.6699 68.7995L29.6699 68.7094C29.6354 68.7109 29.6009 68.7051 29.5687 68.6925C29.5366 68.68 29.5074 68.6609 29.4829 68.6364C29.4585 68.612 29.4394 68.5828 29.4268 68.5506C29.4143 68.5184 29.4085 68.484 29.4099 68.4495C29.4099 68.3805 29.4373 68.3144 29.486 68.2656C29.5348 68.2168 29.6009 68.1895 29.6699 68.1895H29.7199Z" fill="#FFC60B"/>
<path d="M22.6602 67.8809L24.7402 68.2408L22.6402 68.4109C22.5718 68.4138 22.5048 68.3907 22.4529 68.3461C22.4009 68.3015 22.3678 68.2389 22.3602 68.1709C22.3561 68.1359 22.359 68.1005 22.369 68.0667C22.379 68.033 22.3957 68.0016 22.4181 67.9745C22.4406 67.9473 22.4683 67.9251 22.4996 67.909C22.5309 67.8929 22.5651 67.8833 22.6002 67.8809H22.6602Z" fill="#FFC60B"/>
<path d="M26.0002 68.0293L28.0702 68.3793L25.9702 68.5493C25.936 68.552 25.9017 68.548 25.8691 68.5374C25.8365 68.5268 25.8063 68.5099 25.7803 68.4875C25.7543 68.4652 25.7329 68.438 25.7174 68.4074C25.702 68.3768 25.6927 68.3435 25.6902 68.3093C25.6872 68.2409 25.7104 68.1739 25.755 68.1219C25.7995 68.07 25.8621 68.0368 25.9302 68.0293H26.0002Z" fill="#FFC60B"/>
<path d="M0.459961 66.9102L21.6099 68.1002L0.439941 67.4402C0.378468 67.4282 0.323085 67.3952 0.283264 67.3468C0.243443 67.2985 0.22168 67.2378 0.22168 67.1752C0.22168 67.1125 0.243443 67.0519 0.283264 67.0035C0.323085 66.9552 0.378468 66.9222 0.439941 66.9102H0.459961Z" fill="#FFC60B"/>
<path d="M25.9198 10.1906L27.9198 14.6106L25.4798 10.4306C25.462 10.401 25.4503 10.3683 25.4452 10.3342C25.4402 10.3001 25.4419 10.2654 25.4502 10.232C25.4586 10.1985 25.4735 10.1671 25.494 10.1394C25.5145 10.1117 25.5403 10.0883 25.5698 10.0706C25.5994 10.0529 25.6321 10.0411 25.6662 10.0361C25.7003 10.031 25.735 10.0327 25.7684 10.041C25.8018 10.0494 25.8333 10.0643 25.861 10.0848C25.8887 10.1053 25.9121 10.1311 25.9298 10.1606L25.9198 10.1906Z" fill="#FFC60B"/>
<path d="M43.8201 45.0902L47.2201 52.3102L43.3501 45.3102C43.3156 45.2492 43.3068 45.177 43.3256 45.1095C43.3443 45.042 43.3891 44.9847 43.4501 44.9502C43.5111 44.9157 43.5833 44.9069 43.6508 44.9257C43.7183 44.9444 43.7756 44.9892 43.8101 45.0502L43.8201 45.0902Z" fill="#FFC60B"/>
<path d="M28.8403 15.8906L29.5703 17.8906L28.3803 16.1506C28.3535 16.0926 28.3482 16.0271 28.3653 15.9655C28.3823 15.904 28.4206 15.8505 28.4734 15.8145C28.5261 15.7785 28.5899 15.7624 28.6534 15.769C28.7169 15.7756 28.7761 15.8046 28.8203 15.8506C28.829 15.8628 28.8358 15.8763 28.8403 15.8906Z" fill="#FFC60B"/>
<path d="M40.5898 38.8103L41.3198 40.8103L40.1298 39.0703C40.091 39.0117 40.0766 38.9402 40.0897 38.8711C40.1027 38.802 40.1423 38.7407 40.1998 38.7003C40.2569 38.6621 40.3268 38.6479 40.3943 38.661C40.4618 38.6741 40.5212 38.7135 40.5598 38.7703C40.5734 38.7806 40.5838 38.7944 40.5898 38.8103Z" fill="#FFC60B"/>
<path d="M42.12 41.7699L42.84 43.7699L41.65 42.0299C41.6118 41.9728 41.5976 41.903 41.6107 41.8355C41.6239 41.768 41.6631 41.7085 41.72 41.6699C41.7486 41.6494 41.7811 41.6349 41.8154 41.6272C41.8498 41.6196 41.8854 41.6191 41.92 41.6256C41.9546 41.6322 41.9875 41.6457 42.0167 41.6653C42.046 41.685 42.0709 41.7103 42.09 41.7399L42.12 41.7699Z" fill="#FFC60B"/>
<path d="M30.4601 19.0308L39.8801 38.0308L30.0001 19.2708C29.9679 19.2083 29.9615 19.1357 29.982 19.0685C30.0025 19.0012 30.0485 18.9446 30.1101 18.9108C30.1715 18.8816 30.2418 18.8768 30.3067 18.8972C30.3715 18.9176 30.4263 18.9617 30.4601 19.0208V19.0308Z" fill="#FFC60B"/>
<path d="M16.1301 35.2095L17.4801 36.8295L15.7801 35.5895C15.7513 35.5696 15.7268 35.5441 15.7081 35.5145C15.6895 35.4849 15.6769 35.4518 15.6713 35.4173C15.6657 35.3827 15.6671 35.3474 15.6755 35.3134C15.6839 35.2794 15.699 35.2475 15.72 35.2195C15.762 35.1635 15.824 35.126 15.893 35.1148C15.962 35.1036 16.0327 35.1196 16.0901 35.1595L16.1301 35.2095Z" fill="#FFC60B"/>
<path d="M18.7098 37.6205L42.8198 60.9406L18.3498 38.0006C18.2994 37.9528 18.27 37.887 18.2682 37.8176C18.2663 37.7482 18.2921 37.6809 18.3398 37.6306C18.3876 37.5802 18.4534 37.5508 18.5227 37.5489C18.5921 37.547 18.6594 37.5728 18.7098 37.6205Z" fill="#FFC60B"/>
<path d="M28.88 29.6404L29.79 31.5404L28.44 29.9204C28.4153 29.8946 28.3961 29.8639 28.3837 29.8304C28.3714 29.7968 28.366 29.761 28.3681 29.7253C28.3702 29.6896 28.3796 29.6547 28.3958 29.6228C28.412 29.5909 28.4346 29.5627 28.4622 29.5399C28.4898 29.5172 28.5218 29.5003 28.5562 29.4905C28.5906 29.4806 28.6267 29.478 28.6621 29.4828C28.6976 29.4875 28.7317 29.4995 28.7623 29.518C28.7929 29.5366 28.8194 29.5612 28.84 29.5904C28.8585 29.6022 28.8725 29.6198 28.88 29.6404Z" fill="#FFC60B"/>
<path d="M30.79 32.5997L37.0901 42.4497L30.36 32.8897C30.3392 32.8626 30.3243 32.8314 30.316 32.7982C30.3078 32.765 30.3064 32.7305 30.312 32.6967C30.3176 32.663 30.3301 32.6307 30.3487 32.602C30.3673 32.5733 30.3915 32.5487 30.42 32.5297C30.4759 32.4904 30.545 32.4747 30.6123 32.486C30.6797 32.4972 30.74 32.5344 30.7801 32.5897L30.79 32.5997Z" fill="#FFC60B"/>
<path d="M49.9201 23.3003L54.5302 47.4703L49.4101 23.3803C49.4029 23.3468 49.4024 23.3122 49.4085 23.2785C49.4147 23.2448 49.4274 23.2127 49.446 23.1839C49.4645 23.1551 49.4886 23.1303 49.5168 23.1108C49.5449 23.0913 49.5767 23.0775 49.6101 23.0703C49.6436 23.0631 49.6782 23.0625 49.712 23.0687C49.7457 23.0748 49.7778 23.0875 49.8066 23.1061C49.8353 23.1247 49.8602 23.1487 49.8797 23.1769C49.8992 23.2051 49.9129 23.2368 49.9201 23.2703V23.3003Z" fill="#FFC60B"/>
<path d="M37.7398 19.0504L38.2998 21.0504L37.2998 19.2204C37.2653 19.1594 37.2565 19.0872 37.2753 19.0196C37.294 18.9521 37.3388 18.8949 37.3998 18.8604C37.4608 18.8259 37.533 18.8171 37.6005 18.8358C37.668 18.8546 37.7254 18.8994 37.7598 18.9604C37.7635 18.9917 37.7564 19.0235 37.7398 19.0504Z" fill="#FFC60B"/>
<path d="M39.0999 22.3103L49.6599 49.5603L38.6599 22.5003C38.6474 22.4682 38.6414 22.4339 38.6422 22.3994C38.6429 22.3649 38.6506 22.3309 38.6645 22.2993C38.6784 22.2677 38.6984 22.2392 38.7233 22.2153C38.7483 22.1915 38.7777 22.1728 38.8099 22.1603C38.8421 22.1479 38.8764 22.1419 38.9109 22.1426C38.9454 22.1434 38.9794 22.151 39.0109 22.1649C39.0425 22.1789 39.071 22.1989 39.0949 22.2238C39.1187 22.2488 39.1374 22.2782 39.1499 22.3103H39.0999Z" fill="#FFC60B"/>
<path d="M18.5899 59.6692L20.4499 60.6692L18.4499 60.1692C18.3814 60.1526 18.322 60.1098 18.2847 60.05C18.2473 59.9902 18.2348 59.9181 18.2499 59.8492C18.258 59.8155 18.2729 59.7838 18.2935 59.7559C18.3141 59.728 18.3401 59.7045 18.3699 59.6868C18.3997 59.6691 18.4328 59.6576 18.4671 59.6528C18.5015 59.6481 18.5364 59.6503 18.5699 59.6592L18.5899 59.6692Z" fill="#FFC60B"/>
<path d="M21.88 60.9302L32.78 65.1702L21.7 61.4302C21.6344 61.4054 21.581 61.356 21.5511 61.2926C21.5212 61.2291 21.5172 61.1565 21.5399 61.0902C21.5626 61.0253 21.6101 60.972 21.672 60.9421C21.7338 60.9121 21.805 60.9078 21.8699 60.9302H21.88Z" fill="#FFC60B"/>
<path d="M13.8702 36.5008C13.8702 36.6891 13.8142 36.8732 13.7094 37.0296C13.6045 37.1861 13.4556 37.3078 13.2814 37.3794C13.1072 37.451 12.9157 37.4692 12.7312 37.4318C12.5466 37.3943 12.3773 37.3028 12.2449 37.169C12.1124 37.0351 12.0228 36.8649 11.9873 36.68C11.9517 36.495 11.972 36.3037 12.0454 36.1303C12.1189 35.9569 12.2422 35.8092 12.3997 35.706C12.5573 35.6029 12.7419 35.5489 12.9302 35.5508C13.1804 35.5535 13.4195 35.6547 13.5955 35.8326C13.7715 36.0104 13.8702 36.2506 13.8702 36.5008Z" fill="#FFC60B"/>
<path d="M46.3498 23.381C46.3398 23.5642 46.277 23.7407 46.169 23.889C46.0609 24.0373 45.9123 24.1512 45.7409 24.2168C45.5695 24.2824 45.3828 24.297 45.2033 24.2587C45.0238 24.2205 44.8592 24.1311 44.7294 24.0013C44.5996 23.8716 44.5103 23.707 44.472 23.5275C44.4338 23.348 44.4483 23.1613 44.514 22.9899C44.5796 22.8185 44.6935 22.6698 44.8418 22.5617C44.9901 22.4537 45.1665 22.3909 45.3498 22.381C45.4834 22.3721 45.6174 22.3919 45.7427 22.4391C45.868 22.4862 45.9818 22.5595 46.0765 22.6542C46.1712 22.7489 46.2446 22.8627 46.2917 22.9881C46.3389 23.1134 46.3586 23.2473 46.3498 23.381Z" fill="#FFC60B"/>
<path d="M12.7301 31.9306C12.7321 32.0561 12.6966 32.1792 12.6281 32.2843C12.5597 32.3895 12.4614 32.4718 12.3459 32.5207C12.2304 32.5696 12.1029 32.5829 11.9798 32.5589C11.8566 32.5349 11.7435 32.4747 11.6547 32.386C11.566 32.2973 11.5058 32.1842 11.4818 32.061C11.4578 31.9379 11.4712 31.8104 11.5201 31.6949C11.569 31.5794 11.6513 31.4811 11.7564 31.4126C11.8616 31.3442 11.9847 31.3086 12.1101 31.3106C12.2746 31.3106 12.4323 31.376 12.5485 31.4922C12.6648 31.6085 12.7301 31.7662 12.7301 31.9306Z" fill="#FFC60B"/>
<path d="M43.4601 20.1103C43.4621 20.2358 43.4266 20.3589 43.3581 20.464C43.2897 20.5692 43.1914 20.6514 43.0758 20.7004C42.9603 20.7493 42.8328 20.7626 42.7097 20.7386C42.5866 20.7146 42.4734 20.6544 42.3847 20.5657C42.296 20.477 42.2358 20.3638 42.2118 20.2407C42.1878 20.1176 42.2011 19.9901 42.25 19.8746C42.299 19.7591 42.3812 19.6608 42.4864 19.5923C42.5915 19.5239 42.7147 19.4883 42.8401 19.4903C43.0038 19.4929 43.16 19.559 43.2757 19.6748C43.3914 19.7905 43.4575 19.9467 43.4601 20.1103Z" fill="#FFC60B"/>
<path d="M8.64988 51.6199C8.65911 51.7416 8.63226 51.8633 8.57267 51.9697C8.51309 52.0762 8.42337 52.1627 8.31486 52.2184C8.20634 52.2741 8.08386 52.2966 7.96263 52.283C7.84139 52.2694 7.72683 52.2204 7.63334 52.142C7.53985 52.0636 7.47154 51.9594 7.43699 51.8424C7.40244 51.7254 7.4032 51.6009 7.43913 51.4843C7.47505 51.3677 7.54455 51.2643 7.63896 51.187C7.73336 51.1098 7.84845 51.0621 7.96983 51.05C8.05209 51.0417 8.1352 51.05 8.21421 51.0743C8.29322 51.0987 8.36655 51.1386 8.42991 51.1917C8.49327 51.2448 8.5454 51.3101 8.58317 51.3836C8.62094 51.4572 8.64363 51.5375 8.64988 51.6199Z" fill="#FFC60B"/>
<path d="M27.1299 35.3809C27.1106 35.533 27.0364 35.6729 26.9214 35.7743C26.8063 35.8757 26.6582 35.9316 26.5049 35.9316C26.3515 35.9316 26.2034 35.8757 26.0883 35.7743C25.9733 35.6729 25.8992 35.533 25.8799 35.3809C25.8992 35.2287 25.9733 35.0888 26.0883 34.9874C26.2034 34.886 26.3515 34.8301 26.5049 34.8301C26.6582 34.8301 26.8063 34.886 26.9214 34.9874C27.0364 35.0888 27.1106 35.2287 27.1299 35.3809Z" fill="#FFC60B"/>
<path d="M28.7103 38.8607L35.1802 46.3107L28.3303 39.2207C28.3058 39.1965 28.2863 39.1677 28.273 39.1359C28.2597 39.1042 28.2529 39.0701 28.2529 39.0357C28.2529 39.0013 28.2597 38.9672 28.273 38.9354C28.2863 38.9037 28.3058 38.8749 28.3303 38.8507C28.3803 38.8036 28.4465 38.7773 28.5153 38.7773C28.584 38.7773 28.6502 38.8036 28.7003 38.8507L28.7103 38.8607Z" fill="#FFC60B"/>
<path d="M98.9199 58.9198L100.54 60.2998L100.33 62.4098L102.13 61.2898L104.07 62.1498L103.57 60.0898L104.98 58.4998L102.87 58.3398L101.8 56.5098L101 58.4698L98.9199 58.9198Z" fill="#FFC60B"/>
<path d="M101.5 60.7298L95.7202 61.9698L101.1 59.5098L101.5 60.7298Z" fill="#FFC60B"/>
<path d="M88 25.6996L89.81 25.8296L90.73 27.3896L91.41 25.7096L93.17 25.3196L91.79 24.1496L91.96 22.3496L90.43 23.3096L88.77 22.5896L89.2 24.3396L88 25.6996Z" fill="#FFC60B"/>
<path d="M90.6898 25.64L87.3398 29.41L89.7898 25L90.6898 25.64Z" fill="#FFC60B"/>
<path d="M116.5 41.6297L112.14 43.7397L116.24 41.1697C116.269 41.1513 116.301 41.1388 116.335 41.1329C116.369 41.1269 116.403 41.1277 116.437 41.1351C116.47 41.1425 116.502 41.1565 116.53 41.1762C116.558 41.1958 116.582 41.2208 116.6 41.2497C116.618 41.2786 116.631 41.3108 116.637 41.3445C116.643 41.3782 116.642 41.4128 116.635 41.4462C116.627 41.4797 116.613 41.5113 116.594 41.5393C116.574 41.5674 116.549 41.5913 116.52 41.6097L116.5 41.6297Z" fill="#FFC60B"/>
<path d="M82.1698 60.6107L75.0698 64.2407L81.9198 60.1507C81.9493 60.1329 81.9821 60.1212 82.0162 60.1161C82.0503 60.1111 82.085 60.1128 82.1185 60.1211C82.1519 60.1295 82.1833 60.1443 82.211 60.1648C82.2387 60.1854 82.2621 60.2111 82.2798 60.2407C82.2976 60.2702 82.3093 60.303 82.3143 60.3371C82.3194 60.3711 82.3177 60.4059 82.3094 60.4393C82.301 60.4727 82.2861 60.5042 82.2656 60.5319C82.2451 60.5596 82.2194 60.5829 82.1898 60.6007L82.1698 60.6107Z" fill="#FFC60B"/>
<path d="M110.89 44.7309L108.89 45.5109L110.6 44.2709C110.628 44.2498 110.66 44.2347 110.694 44.2263C110.728 44.2179 110.763 44.2165 110.798 44.2221C110.832 44.2277 110.865 44.2402 110.895 44.2589C110.925 44.2776 110.95 44.3021 110.97 44.3309C111.01 44.3883 111.026 44.4589 111.015 44.5279C111.004 44.597 110.966 44.659 110.91 44.7009L110.89 44.7309Z" fill="#FFC60B"/>
<path d="M88.3501 57.1896L86.3501 57.9796L88.0501 56.7296C88.0774 56.7006 88.1107 56.678 88.1478 56.6634C88.1848 56.6488 88.2247 56.6425 88.2644 56.6451C88.3041 56.6477 88.3428 56.659 88.3776 56.6783C88.4125 56.6976 88.4426 56.7243 88.4659 56.7566C88.4892 56.7889 88.505 56.826 88.5123 56.8651C88.5196 56.9043 88.5182 56.9446 88.5081 56.9831C88.4979 57.0216 88.4794 57.0574 88.4539 57.0879C88.4283 57.1184 88.3963 57.1429 88.3601 57.1596L88.3501 57.1896Z" fill="#FFC60B"/>
<path d="M85.43 58.801L83.48 59.5909L85.18 58.3509C85.208 58.3299 85.2399 58.3148 85.2739 58.3064C85.3079 58.298 85.3432 58.2966 85.3777 58.3022C85.4123 58.3078 85.4454 58.3203 85.475 58.339C85.5046 58.3577 85.5301 58.3822 85.55 58.4109C85.5708 58.4381 85.5858 58.4693 85.5941 58.5025C85.6023 58.5357 85.6036 58.5702 85.598 58.604C85.5924 58.6377 85.5799 58.6699 85.5613 58.6987C85.5428 58.7274 85.5185 58.752 85.49 58.771C85.4746 58.7883 85.4531 58.7991 85.43 58.801Z" fill="#FFC60B"/>
<path d="M107.8 46.4399L89.1401 56.4399L107.55 45.9599C107.611 45.9269 107.683 45.919 107.75 45.9376C107.817 45.9562 107.875 46 107.91 46.0599C107.943 46.1197 107.95 46.1899 107.932 46.2553C107.913 46.3208 107.869 46.3763 107.81 46.4099L107.8 46.4399Z" fill="#FFC60B"/>
<path d="M89.8399 10.9403L87.3999 15.1203L89.3999 10.7003C89.4139 10.6684 89.4342 10.6397 89.4595 10.6158C89.4849 10.5919 89.5147 10.5733 89.5474 10.5612C89.58 10.549 89.6147 10.5436 89.6495 10.5452C89.6843 10.5467 89.7185 10.5553 89.7499 10.5703C89.8117 10.5987 89.86 10.6502 89.8843 10.7137C89.9086 10.7773 89.907 10.8479 89.8799 10.9103L89.8399 10.9403Z" fill="#FFC60B"/>
<path d="M71.9398 45.8393L68.0698 52.8393L71.4798 45.6193C71.4937 45.5886 71.5137 45.5611 71.5385 45.5384C71.5633 45.5156 71.5925 45.4981 71.6243 45.4869C71.656 45.4757 71.6897 45.471 71.7233 45.4732C71.7569 45.4753 71.7897 45.4842 71.8198 45.4993C71.8517 45.5133 71.8804 45.5336 71.9043 45.5589C71.9282 45.5843 71.9468 45.6142 71.9589 45.6468C71.971 45.6794 71.9765 45.7142 71.9749 45.749C71.9734 45.7838 71.9648 45.8179 71.9498 45.8493L71.9398 45.8393Z" fill="#FFC60B"/>
<path d="M86.91 16.6405L85.73 18.3805L86.45 16.3805C86.4612 16.3472 86.4789 16.3165 86.5023 16.2903C86.5256 16.2641 86.554 16.2428 86.5858 16.2279C86.6176 16.2129 86.652 16.2046 86.6871 16.2033C86.7222 16.202 86.7572 16.2079 86.79 16.2205C86.8538 16.2472 86.9049 16.2974 86.9328 16.3606C86.9607 16.4239 86.9633 16.4954 86.94 16.5605C86.94 16.5605 86.92 16.6205 86.91 16.6405Z" fill="#FFC60B"/>
<path d="M75.16 39.5604L74 41.3004L74.72 39.3004C74.7311 39.2671 74.7489 39.2364 74.7723 39.2102C74.7956 39.184 74.8241 39.1627 74.8558 39.1478C74.8876 39.1328 74.9221 39.1245 74.9572 39.1232C74.9922 39.122 75.0272 39.1278 75.06 39.1404C75.1238 39.1671 75.1749 39.2172 75.2028 39.2805C75.2307 39.3438 75.2333 39.4153 75.21 39.4804C75.21 39.4804 75.17 39.5404 75.16 39.5604Z" fill="#FFC60B"/>
<path d="M73.6402 42.5298L72.4502 44.2699L73.1802 42.2699C73.2029 42.205 73.2504 42.1517 73.3122 42.1217C73.374 42.0918 73.4452 42.0875 73.5102 42.1098C73.5435 42.121 73.5742 42.1388 73.6004 42.1621C73.6266 42.1855 73.6479 42.2139 73.6628 42.2457C73.6778 42.2774 73.6861 42.3119 73.6874 42.347C73.6886 42.3821 73.6828 42.4171 73.6702 42.4498L73.6402 42.5298Z" fill="#FFC60B"/>
<path d="M85.3002 19.7805L75.4102 38.5105L84.8402 19.5105C84.8551 19.4795 84.8761 19.4517 84.9018 19.4289C84.9275 19.406 84.9576 19.3885 84.9901 19.3773C85.0227 19.3662 85.0571 19.3616 85.0915 19.3638C85.1258 19.3661 85.1594 19.3752 85.1902 19.3905C85.251 19.4226 85.2973 19.4767 85.3196 19.5417C85.3419 19.6067 85.3385 19.6778 85.3102 19.7405L85.3002 19.7805Z" fill="#FFC60B"/>
<path d="M57.9402 0.270844L57.8002 5.11084L57.4202 0.280824C57.4172 0.212421 57.4404 0.14546 57.4849 0.0934763C57.5295 0.0414924 57.5921 0.00836868 57.6602 0.000824943C57.6943 -0.00190478 57.7287 0.00215693 57.7613 0.0127573C57.7939 0.0233577 57.8241 0.0402879 57.8501 0.0625925C57.8761 0.0848972 57.8975 0.112144 57.913 0.142732C57.9284 0.17332 57.9377 0.206635 57.9402 0.240815V0.270844Z" fill="#FFC60B"/>
<path d="M58.9001 39.4798L58.8401 47.4798L58.3801 39.4798C58.3787 39.4457 58.3842 39.4116 58.396 39.3795C58.4079 39.3475 58.4259 39.3181 58.4491 39.293C58.4723 39.2679 58.5003 39.2477 58.5313 39.2334C58.5624 39.2191 58.5959 39.2111 58.6301 39.2098C58.6637 39.2071 58.6976 39.2112 58.7296 39.2219C58.7616 39.2326 58.7911 39.2497 58.8164 39.2721C58.8416 39.2946 58.862 39.3219 58.8764 39.3524C58.8908 39.3829 58.8989 39.4161 58.9001 39.4498V39.4798Z" fill="#FFC60B"/>
<path d="M58.1001 6.68083L57.8902 8.77086L57.5802 6.69084C57.5745 6.65665 57.5757 6.62166 57.5837 6.58794C57.5918 6.55422 57.6065 6.52248 57.627 6.49452C57.6475 6.46657 57.6734 6.44299 57.7031 6.42519C57.7329 6.40739 57.7658 6.39572 57.8002 6.39086C57.8688 6.38207 57.9383 6.39999 57.9941 6.44094C58.05 6.48188 58.0879 6.54272 58.1001 6.61086V6.68083Z" fill="#FFC60B"/>
<path d="M58.73 32.379L58.5201 34.4791L58.2101 32.399C58.2044 32.3648 58.2056 32.3299 58.2136 32.2962C58.2217 32.2624 58.2364 32.2307 58.2569 32.2027C58.2774 32.1748 58.3033 32.1512 58.333 32.1334C58.3627 32.1156 58.3957 32.1039 58.43 32.099C58.4644 32.0919 58.4999 32.092 58.5342 32.0994C58.5685 32.1068 58.6008 32.1214 58.6291 32.1421C58.6574 32.1629 58.681 32.1894 58.6984 32.2198C58.7158 32.2503 58.7266 32.2841 58.73 32.3191V32.379Z" fill="#FFC60B"/>
<path d="M58.8102 35.7599L58.6002 37.8499L58.2902 35.7699C58.2849 35.7357 58.2865 35.7009 58.2947 35.6673C58.3029 35.6337 58.3176 35.6021 58.3381 35.5743C58.3585 35.5464 58.3842 35.5229 58.4138 35.505C58.4433 35.487 58.476 35.4751 58.5102 35.4699C58.5443 35.4646 58.5792 35.4661 58.6127 35.4743C58.6463 35.4826 58.6779 35.4973 58.7057 35.5177C58.7336 35.5382 58.7572 35.5639 58.7751 35.5934C58.793 35.623 58.8049 35.6557 58.8102 35.6899C58.8155 35.7008 58.8182 35.7127 58.8182 35.7249C58.8182 35.737 58.8155 35.749 58.8102 35.7599Z" fill="#FFC60B"/>
<path d="M58.1899 10.1994L58.4399 31.3794L57.6599 10.2194C57.6585 10.1844 57.6642 10.1495 57.6767 10.1168C57.6892 10.0841 57.7082 10.0543 57.7324 10.0291C57.7567 10.0039 57.7858 9.9838 57.818 9.97011C57.8502 9.95642 57.8849 9.94939 57.9199 9.94942C57.954 9.94808 57.9881 9.95347 58.0202 9.96532C58.0522 9.97716 58.0816 9.9952 58.1067 10.0184C58.1318 10.0416 58.1521 10.0696 58.1663 10.1006C58.1806 10.1317 58.1886 10.1653 58.1899 10.1994Z" fill="#FFC60B"/>
<path d="M99.5201 36.1005L97.8101 37.3805L99.16 35.7605C99.1824 35.7342 99.2097 35.7126 99.2404 35.6969C99.271 35.6811 99.3045 35.6716 99.3389 35.6688C99.3732 35.666 99.4078 35.6701 99.4406 35.6806C99.4734 35.6912 99.5038 35.7081 99.5301 35.7305C99.5564 35.7528 99.5779 35.7801 99.5936 35.8107C99.6093 35.8414 99.6189 35.8749 99.6217 35.9092C99.6245 35.9436 99.6204 35.9782 99.6099 36.011C99.5993 36.0438 99.5824 36.0742 99.5601 36.1005H99.5201Z" fill="#FFC60B"/>
<path d="M96.94 38.5098L72.48 61.4498L96.58 38.1398C96.6301 38.0927 96.6963 38.0664 96.765 38.0664C96.8338 38.0664 96.8999 38.0927 96.95 38.1398C96.9745 38.164 96.9939 38.1928 97.0072 38.2245C97.0205 38.2563 97.0273 38.2903 97.0273 38.3248C97.0273 38.3592 97.0205 38.3933 97.0072 38.425C96.9939 38.4568 96.9745 38.4856 96.95 38.5098H96.94Z" fill="#FFC60B"/>
<path d="M86.86 30.4405L85.5 32.0506L86.42 30.1505C86.4351 30.1197 86.4561 30.0921 86.4819 30.0694C86.5076 30.0466 86.5376 30.0292 86.5701 30.0181C86.6026 30.0069 86.637 30.0023 86.6713 30.0044C86.7056 30.0066 86.7392 30.0154 86.77 30.0305C86.8009 30.0456 86.8285 30.0667 86.8512 30.0924C86.8739 30.1182 86.8913 30.1482 86.9025 30.1807C86.9136 30.2132 86.9183 30.2476 86.9161 30.2819C86.914 30.3161 86.9051 30.3497 86.89 30.3805L86.86 30.4405Z" fill="#FFC60B"/>
<path d="M84.9402 33.3809L78.2002 42.9308L84.5002 33.0809C84.5388 33.024 84.5983 32.9847 84.6657 32.9716C84.7332 32.9585 84.8031 32.9726 84.8602 33.0109C84.8902 33.0282 84.9164 33.0515 84.9369 33.0795C84.9574 33.1074 84.9719 33.1394 84.9794 33.1732C84.987 33.2071 84.9873 33.2422 84.9806 33.2762C84.9738 33.3102 84.9601 33.3424 84.9402 33.3708V33.3809Z" fill="#FFC60B"/>
<path d="M68.3198 17.9295L60.7598 47.9795L67.8198 17.8095C67.8269 17.776 67.8405 17.7442 67.86 17.716C67.8794 17.6877 67.9044 17.6636 67.9332 17.645C67.962 17.6264 67.9941 17.6137 68.0279 17.6077C68.0616 17.6016 68.0963 17.6022 68.1298 17.6095C68.1983 17.6262 68.2575 17.669 68.2949 17.7288C68.3323 17.7886 68.3448 17.8606 68.3298 17.9295H68.3198Z" fill="#FFC60B"/>
<path d="M77.1602 19.3808L76.1602 21.2208L76.7202 19.2208C76.7388 19.1545 76.783 19.0984 76.843 19.0646C76.9029 19.0309 76.9739 19.0223 77.0402 19.0408C77.0739 19.0489 77.1057 19.0638 77.1335 19.0844C77.1614 19.105 77.1849 19.1309 77.2026 19.1607C77.2203 19.1906 77.2319 19.2236 77.2366 19.258C77.2414 19.2923 77.2391 19.3273 77.2302 19.3608L77.1602 19.3808Z" fill="#FFC60B"/>
<path d="M75.8101 22.6692L64.8101 49.7292L75.3701 22.4792C75.3822 22.4468 75.4007 22.4171 75.4245 22.3919C75.4483 22.3668 75.4769 22.3467 75.5085 22.3327C75.5402 22.3187 75.5743 22.3112 75.6089 22.3106C75.6436 22.31 75.6779 22.3163 75.7101 22.3292C75.7425 22.3413 75.7721 22.3598 75.7972 22.3836C75.8224 22.4074 75.8426 22.436 75.8566 22.4676C75.8705 22.4993 75.878 22.5334 75.8786 22.568C75.8792 22.6026 75.8729 22.637 75.86 22.6692H75.8101Z" fill="#FFC60B"/>
<path d="M94.6598 62.5592L92.5898 62.9292L94.5098 62.0592C94.5735 62.03 94.6461 62.0273 94.7117 62.0517C94.7774 62.0761 94.8306 62.1255 94.8598 62.1892C94.889 62.2528 94.8917 62.3255 94.8673 62.3911C94.8429 62.4567 94.7934 62.51 94.7298 62.5392L94.6598 62.5592Z" fill="#FFC60B"/>
<path d="M91.2902 63.6006L79.9902 66.6006L91.1403 63.0906C91.2066 63.0694 91.2786 63.0754 91.3405 63.1073C91.4023 63.1392 91.449 63.1943 91.4702 63.2606C91.4914 63.3269 91.4855 63.3989 91.4536 63.4608C91.4217 63.5227 91.3665 63.5694 91.3002 63.5906L91.2902 63.6006Z" fill="#FFC60B"/>
<path d="M101.42 37.0103C101.418 37.1964 101.471 37.3789 101.572 37.5352C101.674 37.6914 101.818 37.8145 101.989 37.8892C102.159 37.9638 102.348 37.9868 102.531 37.9551C102.715 37.9235 102.885 37.8386 103.021 37.7111C103.156 37.5837 103.251 37.4191 103.294 37.238C103.337 37.0569 103.326 36.8672 103.262 36.6924C103.198 36.5176 103.084 36.3655 102.934 36.2549C102.785 36.1443 102.606 36.0801 102.42 36.0703C102.292 36.0621 102.163 36.0803 102.042 36.1238C101.921 36.1674 101.81 36.2353 101.716 36.3235C101.622 36.4116 101.548 36.518 101.497 36.6361C101.446 36.7543 101.42 36.8816 101.42 37.0103Z" fill="#FFC60B"/>
<path d="M67.9998 15.1191C67.9878 15.319 68.0361 15.5179 68.1385 15.69C68.2408 15.8622 68.3924 15.9996 68.5738 16.0846C68.7551 16.1696 68.9578 16.1981 69.1555 16.1666C69.3533 16.135 69.537 16.0449 69.683 15.9077C69.8289 15.7705 69.9303 15.5927 69.974 15.3973C70.0177 15.2018 70.0017 14.9978 69.9281 14.8116C69.8545 14.6253 69.7266 14.4654 69.5611 14.3527C69.3956 14.2399 69.2001 14.1794 68.9998 14.1791C68.8718 14.1723 68.7437 14.1916 68.6233 14.2356C68.5028 14.2797 68.3926 14.3477 68.2992 14.4356C68.2057 14.5234 68.131 14.6292 68.0796 14.7467C68.0281 14.8642 68.001 14.9908 67.9998 15.1191Z" fill="#FFC60B"/>
<path d="M102.56 32.4403C102.558 32.5653 102.593 32.6881 102.661 32.793C102.729 32.8979 102.827 32.9802 102.942 33.0294C103.057 33.0787 103.184 33.0926 103.307 33.0694C103.43 33.0462 103.543 32.987 103.632 32.8993C103.721 32.8116 103.782 32.6994 103.807 32.5769C103.832 32.4545 103.82 32.3273 103.773 32.2116C103.726 32.0959 103.645 31.9969 103.541 31.9272C103.437 31.8575 103.315 31.8203 103.19 31.8203C103.025 31.8203 102.866 31.8853 102.748 32.0013C102.63 32.1173 102.563 32.275 102.56 32.4403Z" fill="#FFC60B"/>
<path d="M69.27 11.4403C69.27 11.5629 69.3064 11.6828 69.3745 11.7848C69.4426 11.8867 69.5394 11.9662 69.6527 12.0131C69.766 12.06 69.8907 12.0723 70.011 12.0484C70.1313 12.0245 70.2417 11.9654 70.3284 11.8787C70.4151 11.792 70.4742 11.6815 70.4981 11.5613C70.522 11.441 70.5098 11.3163 70.4628 11.203C70.4159 11.0897 70.3364 10.9929 70.2344 10.9248C70.1325 10.8567 70.0126 10.8203 69.89 10.8203C69.7264 10.8229 69.5702 10.889 69.4545 11.0048C69.3387 11.1205 69.2726 11.2767 69.27 11.4403Z" fill="#FFC60B"/>
<path d="M105 54.6796C104.977 54.8436 105.018 55.0103 105.115 55.1446C105.212 55.2788 105.357 55.3702 105.52 55.3996C105.601 55.4124 105.683 55.4091 105.763 55.3899C105.842 55.3706 105.917 55.3358 105.983 55.2875C106.049 55.2391 106.105 55.1782 106.147 55.1082C106.19 55.0382 106.218 54.9606 106.23 54.8797C106.244 54.7994 106.242 54.7171 106.224 54.6377C106.206 54.5582 106.172 54.4832 106.125 54.417C106.077 54.3508 106.017 54.2949 105.947 54.2524C105.878 54.2099 105.801 54.1818 105.72 54.1697C105.639 54.1553 105.556 54.1572 105.476 54.1752C105.396 54.1931 105.32 54.2268 105.253 54.2742C105.186 54.3217 105.13 54.3819 105.086 54.4515C105.043 54.5211 105.013 54.5987 105 54.6796Z" fill="#FFC60B"/>
<path d="M88.1602 35.9091C88.1583 36.0341 88.1935 36.1568 88.2616 36.2617C88.3296 36.3667 88.4272 36.4489 88.5421 36.4982C88.6571 36.5474 88.7841 36.5613 88.9069 36.5381C89.0298 36.515 89.143 36.4558 89.2321 36.3681C89.3212 36.2804 89.3822 36.1682 89.4073 36.0457C89.4324 35.9232 89.4206 35.796 89.3732 35.6803C89.3258 35.5646 89.2451 35.4656 89.1413 35.396C89.0375 35.3263 88.9153 35.2891 88.7902 35.2891C88.6249 35.289 88.4661 35.354 88.3483 35.47C88.2304 35.586 88.1629 35.7437 88.1602 35.9091Z" fill="#FFC60B"/>
<path d="M87.0001 39.7296L80.1401 46.8296L86.6101 39.3796C86.6324 39.3533 86.6598 39.3317 86.6904 39.316C86.7211 39.3003 86.7545 39.2908 86.7889 39.288C86.8232 39.2852 86.8578 39.2892 86.8906 39.2998C86.9234 39.3104 86.9538 39.3273 86.9801 39.3496C87.0064 39.3719 87.028 39.3992 87.0437 39.4299C87.0594 39.4606 87.069 39.494 87.0718 39.5284C87.0746 39.5627 87.0705 39.5973 87.0599 39.6301C87.0494 39.6629 87.0325 39.6933 87.0101 39.7196L87.0001 39.7296Z" fill="#FFC60B"/>
<path d="M89.5801 113.139L91.3901 113.009L92.3101 111.449L92.9901 113.129L94.7501 113.519L93.3701 114.689L93.5401 116.489L92.0101 115.529L90.3501 116.249L90.7801 114.499L89.5801 113.139Z" fill="#FFC60B"/>
<path d="M91.3699 113.84L88.9199 109.43L92.2699 113.2L91.3699 113.84Z" fill="#FFC60B"/>
<path d="M116.69 97.2697L112.6 94.6797L116.95 96.8197C117.012 96.8502 117.06 96.9042 117.083 96.9698C117.105 97.0355 117.101 97.1074 117.07 97.1697C117.04 97.232 116.986 97.2797 116.92 97.3022C116.854 97.3247 116.782 97.3202 116.72 97.2897L116.69 97.2697Z" fill="#FFC60B"/>
<path d="M82.4799 78.1007L75.6499 73.9707L82.7299 77.6407C82.7914 77.6747 82.8379 77.7306 82.8602 77.7973C82.8824 77.864 82.8787 77.9366 82.8499 78.0007C82.816 78.0623 82.7594 78.1082 82.6922 78.1288C82.625 78.1493 82.5524 78.1429 82.4899 78.1107L82.4799 78.1007Z" fill="#FFC60B"/>
<path d="M111.11 94.1406L109.41 92.8906L111.41 93.6906C111.443 93.7028 111.472 93.7213 111.497 93.7451C111.523 93.7688 111.543 93.7974 111.557 93.8291C111.571 93.8608 111.578 93.8949 111.579 93.9295C111.579 93.9641 111.573 93.9985 111.56 94.0306C111.532 94.095 111.479 94.1457 111.414 94.1718C111.348 94.198 111.275 94.1975 111.21 94.1706L111.11 94.1406Z" fill="#FFC60B"/>
<path d="M88.64 81.5508L86.9399 80.3008L88.89 81.1007C88.9224 81.1129 88.952 81.1315 88.9772 81.1552C89.0023 81.179 89.0225 81.2076 89.0364 81.2392C89.0504 81.2709 89.0579 81.305 89.0585 81.3396C89.0591 81.3742 89.0528 81.4086 89.0399 81.4408C89.0114 81.5051 88.9588 81.5558 88.8934 81.5819C88.828 81.6081 88.755 81.6077 88.6899 81.5808C88.6704 81.5766 88.6528 81.566 88.64 81.5508Z" fill="#FFC60B"/>
<path d="M85.7302 79.9199L84.0303 78.6699L86.0303 79.4699C86.0658 79.4792 86.099 79.496 86.1276 79.5191C86.1562 79.5422 86.1796 79.5712 86.1962 79.604C86.2128 79.6368 86.2223 79.6727 86.224 79.7095C86.2257 79.7462 86.2196 79.7829 86.2061 79.8171C86.1925 79.8513 86.1718 79.8822 86.1454 79.9079C86.1191 79.9335 86.0876 79.9532 86.053 79.9658C86.0185 79.9783 85.9816 79.9834 85.9449 79.9807C85.9083 79.9779 85.8726 79.9675 85.8403 79.9499C85.8403 79.9499 85.7502 79.9299 85.7302 79.9199Z" fill="#FFC60B"/>
<path d="M108 92.3808L89.6499 81.8008L108.25 91.9208C108.311 91.9527 108.357 92.0075 108.377 92.0731C108.398 92.1387 108.392 92.2098 108.36 92.2708C108.326 92.3324 108.269 92.3783 108.202 92.3989C108.135 92.4194 108.062 92.4129 108 92.3808Z" fill="#FFC60B"/>
<path d="M91 128.141L89 123.721L91.44 127.901C91.4576 127.931 91.4691 127.964 91.4736 127.999C91.4781 128.033 91.4756 128.068 91.4663 128.102C91.457 128.135 91.4409 128.167 91.4193 128.194C91.3976 128.221 91.3706 128.244 91.34 128.261C91.2799 128.295 91.209 128.304 91.1421 128.287C91.0751 128.271 91.0171 128.229 90.98 128.171L91 128.141Z" fill="#FFC60B"/>
<path d="M73.0599 93.2395L69.6499 86.0195L73.5199 93.0195C73.5375 93.0496 73.549 93.0829 73.5535 93.1174C73.558 93.152 73.5555 93.1871 73.5461 93.2207C73.5368 93.2543 73.5208 93.2856 73.4991 93.3129C73.4775 93.3402 73.4505 93.3629 73.4199 93.3795C73.3573 93.4117 73.2848 93.4181 73.2175 93.3976C73.1503 93.377 73.0938 93.3311 73.0599 93.2695V93.2395Z" fill="#FFC60B"/>
<path d="M88.0002 122.439L87.2803 120.439L88.4603 122.179C88.4808 122.208 88.4953 122.241 88.5029 122.275C88.5105 122.309 88.5111 122.345 88.5045 122.379C88.498 122.414 88.4845 122.447 88.4648 122.476C88.4452 122.505 88.4198 122.53 88.3903 122.549C88.3332 122.588 88.2633 122.602 88.1958 122.589C88.1283 122.576 88.0688 122.536 88.0303 122.479L88.0002 122.439Z" fill="#FFC60B"/>
<path d="M76.2801 99.5195L75.5601 97.5195L76.7401 99.2595C76.7606 99.2881 76.7751 99.3206 76.7827 99.355C76.7903 99.3894 76.7909 99.4249 76.7844 99.4595C76.7778 99.4941 76.7643 99.5271 76.7446 99.5563C76.725 99.5855 76.6996 99.6104 76.67 99.6295C76.613 99.6678 76.5431 99.6819 76.4756 99.6688C76.4082 99.6557 76.3486 99.6164 76.3101 99.5595L76.2801 99.5195Z" fill="#FFC60B"/>
<path d="M74.7601 96.5508L74.04 94.5508L75.22 96.3008C75.2421 96.3289 75.2582 96.3612 75.2672 96.3958C75.2761 96.4304 75.2779 96.4664 75.2723 96.5017C75.2668 96.537 75.254 96.5708 75.2349 96.6009C75.2157 96.631 75.1905 96.6569 75.1609 96.6769C75.1313 96.6969 75.0979 96.7105 75.0627 96.717C75.0276 96.7235 74.9915 96.7227 74.9567 96.7146C74.9219 96.7065 74.8892 96.6913 74.8605 96.67C74.8319 96.6487 74.8078 96.6218 74.79 96.5908C74.7765 96.5806 74.7661 96.5667 74.7601 96.5508Z" fill="#FFC60B"/>
<path d="M86.42 119.301L77 100.381L86.89 119.111C86.9071 119.141 86.9178 119.174 86.9215 119.208C86.9252 119.242 86.9218 119.277 86.9114 119.31C86.9011 119.343 86.8841 119.373 86.8615 119.399C86.8389 119.425 86.8112 119.446 86.78 119.461C86.719 119.493 86.6479 119.499 86.5823 119.478C86.5167 119.458 86.4619 119.412 86.43 119.351L86.42 119.301Z" fill="#FFC60B"/>
<path d="M100.74 103.12L99.3901 101.5L101.1 102.74C101.147 102.79 101.173 102.856 101.173 102.925C101.173 102.994 101.147 103.06 101.1 103.11C101.052 103.156 100.987 103.182 100.92 103.182C100.853 103.182 100.789 103.156 100.74 103.11C100.74 103.113 100.74 103.117 100.74 103.12Z" fill="#FFC60B"/>
<path d="M98.16 100.711L74.0601 77.3809L98.5201 100.381C98.5446 100.405 98.564 100.434 98.5773 100.466C98.5905 100.497 98.5974 100.531 98.5974 100.566C98.5974 100.6 98.5905 100.634 98.5773 100.666C98.564 100.698 98.5446 100.727 98.5201 100.751C98.47 100.798 98.4038 100.824 98.3351 100.824C98.2663 100.824 98.2002 100.798 98.1501 100.751L98.16 100.711Z" fill="#FFC60B"/>
<path d="M88.0001 108.689L87.0801 106.789L88.4401 108.399C88.4872 108.449 88.5134 108.515 88.5134 108.584C88.5134 108.653 88.4872 108.719 88.4401 108.769C88.4159 108.794 88.387 108.813 88.3553 108.826C88.3235 108.84 88.2895 108.846 88.2551 108.846C88.2206 108.846 88.1865 108.84 88.1548 108.826C88.123 108.813 88.0943 108.794 88.0701 108.769L88.0001 108.689Z" fill="#FFC60B"/>
<path d="M86.0803 105.731L79.7803 95.8809L86.5203 105.431C86.5591 105.489 86.5734 105.561 86.5604 105.63C86.5473 105.699 86.5078 105.76 86.4503 105.801C86.3936 105.838 86.3252 105.852 86.2585 105.841C86.1919 105.83 86.1319 105.794 86.0903 105.741L86.0803 105.731Z" fill="#FFC60B"/>
<path d="M67.0001 115.019L62.3901 90.8594L67.5101 114.919C67.5174 114.953 67.5179 114.987 67.5118 115.021C67.5056 115.055 67.4929 115.087 67.4743 115.116C67.4557 115.145 67.4317 115.169 67.4035 115.189C67.3753 115.208 67.3436 115.222 67.3101 115.229C67.2766 115.237 67.2421 115.237 67.2084 115.231C67.1747 115.225 67.1425 115.212 67.1137 115.194C67.0849 115.175 67.0601 115.151 67.0406 115.123C67.0211 115.095 67.0073 115.063 67.0001 115.029V115.019Z" fill="#FFC60B"/>
<path d="M79.1298 119.279L78.5698 117.279L79.5698 119.109C79.5875 119.139 79.5989 119.173 79.6034 119.207C79.6079 119.242 79.6054 119.277 79.5961 119.31C79.5867 119.344 79.5708 119.375 79.5491 119.403C79.5274 119.43 79.5004 119.453 79.4698 119.469C79.4085 119.502 79.3368 119.51 79.2697 119.492C79.2026 119.473 79.1453 119.429 79.1098 119.369C79.1098 119.369 79.1398 119.299 79.1298 119.279Z" fill="#FFC60B"/>
<path d="M77.77 116.02L67.21 88.7695L78.21 115.82C78.2231 115.851 78.2298 115.885 78.2299 115.919C78.23 115.953 78.2233 115.987 78.2103 116.018C78.1973 116.05 78.1783 116.079 78.1542 116.103C78.1301 116.127 78.1015 116.146 78.0699 116.16C78.0386 116.174 78.0046 116.182 77.9701 116.183C77.9356 116.184 77.9012 116.177 77.8693 116.164C77.8373 116.151 77.8085 116.131 77.7845 116.106C77.7605 116.082 77.7419 116.052 77.7299 116.02H77.77Z" fill="#FFC60B"/>
<path d="M101.89 73.5593L99.8301 73.0993L101.94 73.0393C101.974 73.0379 102.008 73.0433 102.04 73.0552C102.072 73.067 102.102 73.0851 102.127 73.1083C102.152 73.1315 102.172 73.1594 102.187 73.1905C102.201 73.2215 102.209 73.2551 102.21 73.2893C102.211 73.3242 102.206 73.3591 102.193 73.3918C102.181 73.4245 102.162 73.4544 102.138 73.4796C102.113 73.5048 102.084 73.5249 102.052 73.5386C102.02 73.5522 101.985 73.5593 101.95 73.5593H101.89Z" fill="#FFC60B"/>
<path d="M98.3698 73.2293L77.2998 70.7793L98.4198 72.7093C98.4897 72.7169 98.5539 72.7514 98.5987 72.8056C98.6435 72.8597 98.6654 72.9292 98.6598 72.9993C98.6573 73.0331 98.648 73.0661 98.6324 73.0962C98.6169 73.1263 98.5953 73.1529 98.5692 73.1744C98.543 73.1959 98.5127 73.2118 98.4801 73.2213C98.4476 73.2307 98.4135 73.2335 98.3798 73.2293H98.3698Z" fill="#FFC60B"/>
<path d="M103 101.83C102.998 101.644 103.051 101.461 103.153 101.305C103.254 101.149 103.398 101.026 103.569 100.951C103.739 100.876 103.928 100.853 104.112 100.885C104.295 100.917 104.465 101.001 104.601 101.129C104.736 101.256 104.831 101.421 104.874 101.602C104.917 101.783 104.906 101.973 104.842 102.148C104.778 102.322 104.664 102.475 104.515 102.585C104.365 102.696 104.186 102.76 104 102.77C103.872 102.778 103.743 102.76 103.622 102.716C103.501 102.673 103.39 102.605 103.296 102.517C103.202 102.429 103.128 102.322 103.077 102.204C103.026 102.086 103 101.958 103 101.83Z" fill="#FFC60B"/>
<path d="M70.5198 114.97C70.5098 114.77 70.5599 114.572 70.6635 114.401C70.7671 114.231 70.9195 114.095 71.1012 114.011C71.2828 113.928 71.4852 113.901 71.6824 113.933C71.8796 113.966 72.0624 114.057 72.2073 114.195C72.3522 114.333 72.4525 114.511 72.4953 114.706C72.5381 114.901 72.5215 115.104 72.4475 115.29C72.3735 115.476 72.2455 115.635 72.0802 115.747C71.9148 115.86 71.7197 115.92 71.5198 115.92C71.263 115.92 71.016 115.822 70.8298 115.645C70.6436 115.468 70.5326 115.226 70.5198 114.97Z" fill="#FFC60B"/>
<path d="M104.14 106.38C104.138 106.255 104.173 106.132 104.241 106.028C104.309 105.923 104.407 105.84 104.522 105.791C104.637 105.742 104.764 105.728 104.887 105.751C105.01 105.774 105.123 105.833 105.212 105.921C105.301 106.009 105.362 106.121 105.387 106.244C105.412 106.366 105.401 106.493 105.353 106.609C105.306 106.725 105.225 106.824 105.121 106.893C105.017 106.963 104.895 107 104.77 107C104.605 107 104.446 106.935 104.328 106.819C104.21 106.703 104.143 106.546 104.14 106.38Z" fill="#FFC60B"/>
<path d="M73.4102 118.21C73.4102 118.085 73.4471 117.964 73.5164 117.86C73.5856 117.756 73.684 117.676 73.7991 117.628C73.9142 117.58 74.0409 117.568 74.1631 117.592C74.2853 117.616 74.3975 117.676 74.4857 117.765C74.5738 117.853 74.6338 117.965 74.6581 118.087C74.6824 118.209 74.6699 118.336 74.6223 118.451C74.5746 118.566 74.4938 118.665 74.3902 118.734C74.2866 118.803 74.1648 118.84 74.0402 118.84C73.8731 118.84 73.7129 118.774 73.5947 118.656C73.4766 118.537 73.4102 118.377 73.4102 118.21Z" fill="#FFC60B"/>
<path d="M92.4698 78.9798C92.4678 78.8548 92.5031 78.7321 92.5711 78.6272C92.6391 78.5222 92.7368 78.4399 92.8518 78.3907C92.9667 78.3415 93.0937 78.3276 93.2165 78.3508C93.3394 78.3739 93.4525 78.4331 93.5416 78.5208C93.6308 78.6085 93.6917 78.7207 93.7169 78.8432C93.742 78.9657 93.7301 79.0929 93.6828 79.2086C93.6354 79.3243 93.5547 79.4233 93.4509 79.4929C93.3471 79.5626 93.2248 79.5998 93.0998 79.5998C92.9344 79.5999 92.7757 79.5349 92.6579 79.4189C92.54 79.3029 92.4724 79.1452 92.4698 78.9798Z" fill="#FFC60B"/>
<path d="M89.7398 102.929C89.7378 102.804 89.7731 102.681 89.8411 102.576C89.9092 102.471 90.0068 102.389 90.1217 102.34C90.2367 102.291 90.3636 102.277 90.4865 102.3C90.6093 102.323 90.7226 102.382 90.8117 102.47C90.9008 102.558 90.9618 102.67 90.9869 102.792C91.012 102.915 91.0002 103.042 90.9528 103.158C90.9054 103.274 90.8247 103.373 90.7208 103.442C90.617 103.512 90.4949 103.549 90.3698 103.549C90.2045 103.549 90.0457 103.484 89.9279 103.368C89.81 103.252 89.7425 103.094 89.7398 102.929Z" fill="#FFC60B"/>
<path d="M88.1599 99.4598L81.6899 92.0098L88.5499 99.1097C88.597 99.1598 88.6233 99.226 88.6233 99.2947C88.6233 99.3635 88.597 99.4297 88.5499 99.4797C88.5257 99.5042 88.497 99.5237 88.4652 99.537C88.4335 99.5503 88.3993 99.5571 88.3649 99.5571C88.3305 99.5571 88.2965 99.5503 88.2647 99.537C88.233 99.5237 88.2041 99.5042 88.1799 99.4797L88.1599 99.4598Z" fill="#FFC60B"/>
<path d="M28.88 112.629L27.07 112.499L26.15 110.939L25.48 112.619L23.71 113.009L25.09 114.169L24.92 115.969L26.45 115.019L28.12 115.739L27.68 113.979L28.88 112.629Z" fill="#FFC60B"/>
<path d="M26.1899 112.68L29.5399 108.92L27.0899 113.32L26.1899 112.68Z" fill="#FFC60B"/>
<path d="M0.130153 99.2703L4.41012 96.9902L0.410122 99.7203C0.351478 99.7591 0.280003 99.7734 0.210903 99.7604C0.141803 99.7473 0.0805369 99.7078 0.0401264 99.6503C0.00184808 99.5932 -0.0122364 99.5233 0.000880788 99.4558C0.0139979 99.3884 0.053257 99.3288 0.110134 99.2902L0.130153 99.2703Z" fill="#FFC60B"/>
<path d="M33.6801 78.9491L40.6801 75.0391L34.0001 79.3791C33.943 79.4173 33.8731 79.4315 33.8056 79.4183C33.7381 79.4052 33.6787 79.3659 33.6401 79.3091C33.6013 79.2504 33.5868 79.1789 33.5999 79.1098C33.613 79.0407 33.6525 78.9795 33.7101 78.9391L33.6801 78.9491Z" fill="#FFC60B"/>
<path d="M5.60992 95.9498L7.53992 95.0898L5.87994 96.3798C5.82986 96.4269 5.7637 96.4532 5.69495 96.4532C5.62619 96.4532 5.56003 96.4269 5.50995 96.3798C5.48546 96.3556 5.46603 96.3268 5.45276 96.295C5.43949 96.2633 5.43262 96.2292 5.43262 96.1948C5.43262 96.1604 5.43949 96.1263 5.45276 96.0945C5.46603 96.0628 5.48546 96.034 5.50995 96.0098C5.51825 95.9906 5.53235 95.9745 5.55029 95.9637C5.56823 95.953 5.58907 95.9481 5.60992 95.9498Z" fill="#FFC60B"/>
<path d="M27.6401 82.6002L29.5601 81.7402L27.91 83.0502C27.8557 83.094 27.7862 83.1144 27.7168 83.1069C27.6474 83.0994 27.5838 83.0646 27.54 83.0103C27.4963 82.9559 27.476 82.8863 27.4835 82.817C27.491 82.7476 27.5257 82.684 27.5801 82.6403L27.6401 82.6002Z" fill="#FFC60B"/>
<path d="M30.4901 80.8795L32.4201 80.0195L30.7601 81.3195C30.7101 81.3666 30.6439 81.3929 30.5752 81.3929C30.5064 81.3929 30.4402 81.3666 30.3902 81.3195C30.3686 81.2922 30.3528 81.2607 30.3436 81.2271C30.3345 81.1935 30.3321 81.1585 30.3368 81.124C30.3415 81.0895 30.3531 81.0562 30.3708 81.0262C30.3886 80.9963 30.4121 80.9702 30.4401 80.9495L30.4901 80.8795Z" fill="#FFC60B"/>
<path d="M8.63011 94.1208L26.8801 83.3809L8.88011 94.5809C8.8513 94.6037 8.81799 94.6202 8.78233 94.6292C8.74668 94.6382 8.70948 94.6396 8.67326 94.6332C8.63705 94.6268 8.6026 94.6128 8.57219 94.5921C8.54179 94.5714 8.51611 94.5445 8.49687 94.5132C8.47764 94.4818 8.4653 94.4468 8.46062 94.4103C8.45594 94.3738 8.45901 94.3368 8.46971 94.3016C8.48041 94.2664 8.49849 94.2338 8.52269 94.2061C8.54689 94.1784 8.57666 94.1562 8.61009 94.1409L8.63011 94.1208Z" fill="#FFC60B"/>
<path d="M26.9997 127.379L29.4397 123.189L27.4397 127.619C27.4114 127.681 27.3599 127.73 27.2963 127.754C27.2327 127.778 27.1621 127.777 27.0997 127.749C27.0391 127.712 26.9951 127.653 26.9765 127.584C26.9579 127.515 26.9662 127.442 26.9997 127.379Z" fill="#FFC60B"/>
<path d="M44.93 92.4902L48.8 85.4902L45.4 92.7103C45.3632 92.7623 45.3092 92.7995 45.2475 92.8155C45.1858 92.8315 45.1204 92.8252 45.063 92.7977C45.0055 92.7701 44.9597 92.7232 44.9335 92.6651C44.9074 92.607 44.9025 92.5415 44.92 92.4802L44.93 92.4902Z" fill="#FFC60B"/>
<path d="M30.0002 121.689L31.1902 119.949L30.4702 121.949C30.4435 122.013 30.3934 122.064 30.3301 122.092C30.2668 122.12 30.1953 122.122 30.1302 122.099C30.0973 122.089 30.0668 122.072 30.0406 122.05C30.0144 122.028 29.9932 122 29.9782 121.969C29.9631 121.938 29.9547 121.904 29.9533 121.87C29.952 121.836 29.9577 121.801 29.9702 121.769L30.0002 121.689Z" fill="#FFC60B"/>
<path d="M41.7101 98.7693L42.9001 97.0293L42.1701 99.0293C42.1583 99.0615 42.1402 99.0909 42.117 99.1161C42.0937 99.1414 42.0658 99.1618 42.0347 99.1761C42.0036 99.1905 41.9699 99.1987 41.9357 99.2001C41.9015 99.2015 41.8673 99.1961 41.8351 99.1843C41.8029 99.1724 41.7734 99.1544 41.7482 99.1312C41.723 99.1079 41.7026 99.08 41.6882 99.0489C41.6738 99.0178 41.6657 98.9841 41.6643 98.9499C41.6629 98.9156 41.6683 98.8814 41.6801 98.8492L41.7101 98.7693Z" fill="#FFC60B"/>
<path d="M43.23 95.8005L44.42 94.0605L43.7 96.0605C43.6752 96.1262 43.6258 96.1795 43.5624 96.2094C43.4989 96.2393 43.4263 96.2433 43.36 96.2206C43.3267 96.2094 43.296 96.1916 43.2698 96.1683C43.2435 96.1449 43.2223 96.1165 43.2073 96.0847C43.1924 96.0529 43.1841 96.0185 43.1828 95.9834C43.1815 95.9483 43.1874 95.9133 43.2 95.8806L43.23 95.8005Z" fill="#FFC60B"/>
<path d="M31.5699 118.55L41.4599 99.8203L32.0399 118.82C32.008 118.883 31.9528 118.93 31.8862 118.951C31.8196 118.973 31.7472 118.967 31.6849 118.935C31.6226 118.903 31.5754 118.848 31.5538 118.782C31.5323 118.715 31.5381 118.643 31.5699 118.58V118.55Z" fill="#FFC60B"/>
<path d="M58.9302 138.061L59.0702 133.211L59.4502 138.041C59.4534 138.11 59.4305 138.179 59.3862 138.232C59.3418 138.286 59.2791 138.321 59.2102 138.331C59.1418 138.334 59.0748 138.311 59.0228 138.266C58.9708 138.222 58.9377 138.159 58.9302 138.091V138.061Z" fill="#FFC60B"/>
<path d="M58 98.8496L58.06 90.8496L58.52 98.8496C58.5227 98.8846 58.5184 98.9198 58.5071 98.953C58.4959 98.9862 58.4781 99.0168 58.4547 99.043C58.4314 99.0691 58.403 99.0903 58.3712 99.1052C58.3395 99.1201 58.3051 99.1284 58.27 99.1296C58.2359 99.131 58.2018 99.1256 58.1697 99.1137C58.1377 99.1019 58.1083 99.0838 58.0832 99.0606C58.0581 99.0374 58.0378 99.0094 58.0236 98.9784C58.0093 98.9473 58.0013 98.9138 58 98.8796V98.8496Z" fill="#FFC60B"/>
<path d="M58.77 131.651L58.98 129.551L59.29 131.641C59.2972 131.675 59.2971 131.711 59.2897 131.745C59.2822 131.779 59.2676 131.812 59.2469 131.84C59.2261 131.868 59.1997 131.892 59.1692 131.909C59.1387 131.927 59.1049 131.937 59.07 131.941C59.0013 131.95 58.9319 131.932 58.876 131.891C58.8202 131.85 58.7823 131.789 58.77 131.721V131.651Z" fill="#FFC60B"/>
<path d="M58.1401 105.901L58.3501 103.811L58.6601 105.891C58.6658 105.925 58.6646 105.96 58.6566 105.993C58.6485 106.027 58.6338 106.059 58.6133 106.087C58.5928 106.115 58.5669 106.138 58.5372 106.156C58.5074 106.174 58.4744 106.186 58.4401 106.191C58.3714 106.199 58.302 106.181 58.2462 106.14C58.1904 106.099 58.1524 106.039 58.1401 105.971V105.901Z" fill="#FFC60B"/>
<path d="M58.0601 102.571L58.2701 100.471L58.5801 102.561C58.5853 102.595 58.5838 102.63 58.5756 102.663C58.5673 102.697 58.5526 102.728 58.5322 102.756C58.5117 102.784 58.4861 102.808 58.4565 102.826C58.427 102.843 58.3942 102.855 58.36 102.861C58.3259 102.866 58.2911 102.864 58.2575 102.856C58.224 102.848 58.1923 102.833 58.1645 102.813C58.1366 102.792 58.1131 102.767 58.0952 102.737C58.0772 102.708 58.0653 102.675 58.0601 102.641V102.571Z" fill="#FFC60B"/>
<path d="M58.6902 128.119L58.4302 106.939L59.2102 128.109C59.2115 128.144 59.2061 128.178 59.1943 128.21C59.1824 128.242 59.1644 128.271 59.1412 128.296C59.118 128.321 59.09 128.342 59.059 128.356C59.0279 128.37 58.9944 128.378 58.9602 128.379C58.9257 128.382 58.891 128.378 58.8583 128.367C58.8257 128.355 58.7957 128.337 58.7703 128.314C58.7449 128.29 58.7247 128.262 58.7109 128.23C58.6971 128.198 58.6901 128.164 58.6902 128.129V128.119Z" fill="#FFC60B"/>
<path d="M17.36 102.22L19.0601 100.99L17.7101 102.61C17.6878 102.636 17.6604 102.658 17.6298 102.674C17.5991 102.69 17.5656 102.699 17.5312 102.702C17.4969 102.705 17.4624 102.701 17.4296 102.69C17.3968 102.679 17.3664 102.663 17.3401 102.64C17.3138 102.618 17.2922 102.591 17.2765 102.56C17.2608 102.529 17.2512 102.496 17.2484 102.461C17.2456 102.427 17.2497 102.393 17.2603 102.36C17.2708 102.327 17.2877 102.297 17.3101 102.27L17.36 102.22Z" fill="#FFC60B"/>
<path d="M19.9301 99.8109L44.4001 76.8809L20.29 100.191C20.24 100.238 20.1738 100.264 20.105 100.264C20.0363 100.264 19.9701 100.238 19.92 100.191C19.8956 100.167 19.8761 100.138 19.8629 100.106C19.8496 100.074 19.8428 100.04 19.8428 100.006C19.8428 99.9714 19.8496 99.9373 19.8629 99.9056C19.8761 99.8738 19.8956 99.845 19.92 99.8209L19.9301 99.8109Z" fill="#FFC60B"/>
<path d="M30 107.889L31.35 106.279L30.44 108.169C30.425 108.201 30.4037 108.23 30.3774 108.254C30.3512 108.278 30.3204 108.297 30.287 108.309C30.2535 108.321 30.2181 108.327 30.1826 108.325C30.147 108.323 30.1122 108.314 30.08 108.299C30.0192 108.267 29.9729 108.213 29.9506 108.148C29.9283 108.083 29.9317 108.012 29.96 107.949L30 107.889Z" fill="#FFC60B"/>
<path d="M31.9399 104.919L38.6699 95.3691L32.3699 105.209C32.3515 105.238 32.3276 105.263 32.2996 105.283C32.2716 105.302 32.2399 105.316 32.2065 105.324C32.173 105.331 32.1385 105.332 32.1048 105.326C32.071 105.32 32.0388 105.308 32.0099 105.289C31.981 105.271 31.956 105.247 31.9364 105.219C31.9167 105.191 31.9028 105.159 31.8954 105.126C31.8879 105.092 31.8872 105.058 31.8931 105.024C31.899 104.99 31.9115 104.958 31.9299 104.929L31.9399 104.919Z" fill="#FFC60B"/>
<path d="M48.5499 120.381L56.1099 90.3809L49.0599 120.551C49.0411 120.618 48.9979 120.676 48.9387 120.713C48.8795 120.75 48.8085 120.763 48.7399 120.751C48.7062 120.743 48.6744 120.728 48.6465 120.707C48.6187 120.687 48.5952 120.661 48.5775 120.631C48.5597 120.601 48.5482 120.568 48.5435 120.534C48.5387 120.499 48.5409 120.464 48.5499 120.431V120.381Z" fill="#FFC60B"/>
<path d="M39.7102 118.91L40.7102 117.08L40.1402 119.08C40.132 119.114 40.1172 119.146 40.0966 119.173C40.076 119.201 40.05 119.225 40.0202 119.242C39.9904 119.26 39.9573 119.272 39.923 119.276C39.8886 119.281 39.8537 119.279 39.8202 119.27C39.7532 119.249 39.6969 119.203 39.6633 119.142C39.6297 119.08 39.6214 119.008 39.6402 118.94C39.6603 118.924 39.6846 118.913 39.7102 118.91Z" fill="#FFC60B"/>
<path d="M41.0602 115.66L52.1202 88.5996L41.5502 115.85C41.538 115.882 41.5195 115.912 41.4958 115.937C41.472 115.962 41.4434 115.982 41.4118 115.996C41.3801 116.01 41.3459 116.018 41.3113 116.018C41.2767 116.019 41.2424 116.012 41.2102 116C41.1464 115.973 41.0953 115.923 41.0674 115.86C41.0395 115.796 41.0369 115.725 41.0602 115.66Z" fill="#FFC60B"/>
<path d="M19.0001 78.0898L21.0801 77.7598L19.1501 78.5998C19.0848 78.6242 19.0127 78.6234 18.948 78.5975C18.8833 78.5716 18.8305 78.5225 18.8001 78.4597C18.7854 78.4277 18.7773 78.393 18.7764 78.3578C18.7756 78.3225 18.7818 78.2874 18.7949 78.2547C18.808 78.222 18.8277 78.1922 18.8526 78.1673C18.8776 78.1424 18.9073 78.1228 18.9401 78.1098L19.0001 78.0898Z" fill="#FFC60B"/>
<path d="M22.4202 77.1094L37.1802 73.1094L22.5702 77.5894C22.5039 77.6086 22.4327 77.6017 22.3713 77.5701C22.31 77.5384 22.263 77.4845 22.2402 77.4194C22.2293 77.3866 22.2251 77.3519 22.2278 77.3174C22.2305 77.283 22.2401 77.2494 22.2559 77.2187C22.2718 77.188 22.2935 77.1607 22.32 77.1385C22.3465 77.1163 22.3771 77.0996 22.4102 77.0894L22.4202 77.1094Z" fill="#FFC60B"/>
<path d="M15.45 101.31C15.4402 101.124 15.376 100.945 15.2654 100.796C15.1547 100.646 15.0026 100.532 14.8279 100.468C14.6531 100.404 14.4633 100.393 14.2822 100.436C14.1011 100.479 13.9366 100.574 13.8091 100.709C13.6816 100.845 13.5967 101.015 13.5651 101.199C13.5334 101.382 13.5564 101.571 13.6311 101.741C13.7057 101.912 13.8288 102.056 13.9851 102.158C14.1413 102.259 14.3239 102.312 14.51 102.31C14.6386 102.31 14.766 102.284 14.8841 102.233C15.0023 102.182 15.1087 102.108 15.1968 102.014C15.2849 101.92 15.3528 101.809 15.3964 101.688C15.4399 101.567 15.4582 101.438 15.45 101.31Z" fill="#FFC60B"/>
<path d="M48.88 123.201C48.8797 123.015 48.825 122.833 48.7227 122.678C48.6203 122.523 48.4748 122.402 48.3041 122.329C48.1334 122.256 47.945 122.234 47.7622 122.267C47.5794 122.3 47.4103 122.385 47.2757 122.513C47.141 122.641 47.0468 122.806 47.0047 122.987C46.9626 123.167 46.9744 123.357 47.0387 123.531C47.103 123.705 47.217 123.857 47.3665 123.967C47.516 124.077 47.6945 124.141 47.88 124.151C48.0089 124.157 48.1378 124.138 48.2589 124.093C48.38 124.049 48.4907 123.98 48.5843 123.891C48.6778 123.802 48.7524 123.695 48.8032 123.576C48.854 123.457 48.8802 123.33 48.88 123.201Z" fill="#FFC60B"/>
<path d="M14.3102 105.89C14.3122 105.764 14.2767 105.641 14.2082 105.536C14.1398 105.431 14.0414 105.349 13.9259 105.3C13.8104 105.251 13.683 105.238 13.5598 105.262C13.4367 105.286 13.3235 105.346 13.2348 105.435C13.1461 105.523 13.0859 105.636 13.0619 105.759C13.0379 105.883 13.0513 106.01 13.1002 106.126C13.1491 106.241 13.2314 106.339 13.3365 106.408C13.4416 106.476 13.5648 106.512 13.6902 106.51C13.8538 106.507 14.01 106.441 14.1258 106.325C14.2415 106.21 14.3076 106.054 14.3102 105.89Z" fill="#FFC60B"/>
<path d="M47.61 126.89C47.612 126.765 47.5768 126.642 47.5088 126.537C47.4408 126.432 47.3431 126.35 47.2281 126.301C47.1132 126.252 46.9862 126.238 46.8634 126.261C46.7405 126.284 46.6274 126.343 46.5382 126.431C46.4491 126.519 46.3881 126.631 46.363 126.753C46.3378 126.876 46.3497 127.003 46.3971 127.119C46.4445 127.234 46.5252 127.333 46.629 127.403C46.7328 127.473 46.855 127.51 46.98 127.51C47.1454 127.51 47.3042 127.445 47.422 127.329C47.5399 127.213 47.6074 127.055 47.61 126.89Z" fill="#FFC60B"/>
<path d="M16.0801 79.5996C16.0608 79.4475 15.9866 79.3076 15.8716 79.2062C15.7565 79.1048 15.6084 79.0488 15.4551 79.0488C15.3017 79.0488 15.1536 79.1048 15.0385 79.2062C14.9235 79.3076 14.8494 79.4475 14.8301 79.5996C14.8494 79.7518 14.9235 79.8916 15.0385 79.993C15.1536 80.0944 15.3017 80.1504 15.4551 80.1504C15.6084 80.1504 15.7565 80.0944 15.8716 79.993C15.9866 79.8916 16.0608 79.7518 16.0801 79.5996Z" fill="#FFC60B"/>
<path d="M28.7101 102.38C28.7121 102.255 28.6766 102.132 28.6081 102.026C28.5397 101.921 28.4414 101.839 28.3258 101.79C28.2103 101.741 28.0828 101.728 27.9597 101.752C27.8366 101.776 27.7234 101.836 27.6347 101.925C27.546 102.013 27.4858 102.127 27.4618 102.25C27.4378 102.373 27.4511 102.5 27.5 102.616C27.549 102.731 27.6312 102.83 27.7364 102.898C27.8415 102.967 27.9647 103.002 28.0901 103C28.2538 102.998 28.41 102.931 28.5257 102.816C28.6414 102.7 28.7075 102.544 28.7101 102.38Z" fill="#FFC60B"/>
<path d="M29.91 98.6L36.7601 91.5L30.29 98.95C30.24 98.9971 30.1738 99.0233 30.105 99.0233C30.0363 99.0233 29.9701 98.9971 29.92 98.95C29.8956 98.9258 29.8761 98.897 29.8629 98.8652C29.8496 98.8335 29.8428 98.7994 29.8428 98.765C29.8428 98.7306 29.8496 98.6965 29.8629 98.6647C29.8761 98.633 29.8956 98.6042 29.92 98.58L29.91 98.6Z" fill="#FFC60B"/>
</g>
<defs>
<clipPath id="clip0_5243_1165">
<rect width="117.1" height="138.33" fill="white"/>
</clipPath>
</defs>
</svg>
