<svg width="13" height="12" viewBox="0 0 13 12" fill="none" xmlns="http://www.w3.org/2000/svg">
<path d="M10.1731 0.237484C9.3853 0.873001 8.74116 1.66825 8.28308 2.57082C7.85197 3.12997 7.45458 3.71434 7.09306 4.32082C6.11931 3.15365 5.0834 2.03983 3.98976 0.984168C3.86366 0.850589 3.69619 0.763392 3.51444 0.736721C3.3327 0.71005 3.14724 0.745477 2.98808 0.837195C2.82892 0.928913 2.70536 1.0716 2.63731 1.24222C2.56926 1.41285 2.56068 1.60142 2.61303 1.77749C3.042 3.09795 3.66313 4.34802 4.45638 5.48748C3.21971 5.48748 1.98305 5.83753 0.816386 5.97753C0.6147 6.01103 0.43147 6.11495 0.299276 6.27091C0.167082 6.42687 0.0944824 6.62473 0.0944824 6.82918C0.0944824 7.03363 0.167082 7.23149 0.299276 7.38745C0.43147 7.54341 0.6147 7.64733 0.816386 7.68082C2.02972 7.68082 3.31309 7.96086 4.57309 8.00752C3.89195 8.78092 3.3475 9.66465 2.96308 10.6208C2.89907 10.8429 2.91004 11.0799 2.99442 11.295C3.07879 11.5102 3.23181 11.6915 3.42971 11.8109C3.64073 11.9316 3.88587 11.9787 4.12662 11.9449C4.36736 11.9111 4.59008 11.7983 4.75972 11.6242C5.62306 10.9008 6.4864 10.2709 7.3964 9.64089C8.67378 10.5264 10.0835 11.2036 11.5731 11.6475C12.9264 12.1142 13.5097 10.2242 12.4831 9.47753C11.4564 8.73087 10.2897 7.6341 9.1464 6.74743L8.93641 6.58422C9.61948 5.76028 10.1633 4.83019 10.5464 3.83084C11.0602 2.96929 11.3788 2.00556 11.4797 1.00752C11.4937 0.849421 11.4625 0.690575 11.3899 0.549445C11.3173 0.408315 11.2062 0.290648 11.0694 0.210069C10.9327 0.12949 10.7759 0.0892889 10.6173 0.094143C10.4586 0.098997 10.3046 0.148696 10.1731 0.237484Z" fill="#F8CA95"/>
</svg>
