<svg width="55" height="76" viewBox="0 0 55 76" fill="none" xmlns="http://www.w3.org/2000/svg">
<path d="M7.30779 23.2112C7.3411 23.3968 7.41065 23.5739 7.51242 23.7323C7.6142 23.8907 7.74618 24.0271 7.90075 24.134C8.05533 24.2408 8.2295 24.3158 8.41307 24.3546C8.59664 24.3934 8.78602 24.3953 8.9703 24.3601L12.1221 23.7334L9.14343 24.9522C8.79438 25.1 8.51802 25.381 8.37512 25.7337C8.23223 26.0863 8.23449 26.4815 8.38146 26.8324C8.52844 27.1834 8.80802 27.4611 9.15876 27.6048C9.50951 27.7484 9.90272 27.7462 10.2518 27.5984L13.2303 26.3449L10.5288 28.1557C10.3742 28.2608 10.2416 28.3956 10.1388 28.5522C10.0359 28.7089 9.96488 28.8844 9.9295 29.0687C9.89413 29.253 9.89521 29.4425 9.93267 29.6263C9.97014 29.8102 10.0433 29.985 10.1479 30.1405C10.2525 30.2959 10.3865 30.4292 10.5423 30.5326C10.6982 30.636 10.8727 30.7074 11.056 30.743C11.2393 30.7785 11.4278 30.7775 11.6107 30.7398C11.7936 30.7021 11.9674 30.6286 12.1221 30.5234L14.7889 28.7127L12.503 31.011C12.2366 31.2788 12.087 31.642 12.087 32.0207C12.087 32.3994 12.2366 32.7626 12.503 33.0304C12.7694 33.2982 13.1307 33.4487 13.5075 33.4487C13.8842 33.4487 14.2455 33.2982 14.5119 33.0304L16.7977 30.7323L14.9967 33.4483C14.79 33.7669 14.7177 34.155 14.7957 34.5273C14.8736 34.8995 15.0954 35.2253 15.4123 35.4331C15.7292 35.6408 16.1152 35.7135 16.4855 35.6352C16.8557 35.5568 17.1799 35.3338 17.3865 35.0152L19.1529 32.3342L17.9407 35.3287C17.8367 35.5048 17.7717 35.7013 17.7499 35.9049C17.7282 36.1085 17.7501 36.3144 17.8145 36.5087C17.8789 36.7029 17.9841 36.8811 18.1229 37.0309C18.2618 37.1806 18.4312 37.2986 18.6194 37.3768C18.8076 37.4551 19.0103 37.4917 19.2138 37.4842C19.4174 37.4767 19.6169 37.4252 19.799 37.3333C19.981 37.2414 20.1412 37.1112 20.2688 36.9516C20.3964 36.792 20.4883 36.6066 20.5383 36.4081L21.7851 33.4136L21.1617 36.6171C21.1034 36.8078 21.0856 37.0089 21.1093 37.207C21.133 37.4052 21.1978 37.596 21.2994 37.7675C21.4011 37.9389 21.5374 38.0871 21.6995 38.2023C21.8616 38.3175 22.046 38.3972 22.2407 38.4363C22.4353 38.4754 22.636 38.4732 22.8297 38.4295C23.0234 38.3859 23.2059 38.3019 23.3653 38.183C23.5247 38.064 23.6576 37.9127 23.7553 37.739C23.853 37.5653 23.9133 37.3728 23.9325 37.1741L24.556 33.9706L24.556 37.209C24.556 37.5876 24.7056 37.9507 24.9719 38.2185C25.2382 38.4862 25.5994 38.6367 25.976 38.6367C26.3526 38.6367 26.7137 38.4862 26.98 38.2185C27.2463 37.9507 27.3959 37.5876 27.3959 37.209L27.3959 33.9706L28.054 37.1741C28.1292 37.5425 28.3461 37.8664 28.6574 38.075C28.9687 38.2836 29.3493 38.3603 29.7165 38.2884C30.0786 38.2048 30.3952 37.9852 30.6013 37.6744C30.8074 37.3636 30.8874 36.9853 30.8249 36.6171L30.2015 33.4136L31.4136 36.4081C31.5596 36.7607 31.8371 37.0419 32.1865 37.1915C32.536 37.3412 32.9299 37.3474 33.2839 37.209C33.4574 37.1367 33.615 37.0305 33.7474 36.8965C33.8798 36.7626 33.9845 36.6036 34.0554 36.4288C34.1262 36.2539 34.1619 36.0665 34.1602 35.8777C34.1586 35.6888 34.1197 35.5023 34.0459 35.3287L32.8336 32.3342L34.6 35.0152C34.8115 35.328 35.1352 35.5462 35.5033 35.6241C35.8714 35.702 36.2553 35.6335 36.5742 35.4331C36.7291 35.328 36.8617 35.1933 36.9647 35.0367C37.0677 34.88 37.1389 34.7046 37.1743 34.5202C37.2097 34.3359 37.2085 34.1463 37.1709 33.9624C37.1333 33.7784 37.06 33.6037 36.9552 33.4483L35.1888 30.7323L37.4747 33.0304C37.7411 33.2982 38.1024 33.4487 38.4791 33.4487C38.8558 33.4487 39.2172 33.2982 39.4836 33.0304C39.7499 32.7626 39.8996 32.3994 39.8996 32.0207C39.8996 31.642 39.7499 31.2788 39.4836 31.011L37.1976 28.7127L39.8645 30.5234C40.0191 30.6288 40.1928 30.7024 40.3757 30.7402C40.5587 30.778 40.7473 30.7792 40.9307 30.7436C41.114 30.708 41.2886 30.6365 41.4444 30.533C41.6003 30.4295 41.7342 30.2961 41.8387 30.1405C41.9435 29.9851 42.0168 29.8103 42.0544 29.6263C42.092 29.4424 42.0932 29.2528 42.0578 29.0685C42.0224 28.8841 41.9512 28.7087 41.8482 28.552C41.7452 28.3954 41.6126 28.2607 41.4578 28.1557L38.7563 26.3449L41.7348 27.5984C41.9075 27.6727 42.0931 27.7117 42.2809 27.7134C42.4688 27.715 42.655 27.6792 42.829 27.608C43.0029 27.5367 43.1611 27.4314 43.2944 27.2983C43.4276 27.1652 43.5332 27.0069 43.6051 26.8324C43.7449 26.4808 43.7436 26.0884 43.6015 25.7377C43.4594 25.387 43.1876 25.1055 42.8431 24.9522L39.8645 23.7334L43.0163 24.3601C43.3883 24.434 43.7743 24.3564 44.0893 24.1442C44.4043 23.9319 44.6226 23.6024 44.6961 23.2284C44.7696 22.8544 44.6922 22.4665 44.4811 22.1498C44.27 21.8331 43.9425 21.6135 43.5704 21.5396L40.4187 20.9129L43.6397 20.9129C44.0163 20.9129 44.3775 20.7626 44.6438 20.4948C44.9101 20.2271 45.0597 19.864 45.0597 19.4853C45.0509 19.1095 44.8985 18.7514 44.6341 18.4856C44.3696 18.2197 44.0135 18.0664 43.6397 18.0576L40.4187 18.0576L43.5704 17.4308C43.768 17.4115 43.9594 17.3509 44.1322 17.2527C44.305 17.1545 44.4555 17.0209 44.5738 16.8606C44.6921 16.7003 44.7756 16.5168 44.819 16.3221C44.8624 16.1273 44.8647 15.9257 44.8258 15.7299C44.7869 15.5342 44.7076 15.3489 44.5931 15.1859C44.4785 15.0229 44.3312 14.8858 44.1606 14.7836C43.9901 14.6813 43.8001 14.6163 43.603 14.5925C43.4059 14.5686 43.206 14.5866 43.0163 14.6452L39.8645 15.2719L42.8431 14.0185C43.185 13.8722 43.4563 13.5971 43.5988 13.2521C43.7412 12.9071 43.7435 12.5195 43.6051 12.1729C43.4591 11.8203 43.1816 11.5391 42.8321 11.3895C42.4826 11.2398 42.0888 11.2336 41.7348 11.372L38.7563 12.6255L41.4578 10.8148C41.6126 10.7098 41.7452 10.5751 41.8482 10.4184C41.9512 10.2618 42.0224 10.0863 42.0578 9.90198C42.0932 9.71762 42.092 9.52802 42.0544 9.34409C42.0168 9.16017 41.9435 8.9856 41.8387 8.8302C41.622 8.52313 41.2957 8.31178 40.928 8.24043C40.5603 8.16908 40.1793 8.24307 39.8645 8.44701L37.1976 10.2578L39.4836 7.95968C39.6155 7.82707 39.7201 7.66963 39.7914 7.49637C39.8628 7.32311 39.8996 7.13728 39.8996 6.94974C39.8996 6.76221 39.8628 6.5766 39.7914 6.40333C39.7201 6.23007 39.6155 6.07263 39.4836 5.94002C39.3517 5.80741 39.195 5.70213 39.0227 5.63036C38.8504 5.5586 38.6656 5.52176 38.4791 5.52176C38.2926 5.52176 38.1079 5.5586 37.9355 5.63036C37.7632 5.70213 37.6066 5.80741 37.4747 5.94002L35.1888 8.23809L36.9552 5.52219C37.0639 5.3712 37.1406 5.19929 37.1804 5.01722C37.2202 4.83515 37.2224 4.64672 37.1867 4.4638C37.1509 4.28087 37.0781 4.10734 36.9727 3.95394C36.8674 3.80054 36.7317 3.67064 36.5742 3.57224C36.4197 3.46684 36.2459 3.39304 36.063 3.35524C35.88 3.31745 35.6915 3.31627 35.5081 3.35185C35.3247 3.38742 35.1501 3.45916 34.9943 3.56267C34.8385 3.66619 34.7045 3.79956 34.6 3.95521L32.8336 6.63647L34.0459 3.64174C34.1191 3.4706 34.1575 3.28652 34.1587 3.10021C34.16 2.9139 34.124 2.72928 34.0529 2.5572C33.9819 2.38512 33.8771 2.22903 33.7451 2.09835C33.613 1.96767 33.4562 1.86501 33.2839 1.79635C33.1112 1.72208 32.9256 1.683 32.7378 1.68137C32.5499 1.67973 32.3637 1.71553 32.1897 1.78678C32.0158 1.85803 31.8576 1.96331 31.7243 2.09644C31.5911 2.22956 31.4855 2.38785 31.4136 2.5623L30.2015 5.55704L30.8249 2.38824C30.8972 2.01477 30.8219 1.62779 30.6149 1.30923C30.408 0.99067 30.0857 0.765637 29.7165 0.682057C29.5322 0.646862 29.3428 0.648773 29.1593 0.687584C28.9757 0.726395 28.8016 0.801346 28.6471 0.908188C28.4925 1.01503 28.3604 1.15166 28.2586 1.31008C28.1569 1.4685 28.0873 1.64561 28.054 1.8312L27.3959 4.99979L27.3959 1.76149C27.3959 1.38285 27.2463 1.01971 26.98 0.75198C26.7137 0.484246 26.3526 0.333935 25.976 0.333935C25.5994 0.333935 25.2382 0.484246 24.9719 0.75198C24.7056 1.01971 24.556 1.38285 24.556 1.76149L24.556 4.99979L23.9325 1.8312C23.9133 1.63254 23.853 1.44004 23.7553 1.2663C23.6576 1.09255 23.5247 0.941471 23.3653 0.82254C23.2059 0.703606 23.0234 0.619446 22.8297 0.575794C22.636 0.532143 22.4353 0.52985 22.2407 0.568993C22.046 0.608135 21.8616 0.688 21.6995 0.8032C21.5374 0.9184 21.4011 1.06639 21.2994 1.23782C21.1978 1.40925 21.133 1.60031 21.1093 1.79847C21.0856 1.99663 21.1034 2.19745 21.1617 2.38824L21.7851 5.55704L20.5383 2.5623C20.3641 2.26718 20.0899 2.04509 19.766 1.93662C19.4421 1.82814 19.0902 1.84058 18.7748 1.97168C18.4593 2.10278 18.2014 2.34379 18.0482 2.6505C17.895 2.95721 17.8568 3.30905 17.9407 3.64174L19.2222 6.56677L17.4558 3.88551C17.2491 3.56689 16.925 3.34392 16.5548 3.26556C16.1846 3.18719 15.7986 3.25988 15.4817 3.46767C15.1648 3.67546 14.9429 4.00125 14.8649 4.37347C14.787 4.74569 14.8593 5.13387 15.066 5.45248L16.867 8.1686L14.5811 5.87031C14.3147 5.60249 13.9534 5.45205 13.5767 5.45205C13.2 5.45205 12.8386 5.60249 12.5722 5.87031C12.3059 6.13813 12.1562 6.5015 12.1562 6.88025C12.1562 7.259 12.3059 7.62215 12.5722 7.88997L14.8582 10.188L12.1913 8.37751C11.8765 8.17358 11.4955 8.09959 11.1278 8.17093C10.7601 8.24228 10.4338 8.45342 10.2171 8.76049C10.1076 8.91428 10.0304 9.08876 9.99017 9.27353C9.94997 9.4583 9.94766 9.64953 9.9833 9.83525C10.019 10.021 10.0918 10.1974 10.1976 10.3538C10.3033 10.5103 10.4396 10.6435 10.5981 10.7453L13.2997 12.5558L10.321 11.3023C9.96697 11.1639 9.57315 11.1701 9.22366 11.3198C8.87417 11.4694 8.59681 11.7508 8.4508 12.1034C8.37753 12.2745 8.33913 12.4586 8.33792 12.6449C8.33671 12.8312 8.37267 13.0158 8.44372 13.1879C8.51477 13.36 8.61942 13.5161 8.75151 13.6467C8.8836 13.7774 9.04039 13.8801 9.21267 13.9487L12.1913 15.2022L9.03953 14.5755C8.68929 14.5413 8.33893 14.6393 8.05634 14.8501C7.77375 15.0609 7.579 15.3696 7.50999 15.7166C7.44098 16.0635 7.5026 16.4237 7.68281 16.7276C7.86301 17.0314 8.149 17.2572 8.48537 17.3611L11.6371 17.9881L8.41613 17.9881C8.04229 17.9969 7.68616 18.15 7.42174 18.4159C7.15731 18.6817 7.00489 19.0398 6.99609 19.4156C6.99609 19.7943 7.14571 20.1574 7.41201 20.4251C7.67832 20.6929 8.03952 20.8432 8.41613 20.8432L11.6371 20.8432L8.48536 21.4701C8.29047 21.4986 8.10366 21.5674 7.93669 21.6725C7.76972 21.7775 7.62624 21.9164 7.51549 22.0801C7.40474 22.2438 7.32907 22.4288 7.29331 22.6235C7.25755 22.8182 7.26251 23.0185 7.30779 23.2112Z" fill="#E89B23"/>
<path d="M24.2098 37.6966C24.0815 37.9989 23.8639 38.2543 23.5864 38.4279C23.386 38.5658 23.16 38.6614 22.922 38.7093C22.6839 38.7572 22.4386 38.7562 22.2009 38.7063C21.7188 38.6056 21.2957 38.3179 21.0233 37.9055C20.8236 37.6462 20.7141 37.3281 20.7116 37.0002C20.5158 37.2633 20.2524 37.4679 19.9496 37.5921C19.4921 37.7659 18.9872 37.7659 18.5296 37.5921C18.0837 37.3897 17.7266 37.0307 17.5253 36.5823C17.4395 36.2749 17.4395 35.9496 17.5253 35.6421C17.2745 35.8497 16.9774 35.9931 16.6594 36.0599C16.4217 36.1098 16.1764 36.111 15.9383 36.0631C15.7003 36.0152 15.4743 35.9194 15.2739 35.7815C14.9298 35.5555 14.6711 35.2198 14.5392 34.8283C14.4074 34.4369 14.4099 34.0124 14.5466 33.6227C14.2679 33.8037 13.9433 33.9002 13.6115 33.9011C13.3718 33.8986 13.1349 33.8482 12.9149 33.7525C12.6948 33.6568 12.496 33.518 12.3301 33.344C11.9817 32.9919 11.783 32.5174 11.7759 32.0208C11.7691 31.702 11.8533 31.3878 12.0184 31.1154C11.7125 31.2017 11.389 31.2017 11.0831 31.1154C10.8439 31.0795 10.6151 30.9925 10.412 30.8604C10.2089 30.7283 10.0362 30.5542 9.90558 30.3495C10.158 30.0233 10.3121 29.6311 10.3494 29.2195C10.3867 28.8079 10.3057 28.3943 10.116 28.0276C9.92637 27.6609 9.63609 27.3566 9.27953 27.1509C8.92297 26.9453 8.51518 26.847 8.10461 26.8674C8.0027 26.6496 7.94987 26.4117 7.94987 26.171C7.94987 25.9302 8.0027 25.6924 8.10461 25.4745C8.20629 25.1678 8.39987 24.9003 8.65878 24.7086C8.33905 24.6732 8.03127 24.566 7.75824 24.3951C7.55464 24.2637 7.38136 24.0903 7.24994 23.8861C7.11852 23.6819 7.03201 23.4518 6.99627 23.2113C6.90872 22.8141 6.95678 22.3986 7.13272 22.0322C7.30866 21.6658 7.60221 21.3698 7.96604 21.1916C8.2299 20.2378 8.27982 19.237 8.11211 18.2615C7.9444 17.286 7.56325 16.3601 6.99627 15.5507C7.06064 15.1504 7.26195 14.7852 7.56545 14.5182C7.86894 14.2512 8.25564 14.0991 8.65878 14.0881C8.41527 13.8814 8.22512 13.6187 8.10461 13.3221C8.00205 13.0983 7.94891 12.8547 7.94891 12.6082C7.94891 12.3618 8.00205 12.1184 8.10461 11.8946C8.25511 11.5137 8.52734 11.1941 8.87852 10.986C9.2297 10.7779 9.63984 10.6933 10.0441 10.7454C9.79114 10.4298 9.65317 10.0365 9.65317 9.63113C9.65317 9.22573 9.79114 8.83251 10.0441 8.51684C10.3165 8.10445 10.7396 7.81674 11.2217 7.71603C11.2713 7.79678 11.3394 7.8643 11.4203 7.91305C11.5013 7.96179 11.5927 7.99036 11.6869 7.99615C11.7811 8.00193 11.8753 7.98467 11.9616 7.9462C12.0479 7.90773 12.1237 7.84899 12.1826 7.7749C12.2416 7.70082 12.282 7.61356 12.3004 7.52051C12.3188 7.42745 12.3146 7.3313 12.2883 7.24018C12.262 7.14906 12.2143 7.06576 12.1492 6.99705C12.0841 6.92833 12.0037 6.87638 11.9145 6.84551C11.9215 6.3489 12.1201 5.87444 12.4685 5.52231C12.6487 5.77692 12.917 5.95457 13.2208 6.02069C13.5245 6.08681 13.8419 6.03647 14.1106 5.87957C14.3794 5.72267 14.5802 5.4707 14.6737 5.1727C14.7671 4.8747 14.7466 4.55234 14.616 4.26881C14.6774 3.94558 14.8237 3.64471 15.0397 3.39745C15.2557 3.15018 15.5335 2.96551 15.8444 2.86251C16.1553 2.75951 16.4879 2.74179 16.8078 2.8115C17.1277 2.88122 17.4232 3.03571 17.6637 3.25888C17.5768 2.93976 17.5768 2.60313 17.6637 2.28401C17.865 1.83566 18.2222 1.47646 18.6682 1.27407C19.1257 1.10026 19.6307 1.10026 20.0882 1.27407C20.3835 1.41085 20.644 1.61341 20.8502 1.86618C20.8527 1.53822 20.9622 1.22012 21.1619 0.960804C21.4343 0.548412 21.8574 0.260494 22.3395 0.159783C22.8197 0.0742266 23.3143 0.173748 23.7248 0.438408C23.9864 0.630017 24.2 0.88049 24.3483 1.16972C24.4887 0.82378 24.7283 0.527588 25.0367 0.31918C25.3452 0.110775 25.7085 -0.000461354 26.0801 -0.00046135C26.4517 -0.000461346 26.8149 0.110775 27.1233 0.31918C27.4317 0.527588 27.6715 0.82378 27.8118 1.16972C27.9928 0.805424 28.2864 0.509995 28.6486 0.327896C29.0109 0.145794 29.4221 0.0867312 29.8206 0.159783C29.8893 0.553482 30.0655 0.920449 30.3293 1.21945C30.5932 1.51846 30.9344 1.73791 31.315 1.85343C31.6957 1.96894 32.1006 1.97589 32.485 1.87362C32.8693 1.77135 33.2179 1.56376 33.4919 1.27407C33.8635 1.44221 34.1717 1.72572 34.3712 2.08296C34.5706 2.4402 34.6509 2.85238 34.6002 3.25888C34.8397 3.02765 35.1403 2.87051 35.4661 2.80619C35.9463 2.72063 36.4409 2.82016 36.8514 3.08482C37.2616 3.35865 37.5479 3.78415 37.6481 4.26881C37.5174 4.55234 37.4968 4.8747 37.5903 5.1727C37.6837 5.4707 37.8845 5.72267 38.1533 5.87957C38.4221 6.03647 38.7395 6.08681 39.0433 6.02069C39.3471 5.95457 39.6153 5.77692 39.7954 5.52231C40.0824 5.81582 40.2677 6.1945 40.3238 6.60217C40.3799 7.00984 40.304 7.42467 40.1071 7.78553C40.4137 7.68031 40.7426 7.65871 41.0603 7.72262C41.378 7.78654 41.6732 7.93385 41.9159 8.14959C42.1587 8.36533 42.3402 8.64168 42.4423 8.95083C42.5443 9.25997 42.5632 9.59091 42.4969 9.90975C42.4291 10.2185 42.2864 10.5056 42.0813 10.7454C42.4856 10.6933 42.8957 10.7779 43.2469 10.986C43.598 11.1941 43.8704 11.5137 44.0209 11.8946C44.1234 12.1184 44.1766 12.3618 44.1766 12.6082C44.1766 12.8547 44.1234 13.0983 44.0209 13.3221C43.925 13.3169 43.8293 13.3352 43.7422 13.3757C43.655 13.4161 43.5789 13.4775 43.5207 13.5542C43.4625 13.6309 43.4238 13.7208 43.408 13.816C43.3923 13.9112 43.3999 14.0088 43.4302 14.1004C43.4606 14.192 43.5128 14.2748 43.5822 14.3414C43.6517 14.4081 43.7362 14.4565 43.8286 14.4827C43.921 14.509 44.0184 14.5123 44.1123 14.4921C44.2062 14.4719 44.2937 14.4287 44.3672 14.3667C44.7568 14.6543 45.0279 15.0756 45.1292 15.5507C45.1809 15.7895 45.1828 16.0364 45.1351 16.2761C45.0875 16.5157 44.9911 16.7429 44.8521 16.9434C44.6846 17.2226 44.4454 17.4512 44.1594 17.605C44.5035 17.7461 44.7979 17.9871 45.0052 18.2972C45.2125 18.6073 45.3233 18.9724 45.3233 19.346C45.3233 19.7196 45.2125 20.0848 45.0052 20.3949C44.7979 20.705 44.5035 20.946 44.1594 21.0871C44.444 21.2269 44.6839 21.444 44.8521 21.7138C44.9893 21.9152 45.0846 22.1424 45.1322 22.3818C45.1798 22.6211 45.1788 22.8678 45.1292 23.1067C45.0279 23.5818 44.7568 24.0032 44.3672 24.2907C44.0839 24.4667 43.7637 24.5738 43.432 24.604C43.7111 24.7826 43.9193 25.0537 44.0209 25.3702C44.1228 25.588 44.1756 25.8256 44.1756 26.0664C44.1756 26.3072 44.1228 26.545 44.0209 26.7629C43.936 26.9941 43.8022 27.2042 43.6288 27.3786C43.4555 27.5529 43.2465 27.6874 43.0164 27.7728C42.7106 27.859 42.3871 27.859 42.0813 27.7728C42.4993 28.0498 42.7906 28.4825 42.8913 28.9755C42.992 29.4685 42.8937 29.9814 42.6182 30.4016C42.3426 30.8218 41.9123 31.1148 41.4219 31.216C40.9315 31.3172 40.4212 31.2184 40.0032 30.9414C39.6019 30.9797 39.2136 31.1044 38.8646 31.3072C38.5155 31.5099 38.2141 31.786 37.9807 32.1165C37.7474 32.4469 37.5876 32.8239 37.5123 33.222C37.4369 33.6201 37.4478 34.03 37.5442 34.4235C37.444 34.9081 37.1577 35.3336 36.7475 35.6075C36.5472 35.7454 36.3212 35.841 36.0831 35.8888C35.8451 35.9367 35.5998 35.9357 35.3622 35.8859C35.0442 35.819 34.7471 35.6757 34.4963 35.468C34.5639 35.7777 34.5639 36.0986 34.4963 36.4083C34.295 36.8566 33.9378 37.2156 33.4919 37.418C33.0343 37.5918 32.5294 37.5918 32.0718 37.418C31.7691 37.2939 31.5057 37.0893 31.3099 36.8261C31.2804 37.2348 31.1191 37.6226 30.8503 37.9306C30.5815 38.2386 30.2198 38.4499 29.8206 38.5323C29.4218 38.6113 29.0082 38.555 28.6446 38.3722C28.281 38.1895 27.9882 37.8907 27.8118 37.5226C27.6857 37.8831 27.4514 38.1953 27.1412 38.4162C26.831 38.6372 26.4602 38.7559 26.0801 38.7559C25.6999 38.7559 25.3291 38.6372 25.0189 38.4162C24.7087 38.1953 24.4744 37.8831 24.3483 37.5226L24.2098 37.6966ZM27.8464 33.9011L28.4699 37.0699C28.4907 37.1988 28.537 37.3223 28.6062 37.4329C28.6754 37.5435 28.766 37.6389 28.8726 37.7136C28.9792 37.7883 29.0996 37.8407 29.2268 37.8677C29.3539 37.8947 29.4852 37.8957 29.6128 37.8707C29.7425 37.8456 29.8659 37.7952 29.9762 37.7221C30.0864 37.649 30.1813 37.5547 30.2553 37.4448C30.3293 37.3348 30.381 37.2114 30.4074 37.0813C30.4339 36.9513 30.4346 36.8172 30.4094 36.6869L29.7859 33.5181C29.7703 33.4678 29.7652 33.4149 29.7708 33.3625C29.7764 33.3101 29.7928 33.2593 29.8188 33.2135C29.8448 33.1678 29.8799 33.1279 29.922 33.0964C29.964 33.0649 30.012 33.0425 30.0631 33.0305C30.1642 32.9963 30.2746 33.0026 30.3713 33.048C30.468 33.0934 30.5437 33.1744 30.5826 33.2743L31.8295 36.2691C31.9359 36.5046 32.1281 36.69 32.3665 36.7872C32.605 36.8844 32.8714 36.8858 33.1109 36.7912C33.3565 36.6968 33.5555 36.5094 33.6651 36.2691C33.7166 36.148 33.743 36.0175 33.743 35.8859C33.743 35.7542 33.7166 35.624 33.6651 35.5029L32.4182 32.5084C32.38 32.4059 32.3801 32.2931 32.4183 32.1906C32.4565 32.0882 32.5303 32.0031 32.626 31.9511C32.7051 31.889 32.8027 31.8553 32.9031 31.8553C33.0035 31.8553 33.101 31.889 33.1802 31.9511L34.9811 34.6324C35.0437 34.7485 35.1309 34.8495 35.2364 34.9282C35.3419 35.0069 35.4632 35.0615 35.592 35.088C35.7207 35.1146 35.8536 35.1125 35.9815 35.0819C36.1093 35.0513 36.2289 34.993 36.3319 34.911C36.447 34.8488 36.5452 34.7591 36.6176 34.6498C36.6901 34.5405 36.7347 34.415 36.7475 34.2843C36.7981 34.1691 36.8243 34.0444 36.8243 33.9185C36.8243 33.7926 36.7981 33.6681 36.7475 33.5529L34.9466 30.8368C34.8784 30.7602 34.8407 30.6612 34.8407 30.5584C34.8407 30.4556 34.8784 30.3564 34.9466 30.2798C34.9822 30.2418 35.0251 30.2116 35.0728 30.1909C35.1204 30.1703 35.1717 30.1597 35.2236 30.1597C35.2755 30.1597 35.3269 30.1703 35.3745 30.1909C35.4222 30.2116 35.4651 30.2418 35.5007 30.2798L37.7865 32.5432C37.8773 32.6413 37.9873 32.7195 38.1095 32.773C38.2316 32.8264 38.3634 32.8539 38.4966 32.8539C38.6299 32.8539 38.7616 32.8264 38.8838 32.773C39.0059 32.7195 39.1158 32.6413 39.2066 32.5432C39.2987 32.4524 39.372 32.344 39.422 32.2244C39.472 32.1048 39.4977 31.9765 39.4977 31.8468C39.4977 31.7171 39.472 31.5887 39.422 31.4691C39.372 31.3495 39.2987 31.2411 39.2066 31.1503L36.9207 28.8522C36.8829 28.8164 36.853 28.7733 36.8324 28.7254C36.8119 28.6775 36.8012 28.6258 36.8012 28.5736C36.8012 28.5214 36.8119 28.4698 36.8324 28.4219C36.853 28.374 36.8829 28.3308 36.9207 28.295C37.0052 28.23 37.1087 28.1949 37.2151 28.1949C37.3216 28.1949 37.425 28.23 37.5095 28.295L40.1764 30.1057C40.3972 30.2521 40.6667 30.305 40.9261 30.2528C41.1855 30.2006 41.4139 30.0476 41.5618 29.8271C41.649 29.5793 41.649 29.309 41.5618 29.0611C41.4905 28.8143 41.3453 28.5955 41.1461 28.4344L38.4446 26.6585C38.38 26.5735 38.3451 26.4694 38.3451 26.3625C38.3451 26.2555 38.38 26.1514 38.4446 26.0664C38.5238 26.0043 38.6213 25.9706 38.7218 25.9706C38.8222 25.9706 38.9196 26.0043 38.9988 26.0664L41.9774 27.2853C42.0979 27.337 42.2274 27.3637 42.3584 27.3637C42.4893 27.3637 42.619 27.337 42.7394 27.2853C42.8588 27.2418 42.9671 27.1726 43.0569 27.0823C43.1467 26.992 43.2157 26.8829 43.2589 26.7629C43.3104 26.6418 43.3369 26.5115 43.3369 26.3799C43.3369 26.2482 43.3104 26.118 43.2589 25.9969C43.2157 25.8769 43.1467 25.7677 43.0569 25.6775C42.9671 25.5872 42.8588 25.518 42.7394 25.4745L39.7608 24.221C39.6614 24.1819 39.5808 24.1057 39.5356 24.0085C39.4905 23.9113 39.4843 23.8003 39.5183 23.6986C39.5499 23.5976 39.6157 23.511 39.7043 23.4538C39.7929 23.3965 39.8987 23.3723 40.0032 23.3854L43.155 24.047C43.3991 24.1476 43.6728 24.1476 43.917 24.047C44.0269 23.9786 44.1209 23.8871 44.1926 23.779C44.2644 23.6708 44.3121 23.5486 44.3326 23.4202C44.4172 23.1839 44.4172 22.9252 44.3326 22.6889C44.1791 22.4587 43.9435 22.2966 43.6745 22.2362L40.5227 21.6095C40.4125 21.6095 40.3068 21.5654 40.2289 21.487C40.1509 21.4087 40.1071 21.3025 40.1071 21.1916C40.1071 21.0808 40.1509 20.9746 40.2289 20.8962C40.3068 20.8179 40.4125 20.7738 40.5227 20.7738L43.7437 20.7738C44.0041 20.7648 44.2508 20.6543 44.4317 20.4658C44.6127 20.2774 44.7137 20.0258 44.7135 19.7639C44.7135 19.5053 44.6114 19.2573 44.4295 19.0744C44.2476 18.8916 44.0009 18.789 43.7437 18.789L40.5227 18.789C40.4286 18.762 40.3458 18.7049 40.2869 18.6264C40.228 18.5479 40.1961 18.4521 40.1961 18.3537C40.1961 18.2554 40.228 18.1596 40.2869 18.0811C40.3458 18.0025 40.4286 17.9455 40.5227 17.9185L43.6745 17.2917C43.9336 17.229 44.1649 17.0821 44.3326 16.8739C44.417 16.6256 44.417 16.356 44.3326 16.1077C44.3081 15.9808 44.2588 15.86 44.1875 15.7524C44.1161 15.6448 44.0241 15.5525 43.917 15.481C43.6728 15.3804 43.3991 15.3804 43.155 15.481L40.0032 16.1077C39.8987 16.1208 39.7929 16.0966 39.7043 16.0393C39.6157 15.982 39.5499 15.8955 39.5183 15.7945C39.4843 15.6928 39.4905 15.5816 39.5356 15.4844C39.5808 15.3871 39.6614 15.3112 39.7608 15.2721L42.7394 14.0534C42.9784 13.9433 43.1649 13.7431 43.2589 13.4962C43.3104 13.3751 43.3369 13.2449 43.3369 13.1132C43.3369 12.9815 43.3104 12.8513 43.2589 12.7302C43.2097 12.6106 43.1373 12.502 43.046 12.4108C42.9547 12.3196 42.8463 12.2477 42.727 12.1991C42.6078 12.1505 42.48 12.1262 42.3513 12.1277C42.2226 12.1292 42.0955 12.1564 41.9774 12.2078L38.9988 13.4265C38.9008 13.4678 38.7915 13.4732 38.69 13.4413C38.5886 13.4095 38.5017 13.3425 38.4446 13.2524C38.3765 13.1758 38.3388 13.0768 38.3388 12.974C38.3388 12.8712 38.3765 12.772 38.4446 12.6954L41.1461 10.8846C41.3528 10.7305 41.4999 10.509 41.5618 10.2579C41.6463 10.0096 41.6463 9.74022 41.5618 9.49192C41.4084 9.27845 41.1803 9.13106 40.9234 9.07941C40.6665 9.02775 40.3997 9.07559 40.1764 9.2133L37.5095 11.024C37.4709 11.063 37.4251 11.0937 37.3745 11.1148C37.324 11.1359 37.2699 11.1469 37.2151 11.1469C37.1604 11.1469 37.1063 11.1359 37.0558 11.1148C37.0052 11.0937 36.9593 11.063 36.9207 11.024C36.8561 10.939 36.8211 10.835 36.8211 10.728C36.8211 10.621 36.8561 10.5169 36.9207 10.4319L39.2066 8.13386C39.2987 8.04309 39.372 7.93465 39.422 7.81507C39.472 7.69549 39.4977 7.56712 39.4977 7.43741C39.4977 7.3077 39.472 7.17933 39.422 7.05974C39.372 6.94016 39.2987 6.83173 39.2066 6.74095C39.0141 6.5598 38.7603 6.45914 38.4966 6.45914C38.2329 6.45914 37.9791 6.5598 37.7865 6.74095L35.5007 9.03924C35.4245 9.10776 35.3258 9.1455 35.2236 9.1455C35.1214 9.1455 35.0228 9.10776 34.9466 9.03924C34.8784 8.96263 34.8407 8.86339 34.8407 8.76061C34.8407 8.65783 34.8784 8.55859 34.9466 8.48199L36.7475 5.80093C36.8476 5.5555 36.8476 5.28021 36.7475 5.03477C36.7294 4.90567 36.6826 4.78238 36.6107 4.6739C36.5387 4.56541 36.4435 4.47453 36.3319 4.40802C36.2174 4.35717 36.0935 4.33088 35.9682 4.33088C35.843 4.33088 35.7192 4.35717 35.6046 4.40802C35.4746 4.42093 35.3497 4.46586 35.2409 4.53873C35.1322 4.6116 35.043 4.71014 34.9811 4.82586L33.1802 7.50712C33.101 7.56924 33.0035 7.60297 32.9031 7.60297C32.8027 7.60297 32.7051 7.56924 32.626 7.50712C32.5329 7.46169 32.46 7.3829 32.4216 7.2863C32.3831 7.1897 32.3819 7.08217 32.4182 6.98472L33.6651 3.99019C33.7159 3.86681 33.7417 3.73457 33.7413 3.60105C33.7409 3.46753 33.7142 3.33539 33.6627 3.21233C33.6111 3.08928 33.5358 2.97759 33.4411 2.88398C33.3464 2.79037 33.2342 2.7167 33.1109 2.66698C32.9907 2.61652 32.8615 2.59092 32.7312 2.59175C32.6008 2.59258 32.4721 2.61987 32.3525 2.67188C32.2328 2.72388 32.1248 2.7995 32.0349 2.89439C31.9451 2.98928 31.8753 3.10136 31.8295 3.22403L30.5826 6.21877C30.5437 6.31869 30.468 6.39973 30.3713 6.44511C30.2746 6.49049 30.1642 6.49653 30.0631 6.46233C30.012 6.45036 29.964 6.42814 29.922 6.39665C29.8799 6.36517 29.8448 6.3251 29.8188 6.27934C29.7928 6.23358 29.7764 6.18296 29.7708 6.13057C29.7652 6.07817 29.7703 6.02529 29.7859 5.97499L30.4094 2.77134C30.4129 2.53479 30.3335 2.30458 30.1853 2.12079C30.0372 1.93699 29.8296 1.81146 29.5987 1.76587C29.3678 1.72026 29.1283 1.75748 28.922 1.87128C28.7156 1.98507 28.5557 2.16807 28.4699 2.38836L27.8464 5.55716C27.838 5.61238 27.8187 5.66536 27.7896 5.71295C27.7605 5.76054 27.7224 5.80163 27.6772 5.83409C27.632 5.86655 27.5806 5.88967 27.5264 5.90189C27.4722 5.91411 27.4162 5.91523 27.3615 5.90529C27.2574 5.89653 27.1604 5.84861 27.0898 5.77118C27.0192 5.69375 26.9801 5.5925 26.9805 5.48746L26.9805 2.24915C27.0078 2.10329 27.0028 1.95313 26.9658 1.80943C26.9288 1.66574 26.8608 1.53199 26.7666 1.41774C26.6723 1.3035 26.5542 1.21158 26.4205 1.14847C26.2869 1.08535 26.141 1.05262 25.9934 1.05262C25.8458 1.05262 25.7 1.08535 25.5664 1.14847C25.4328 1.21158 25.3146 1.3035 25.2203 1.41774C25.1261 1.53199 25.0581 1.66574 25.0211 1.80943C24.9841 1.95313 24.9791 2.10329 25.0064 2.24915L25.0064 5.48746C25.0068 5.5925 24.9677 5.69375 24.8971 5.77118C24.8265 5.84861 24.7295 5.89653 24.6254 5.90529C24.5707 5.91523 24.5146 5.91411 24.4604 5.90189C24.4062 5.88967 24.355 5.86655 24.3098 5.83409C24.2646 5.80163 24.2263 5.76054 24.1972 5.71295C24.1681 5.66536 24.1489 5.61238 24.1405 5.55716L23.517 2.38836C23.4925 2.25888 23.4421 2.13578 23.3689 2.02642C23.2958 1.91707 23.2013 1.82387 23.0913 1.75226C22.9812 1.68066 22.8578 1.63218 22.7286 1.60987C22.5994 1.58756 22.467 1.59184 22.3395 1.62241C22.2125 1.64508 22.0916 1.69374 21.9843 1.76565C21.877 1.83756 21.7857 1.93114 21.7161 2.04024C21.6314 2.27656 21.6314 2.53502 21.7161 2.77134L22.3395 5.97499C22.3617 6.07634 22.3458 6.18242 22.2945 6.27254C22.2433 6.36265 22.1606 6.43018 22.0624 6.46233C21.9613 6.49653 21.8508 6.49049 21.7541 6.44511C21.6574 6.39973 21.5818 6.31869 21.5429 6.21877L20.296 3.22403C20.2021 2.9771 20.0156 2.77716 19.7765 2.66698C19.6561 2.61527 19.5264 2.58856 19.3955 2.58856C19.2645 2.58856 19.135 2.61527 19.0145 2.66698C18.7666 2.77586 18.5687 2.97475 18.4604 3.22403C18.4089 3.3451 18.3824 3.47556 18.3824 3.60721C18.3824 3.73887 18.4089 3.86912 18.4604 3.99019L19.7073 6.98472C19.7435 7.08216 19.7423 7.1897 19.7039 7.2863C19.6655 7.3829 19.5925 7.46169 19.4994 7.50712C19.4202 7.56924 19.3228 7.60297 19.2223 7.60297C19.1219 7.60297 19.0245 7.56924 18.9453 7.50712L17.1442 4.82586C17.0742 4.71785 16.9836 4.62489 16.8776 4.55233C16.7716 4.47977 16.6524 4.42904 16.5268 4.40313C16.4011 4.37723 16.2716 4.37669 16.1457 4.40143C16.0199 4.42617 15.9002 4.47566 15.7935 4.54723C15.6771 4.61382 15.5762 4.70477 15.4978 4.81395C15.4194 4.92314 15.3651 5.04807 15.3388 5.18014C15.3126 5.31221 15.3148 5.44836 15.3455 5.57948C15.3761 5.7106 15.4344 5.83365 15.5164 5.94014L17.2828 8.6214C17.3205 8.65721 17.3506 8.70038 17.3712 8.74829C17.3917 8.79619 17.4022 8.84765 17.4022 8.89982C17.4022 8.95198 17.3917 9.00366 17.3712 9.05156C17.3506 9.09946 17.3205 9.14264 17.2828 9.17844C17.1983 9.24339 17.0948 9.27854 16.9884 9.27854C16.882 9.27854 16.7785 9.24339 16.694 9.17844L14.4427 6.88037C14.2502 6.69922 13.9964 6.59834 13.7328 6.59834C13.4691 6.59834 13.2152 6.69922 13.0227 6.88037C12.8448 7.06813 12.7457 7.31732 12.7457 7.57661C12.7457 7.83591 12.8448 8.08531 13.0227 8.27307L15.3086 10.5714C15.3732 10.6564 15.4082 10.7602 15.4082 10.8672C15.4082 10.9742 15.3732 11.0782 15.3086 11.1632C15.27 11.2022 15.2241 11.2331 15.1736 11.2542C15.1231 11.2753 15.0689 11.2861 15.0142 11.2861C14.9595 11.2861 14.9054 11.2753 14.8548 11.2542C14.8043 11.2331 14.7585 11.2022 14.7199 11.1632L12.0529 9.3525C11.8064 9.26488 11.5375 9.26488 11.2909 9.3525C11.0412 9.4148 10.8208 9.56251 10.6675 9.77034C10.522 9.9924 10.4695 10.2632 10.5214 10.524C10.5732 10.7847 10.7253 11.0145 10.9446 11.1632L13.6115 12.974C13.691 13.0334 13.7468 13.1192 13.7688 13.2163C13.7909 13.3133 13.7777 13.415 13.7318 13.5032C13.6859 13.5914 13.6101 13.6602 13.5182 13.6972C13.4263 13.7343 13.3243 13.737 13.2305 13.7051L10.2519 12.4865C10.1315 12.4347 10.0019 12.408 9.87091 12.408C9.73995 12.408 9.6104 12.4347 9.48998 12.4865C9.24437 12.5809 9.0454 12.7683 8.93581 13.0086C8.86639 13.2592 8.86639 13.5242 8.93581 13.7748C9.04411 14.0241 9.24203 14.223 9.48998 14.3318L12.4685 15.5507C12.5679 15.5898 12.6485 15.6658 12.6937 15.763C12.7388 15.8602 12.745 15.9712 12.711 16.0729C12.6794 16.1739 12.6136 16.2607 12.525 16.3179C12.4364 16.3752 12.3307 16.3994 12.2262 16.3864L9.07438 15.7596C8.94685 15.729 8.81441 15.7248 8.6852 15.7471C8.55599 15.7694 8.43262 15.8179 8.32255 15.8895C8.21248 15.9611 8.11808 16.0543 8.04489 16.1636C7.9717 16.273 7.92132 16.3961 7.89681 16.5256C7.8451 16.7838 7.89577 17.0523 8.03812 17.2735C8.18048 17.4946 8.40325 17.6511 8.65878 17.7096L11.8451 18.3363C11.9392 18.3633 12.022 18.4204 12.0809 18.4989C12.1399 18.5774 12.1717 18.6732 12.1717 18.7716C12.1717 18.8699 12.1399 18.9657 12.0809 19.0442C12.022 19.1228 11.9392 19.1798 11.8451 19.2068L8.62411 19.2068C8.49545 19.2019 8.36715 19.2237 8.2473 19.271C8.12744 19.3183 8.0186 19.3899 7.92756 19.4814C7.83652 19.5729 7.7653 19.6825 7.71828 19.803C7.67127 19.9235 7.64948 20.0523 7.65434 20.1817C7.64968 20.3126 7.67132 20.4432 7.71797 20.5655C7.76461 20.6879 7.83535 20.7996 7.92587 20.8939C8.01639 20.9881 8.12479 21.0631 8.24476 21.1143C8.36473 21.1654 8.49379 21.1917 8.62411 21.1916L11.8451 21.1916C11.9553 21.1916 12.0611 21.2357 12.1391 21.314C12.217 21.3924 12.2607 21.4986 12.2607 21.6095C12.2607 21.7203 12.217 21.8265 12.1391 21.9049C12.0611 21.9832 11.9553 22.0273 11.8451 22.0273L8.65878 22.654C8.40325 22.7125 8.18048 22.869 8.03812 23.0902C7.89577 23.3113 7.8451 23.5798 7.89681 23.838C7.91727 23.9664 7.96493 24.0886 8.03664 24.1968C8.10836 24.3049 8.20244 24.3964 8.31241 24.4648C8.43283 24.5165 8.56238 24.5432 8.69334 24.5432C8.82429 24.5432 8.95395 24.5165 9.07438 24.4648L12.2262 23.8032C12.3307 23.7902 12.4364 23.8144 12.525 23.8716C12.6136 23.9289 12.6794 24.0154 12.711 24.1165C12.6357 24.1344 12.5569 24.1311 12.4834 24.1065C12.41 24.0819 12.3449 24.0371 12.2954 23.9772L9.31685 25.2307C9.1922 25.272 9.07793 25.3401 8.98221 25.4303C8.88649 25.5205 8.81162 25.6307 8.76268 25.7531C8.69326 26.0037 8.69326 26.2685 8.76268 26.5191C8.81152 26.643 8.8851 26.7558 8.97893 26.85C9.07276 26.9442 9.18483 27.018 9.30818 27.067C9.43153 27.1159 9.56354 27.139 9.69609 27.1346C9.82863 27.1302 9.95882 27.0985 10.0787 27.0415L13.0574 25.8228C13.1279 25.7568 13.2208 25.72 13.3172 25.72C13.4136 25.72 13.5063 25.7568 13.5769 25.8228C13.6475 25.9051 13.6865 26.01 13.6865 26.1187C13.6865 26.2274 13.6475 26.3325 13.5769 26.4147L10.91 28.1906C10.6907 28.3393 10.5386 28.5689 10.4867 28.8297C10.4348 29.0905 10.4873 29.3613 10.6329 29.5833C10.7808 29.8038 11.0093 29.9569 11.2686 30.009C11.528 30.0612 11.7975 30.0083 12.0184 29.862L14.6852 28.0512C14.7697 27.9863 14.8732 27.9511 14.9796 27.9511C15.086 27.9511 15.1894 27.9863 15.2739 28.0512C15.3421 28.1278 15.3798 28.2271 15.3798 28.3298C15.3798 28.4326 15.3421 28.5319 15.2739 28.6085L12.9881 30.9065C12.8132 31.0962 12.7144 31.3444 12.711 31.603C12.7092 31.7317 12.7327 31.8594 12.7802 31.979C12.8278 32.0985 12.8985 32.2075 12.9881 32.2994C13.1806 32.4806 13.4344 32.5813 13.6981 32.5813C13.9618 32.5813 14.2155 32.4806 14.4081 32.2994L16.6594 30.036C16.698 29.9971 16.7439 29.9661 16.7944 29.9451C16.8449 29.924 16.8991 29.9132 16.9538 29.9132C17.0085 29.9132 17.0626 29.924 17.1132 29.9451C17.1637 29.9661 17.2095 29.9971 17.2481 30.036C17.2859 30.0718 17.316 30.115 17.3365 30.1629C17.357 30.2108 17.3677 30.2625 17.3677 30.3146C17.3677 30.3668 17.357 30.4185 17.3365 30.4664C17.316 30.5143 17.2859 30.5575 17.2481 30.5933L15.4818 33.3092C15.3395 33.5262 15.2887 33.7911 15.3406 34.0458C15.3926 34.3005 15.543 34.5241 15.7589 34.6672C15.9747 34.8104 16.2383 34.8614 16.4917 34.8092C16.745 34.757 16.9673 34.6056 17.1097 34.3886L18.9106 31.7073C18.9898 31.6452 19.0873 31.6115 19.1877 31.6115C19.2881 31.6115 19.3857 31.6452 19.4648 31.7073C19.5606 31.7593 19.6343 31.8444 19.6725 31.9469C19.7107 32.0493 19.7108 32.1622 19.6726 32.2646L18.4257 35.2591C18.3743 35.3802 18.3478 35.5104 18.3478 35.6421C18.3478 35.7738 18.3743 35.9042 18.4257 36.0253C18.5353 36.2656 18.7343 36.453 18.9799 36.5475C19.1003 36.5992 19.23 36.6259 19.3609 36.6259C19.4919 36.6259 19.6214 36.5992 19.7418 36.5475C19.9765 36.4486 20.163 36.2612 20.2613 36.0253L21.5083 33.0305C21.5472 32.9306 21.6228 32.8496 21.7195 32.8042C21.8163 32.7588 21.9266 32.7528 22.0278 32.787C22.1259 32.8191 22.2087 32.8867 22.2599 32.9768C22.3111 33.0669 22.3272 33.173 22.3049 33.2743L21.6814 36.4431C21.5969 36.6914 21.5969 36.9608 21.6814 37.2091C21.8417 37.4093 22.0594 37.5552 22.3049 37.6269C22.4253 37.6786 22.5549 37.7053 22.6858 37.7053C22.8168 37.7053 22.9463 37.6786 23.0668 37.6269C23.1767 37.5586 23.2708 37.4673 23.3425 37.3591C23.4142 37.251 23.462 37.1285 23.4825 37.0002L24.1059 33.8316C24.1306 33.7241 24.1935 33.6294 24.2828 33.5653C24.3721 33.5012 24.4816 33.4719 24.5907 33.4832C24.692 33.4989 24.785 33.5488 24.8543 33.6248C24.9236 33.7008 24.965 33.7982 24.9717 33.9011L24.9717 37.1396C24.9444 37.2854 24.9494 37.4354 24.9864 37.5791C25.0234 37.7228 25.0914 37.8565 25.1857 37.9708C25.2799 38.085 25.3981 38.1769 25.5317 38.2401C25.6653 38.3032 25.8112 38.3359 25.9588 38.3359C26.1065 38.3359 26.2522 38.3032 26.3859 38.2401C26.5195 38.1769 26.6377 38.085 26.7319 37.9708C26.8262 37.8565 26.8942 37.7228 26.9311 37.5791C26.9681 37.4354 26.9732 37.2854 26.9459 37.1396L26.9459 33.9011C26.9526 33.7982 26.994 33.7008 27.0633 33.6248C27.1325 33.5488 27.2255 33.4989 27.3269 33.4832C27.4501 33.4731 27.5725 33.5108 27.6691 33.5884C27.7657 33.6661 27.8291 33.7779 27.8464 33.9011Z" fill="#531036"/>
<path d="M13.9574 23.2108C13.3203 19.493 13.7281 15.67 15.1349 12.1725C19.1872 14.5403 20.3647 21.6439 20.3647 21.6439C21.4038 11.1976 26.4258 7.36726 27.2917 6.74049C28.2615 7.36726 33.3181 11.0932 34.2186 21.6439C34.2186 21.6439 35.3616 14.6796 39.4485 12.1725C40.833 15.676 41.2286 19.4958 40.5915 23.2108C40.5915 23.2108 42.6349 14.3662 53.6488 16.9081C52.331 17.5236 51.1801 18.4497 50.2938 19.6074C49.4075 20.7652 48.8119 22.1206 48.5575 23.559C46.4448 31.9159 40.1066 36.7907 27.4302 36.9648L26.6683 36.9648C13.9573 36.7907 7.65382 31.9159 5.50646 23.559C5.26109 22.122 4.67285 20.7664 3.79216 19.608C2.91148 18.4497 1.76452 17.5232 0.449707 16.9081C11.9485 14.3662 13.9574 23.2108 13.9574 23.2108Z" fill="#873B6E"/>
<path d="M10.0786 31.5692C7.94668 29.3523 6.45075 26.5972 5.74928 23.5953C5.52232 22.1841 4.95993 20.8488 4.10971 19.7031C3.25949 18.5573 2.14668 17.6349 0.86587 17.0141L2.43372e-07 16.7007L0.86587 16.5266C8.79724 14.6811 12.1914 18.7204 13.5076 21.2275C13.2378 18.0508 13.7123 14.8547 14.8929 11.8956L14.8929 11.6518L15.1354 11.6518C17.7428 13.6695 19.5186 16.5829 20.1228 19.8346C20.2754 17.2114 20.9702 14.6489 22.1629 12.3107C23.3555 9.97248 25.0199 7.90984 27.0498 6.25445L27.2229 6.25445L27.4654 6.25445C29.4952 7.90984 31.1596 9.97248 32.3523 12.3107C33.5449 14.6489 34.2397 17.2114 34.3923 19.8346C35.0207 16.5837 36.8061 13.6746 39.4143 11.6518L39.6568 11.6518L39.6568 11.8956C40.8792 14.8435 41.3667 18.047 41.0768 21.2275C42.3583 18.7204 45.7526 14.6811 53.6839 16.5266L54.5498 16.7007L53.7185 17.0141C52.4482 17.6173 51.3394 18.5164 50.4841 19.6368C49.6287 20.7571 49.0515 22.0663 48.8004 23.4559C46.5492 32.4048 39.6222 36.862 27.6732 37.1058L26.4263 37.1058C20.4772 37.4017 14.637 35.4237 10.0786 31.5692ZM3.49804 18.3374C4.84642 19.7875 5.80072 21.5622 6.26889 23.4907C8.48552 32.2307 15.3086 36.5485 27.0498 36.7226L27.2921 36.7226L27.7771 36.7226C39.6222 36.7226 46.4452 32.2307 48.558 23.4907C48.8229 22.1525 49.3594 20.8836 50.1341 19.7632C50.9088 18.6428 51.905 17.6951 53.0604 16.9793C43.0856 15.099 41.1807 22.9336 41.0768 23.2818L40.592 23.2818C41.1721 19.6997 40.8139 16.0274 39.5529 12.6267C36.9644 15.049 35.2574 18.2731 34.704 21.7846L34.3923 23.6997L34.2191 21.7846C33.1801 11.5473 28.4005 7.85638 27.2921 7.09033C26.2185 7.82156 21.4042 11.5473 20.3652 21.7846L20.1574 23.6997L19.8457 21.7846C19.3079 18.2679 17.5983 15.0389 14.9968 12.6267C13.7475 16.0305 13.4013 19.7027 13.9924 23.2818L13.4729 23.2818C13.4729 22.9336 11.4641 15.099 1.48927 16.9793C2.21537 17.3412 2.89076 17.7978 3.49804 18.3374Z" fill="#541136"/>
<path d="M40.8689 31.3936C40.4186 31.7766 39.8991 32.1248 39.4142 32.473C38.9293 32.8212 38.3752 33.1347 37.8557 33.4133C36.7424 34.0038 35.5843 34.5044 34.3922 34.9105C29.8143 36.3501 24.9084 36.3501 20.3305 34.9105C19.1384 34.5044 17.9802 34.0038 16.867 33.4133C16.359 33.1347 15.8394 32.8212 15.3084 32.473C14.8235 32.1248 14.304 31.7766 13.8538 31.3936C11.9601 29.8532 10.3635 27.9766 9.14339 25.857C8.26684 24.3097 7.61378 22.6449 7.20385 20.9125C7.20129 20.8467 7.21948 20.7817 7.25575 20.7268C7.29202 20.6719 7.34448 20.63 7.40584 20.6069C7.4672 20.5838 7.53425 20.5806 7.59747 20.598C7.66068 20.6154 7.71689 20.6523 7.75802 20.7036C8.55595 22.1907 9.47095 23.6114 10.4942 24.9519C11.8325 26.7551 13.3919 28.3811 15.1353 29.7918C16.0044 30.5005 16.9183 31.1518 17.8713 31.7417C18.3216 32.0551 18.8065 32.3337 19.2914 32.6122L20.0533 33.0301L20.8153 33.4133C22.8901 34.4183 25.0309 35.2792 27.2228 35.99C29.4146 35.2792 31.5554 34.4183 33.6302 33.4133L34.3922 33.0301L35.1542 32.6122C35.639 32.3337 36.1239 32.0551 36.6088 31.7417C37.5449 31.1432 38.4469 30.4922 39.3103 29.7918C41.0536 28.3811 42.6131 26.7551 43.9514 24.9519C44.9866 23.6199 45.9022 22.1982 46.6875 20.7036C46.7286 20.6523 46.7848 20.6154 46.8481 20.598C46.9113 20.5806 46.9783 20.5838 47.0397 20.6069C47.101 20.63 47.1536 20.6719 47.1899 20.7268C47.2261 20.7817 47.2442 20.8467 47.2417 20.9125C46.8317 22.6449 46.1787 24.3097 45.3021 25.857C44.1646 27.9536 42.6632 29.8287 40.8689 31.3936Z" fill="#F8CA95"/>
<path d="M12.2953 30.2099C11.0312 28.9506 9.94719 27.521 9.07428 25.9619C8.16118 24.4037 7.49511 22.712 7.10007 20.9477C7.06735 20.8185 7.08493 20.6817 7.14933 20.5651C7.21372 20.4486 7.32006 20.3612 7.44644 20.3209C7.56659 20.2716 7.70072 20.2692 7.82251 20.3143C7.9443 20.3595 8.04493 20.4488 8.10451 20.5647C8.90602 22.0497 9.82073 23.4699 10.8406 24.8127C12.1685 26.5929 13.7165 28.196 15.4471 29.5831C16.2877 30.2975 17.1789 30.9492 18.1139 31.5331C18.3986 31.733 18.6999 31.9078 19.0145 32.0555C19.1912 32.184 19.3763 32.3002 19.5686 32.4036L20.2959 32.7868C20.5391 32.9351 20.794 33.0631 21.0579 33.1698C23.1095 34.1364 25.2141 34.985 27.3615 35.7116C29.511 34.9911 31.616 34.1424 33.665 33.1698C33.9289 33.0631 34.1838 32.9351 34.427 32.7868L35.1543 32.4036C35.3466 32.3002 35.5317 32.184 35.7085 32.0555C36.0089 31.9021 36.2983 31.7274 36.5743 31.5331C37.5261 30.9581 38.4296 30.306 39.2758 29.5831C41.009 28.1875 42.5674 26.5856 43.9169 24.8127C45.0235 23.4484 46.0305 22.0054 46.9301 20.495C46.9961 20.3764 47.103 20.2861 47.2306 20.2412C47.3582 20.1963 47.4977 20.1999 47.6228 20.2512C47.7408 20.3032 47.8386 20.3926 47.9011 20.5058C47.9637 20.619 47.9875 20.7498 47.9691 20.878C47.5446 22.6384 46.868 24.3274 45.9603 25.8922C44.7463 28.0463 43.1361 29.9487 41.2154 31.4982C40.8167 31.8337 40.4004 32.1476 39.9685 32.4385L39.4836 32.7868C39.0334 33.0654 38.6177 33.3439 38.1328 33.5876C37.0253 34.19 35.8661 34.6911 34.6693 35.0849C32.4396 35.8438 30.096 36.209 27.7424 36.1643C25.3887 36.209 23.0452 35.8438 20.8154 35.0849C19.6187 34.6911 18.4595 34.19 17.3519 33.5876C16.8671 33.3439 16.4515 33.0654 16.0012 32.7868L15.5163 32.4385C15.0843 32.1476 14.6682 31.8337 14.2695 31.4982C13.5849 31.1114 12.9255 30.6811 12.2953 30.2099ZM7.65424 20.8085C8.06079 22.5198 8.71422 24.1621 9.59378 25.6832C10.7824 27.7846 12.3573 29.6398 14.2348 31.1501C14.6158 31.4635 15.0315 31.7769 15.4471 32.0555L15.8973 32.3688C16.313 32.6473 16.7632 32.926 17.2135 33.1698C18.2598 33.7405 19.3481 34.2294 20.4691 34.6322C22.2301 35.2111 24.0574 35.5621 25.9067 35.6768C24.1915 35.0851 22.5143 34.3874 20.8848 33.5876C20.624 33.4739 20.3697 33.3461 20.1228 33.2046L19.3954 32.8214L18.8413 32.4733C18.5296 32.2992 18.2178 32.1252 17.9061 31.9163C16.9541 31.3249 16.0402 30.6734 15.1699 29.9661C13.4324 28.5248 11.8638 26.8894 10.4943 25.0914C9.46279 23.7251 8.53644 22.2817 7.72347 20.7736L7.65424 20.8085ZM47.1379 20.8085C46.3249 22.3165 45.3987 23.7599 44.3672 25.1262C42.9976 26.9243 41.4289 28.5596 39.6914 30.001C38.8072 30.7164 37.8819 31.3792 36.9206 31.9858L36.0202 32.5082C35.8392 32.612 35.6656 32.7283 35.5007 32.8563L34.7387 33.2393C34.4955 33.3876 34.2406 33.5158 33.9767 33.6225C32.3589 34.4221 30.6932 35.1198 28.9893 35.7116C30.8269 35.5936 32.6423 35.2427 34.3923 34.667C35.5132 34.2642 36.6017 33.7754 37.648 33.2046C38.0982 32.9609 38.5485 32.6822 38.9641 32.4036L39.4143 32.0903C39.8299 31.8118 40.2456 31.4984 40.6265 31.185C42.4857 29.6558 44.0575 27.8043 45.2676 25.7181C46.1224 24.1889 46.7635 22.5484 47.1726 20.8431L47.1379 20.8085Z" fill="#531036"/>
<path d="M27.5002 34.4238C25.5579 34.0654 23.7221 33.2677 22.1317 32.0909C20.5073 30.8889 19.1507 29.3588 18.1488 27.5989C17.159 25.8714 16.468 23.9876 16.1053 22.0277C15.8522 20.6034 15.7708 19.1538 15.8628 17.7099C15.8841 17.6485 15.9239 17.5952 15.9767 17.5575C16.0294 17.5198 16.0925 17.4995 16.1572 17.4995C16.2219 17.4995 16.2851 17.5198 16.3378 17.5575C16.3906 17.5952 16.4304 17.6485 16.4517 17.7099C16.798 19.0679 17.2136 20.3912 17.6638 21.6795C18.2653 23.4034 19.0188 25.0698 19.9152 26.6589C20.8172 28.2183 21.9111 29.6572 23.1708 30.9418C24.5093 32.2282 25.958 33.3934 27.5002 34.4238C29.0424 33.3934 30.4911 32.2282 31.8295 30.9418C33.0893 29.6572 34.183 28.2183 35.0851 26.6589C35.9815 25.0698 36.735 23.4034 37.3365 21.6795C37.7867 20.3912 38.2022 19.0679 38.5486 17.7099C38.5699 17.6485 38.6097 17.5952 38.6624 17.5575C38.7152 17.5198 38.7783 17.4995 38.8431 17.4995C38.9078 17.4995 38.9708 17.5198 39.0236 17.5575C39.0763 17.5952 39.1162 17.6485 39.1374 17.7099C39.2295 19.1538 39.1481 20.6034 38.895 22.0277C38.5322 23.9876 37.8413 25.8714 36.8515 27.5989C35.8496 29.3588 34.4929 30.8889 32.8685 32.0909C31.2782 33.2677 29.4424 34.0654 27.5002 34.4238Z" fill="#F8CA95"/>
<path d="M20.3302 30.942C19.4022 30.0056 18.5989 28.9521 17.9404 27.808C16.9116 26.0582 16.2074 24.135 15.8623 22.1322C15.5975 20.6859 15.516 19.2119 15.6198 17.745C15.6504 17.6251 15.7198 17.5188 15.817 17.443C15.9142 17.3671 16.0336 17.3259 16.1567 17.3259C16.2797 17.3259 16.3993 17.3671 16.4965 17.443C16.5937 17.5188 16.663 17.6251 16.6935 17.745C17.0745 19.1726 17.4555 20.4608 17.9057 21.7144C18.494 23.4156 19.236 25.0591 20.1224 26.6242C21.0298 28.1603 22.1106 29.5857 23.3434 30.8723C24.6303 32.1469 26.0206 33.3116 27.4997 34.3543C28.9855 33.3205 30.3764 32.1552 31.6558 30.8723C32.8886 29.5857 33.9694 28.1603 34.8768 26.6242C35.7709 25.0631 36.5132 23.4188 37.0935 21.7144C37.5437 20.4608 37.9247 19.1726 38.3057 17.745C38.3439 17.6196 38.4225 17.5105 38.529 17.4349C38.6356 17.3593 38.7641 17.3214 38.8944 17.3272C39.0233 17.3433 39.1426 17.4043 39.2312 17.4997C39.3198 17.5952 39.3722 17.719 39.3794 17.8493C39.5007 19.316 39.4191 20.7926 39.1369 22.2368C38.7918 24.2396 38.0876 26.1628 37.0588 27.9126C36.042 29.7026 34.6613 31.2569 33.0066 32.4741C31.4098 33.6692 29.5612 34.4793 27.6036 34.8419L26.1488 35.0508L26.9108 34.7027C24.5043 34.1373 22.292 32.9351 20.5034 31.2206L20.3302 30.942ZM16.2087 17.745C16.0924 19.1756 16.1623 20.6154 16.4165 22.0279C16.7714 23.9681 17.4631 25.8304 18.4599 27.5296C19.4486 29.2378 20.7675 30.7297 22.339 31.917C23.5666 32.8156 24.9368 33.4983 26.3913 33.9365C25.1621 33.0803 24.0038 32.1253 22.9278 31.0812C21.6612 29.7684 20.5564 28.307 19.6375 26.7286C18.7072 25.1401 17.9412 23.4599 17.3516 21.7144C16.9013 20.4608 16.5203 19.1726 16.1393 17.745L16.2087 17.745ZM38.8599 17.745C38.4789 19.1726 38.0979 20.4608 37.6476 21.7144C37.058 23.4599 36.292 25.1401 35.3617 26.7286C34.4428 28.307 33.338 29.7684 32.0714 31.0812C30.9954 32.1253 29.8371 33.0803 28.6079 33.9365C30.0624 33.4983 31.4326 32.8156 32.6602 31.917C34.2475 30.7188 35.5687 29.2007 36.5393 27.4599C37.5361 25.7607 38.2278 23.8983 38.5827 21.9582C38.8301 20.545 38.9115 19.1075 38.8252 17.6753L38.8599 17.745Z" fill="#531036"/>
<path d="M25.1446 21.6106C25.0927 22.5152 25.0927 23.4219 25.1446 24.3265C25.1446 25.2318 25.4217 26.1372 25.5948 27.0426C26.0595 28.8959 26.6615 30.7116 27.3958 32.4746C25.895 31.1013 24.7127 29.4134 23.9323 27.5301C23.5499 26.5886 23.2712 25.6077 23.1011 24.6051C22.9344 23.6041 22.8532 22.5906 22.8587 21.5757C22.8896 19.5435 23.3009 17.5353 24.0709 15.6561C24.6373 14.1351 25.4572 12.722 26.4954 11.4776C26.6685 11.2687 26.9802 11.4776 26.8763 11.6865C26.3584 13.1325 25.9304 14.6095 25.5948 16.1088C25.2586 17.9225 25.1077 19.766 25.1446 21.6106Z" fill="#F8CA95"/>
<path d="M27.015 32.3357C25.6887 30.9889 24.641 29.3911 23.9325 27.6348C23.5551 26.6675 23.2766 25.6642 23.1013 24.6403C22.9216 23.617 22.829 22.5802 22.8242 21.5412C22.8913 19.4872 23.3132 17.4608 24.071 15.5521C24.6806 14.0159 25.5217 12.583 26.5647 11.3039C26.6493 11.239 26.7527 11.2038 26.8591 11.2038C26.9655 11.2038 27.069 11.239 27.1536 11.3039C27.252 11.3622 27.3268 11.4536 27.3649 11.5619C27.4029 11.6702 27.4016 11.7885 27.3614 11.896C26.837 13.328 26.4089 14.7936 26.0799 16.2832C25.6645 18.0653 25.4323 19.8855 25.3872 21.7153L25.3872 24.3965C25.3872 25.1974 25.6296 26.068 25.8374 27.0778C26.2964 28.9215 26.8985 30.726 27.6384 32.475L28.054 33.5195L27.2228 32.7536L27.015 32.3357ZM26.8072 11.7914C25.4011 13.5709 24.3869 15.6302 23.8316 17.8332C23.2763 20.0362 23.1927 22.3326 23.5862 24.5706C23.7611 25.5495 24.0397 26.5067 24.4174 27.4259C24.994 28.8527 25.7886 30.1803 26.7725 31.3607C26.2513 29.9718 25.8119 28.5534 25.4564 27.1126C25.244 26.2071 25.0937 25.2879 25.0062 24.3617C24.9562 23.4338 24.9562 22.5039 25.0062 21.5761C25.0684 19.7246 25.3002 17.8829 25.6989 16.0743C25.9067 14.6815 26.1491 13.2539 26.8072 11.7914Z" fill="#531036"/>
<path d="M27.5 32.4746C28.2343 30.7116 28.8363 28.8959 29.301 27.0426C29.5018 26.1465 29.6522 25.2396 29.7512 24.3265C29.8031 23.4219 29.8031 22.5152 29.7512 21.6106C29.7084 19.7577 29.4762 17.914 29.0585 16.1088C28.7418 14.707 28.3487 13.3237 27.8809 11.9652C27.8665 11.9077 27.8707 11.8471 27.8929 11.7922C27.9151 11.7372 27.9542 11.6908 28.0044 11.6598C28.0546 11.6287 28.1133 11.6145 28.1721 11.6194C28.2309 11.6242 28.2867 11.6477 28.3312 11.6865C29.2858 12.8816 30.0456 14.2215 30.5824 15.6561C31.3525 17.5353 31.7637 19.5435 31.7947 21.5757C31.8172 22.5912 31.736 23.6063 31.5522 24.6051C31.3822 25.6077 31.1035 26.5886 30.721 27.5301C30.0115 29.391 28.9132 31.0771 27.5 32.4746Z" fill="#F8CA95"/>
<path d="M26.8418 33.4141L27.2574 32.3693C27.9973 30.6203 28.5994 28.8158 29.0584 26.9721C29.2662 25.9623 29.4047 25.0919 29.5086 24.2911L29.5086 21.6098C29.4635 19.78 29.2313 17.9598 28.8159 16.1778C28.4945 14.7771 28.1015 13.394 27.6383 12.0341C27.591 11.9183 27.5897 11.7886 27.6348 11.6719C27.68 11.5553 27.7681 11.4605 27.8808 11.4073C27.9704 11.3241 28.0879 11.2779 28.2098 11.2779C28.3318 11.2779 28.4493 11.3241 28.5389 11.4073C29.4929 12.6216 30.2632 13.9709 30.8248 15.4116C31.5826 17.3202 32.0045 19.3469 32.0716 21.4009C32.1207 23.4869 31.7435 25.5609 30.9633 27.4945C30.1791 29.3958 28.998 31.1057 27.4999 32.5087L26.8418 33.4141ZM28.2617 11.86C28.712 13.3225 29.1277 14.6804 29.4394 16.0732C29.8518 17.8794 30.0837 19.7224 30.132 21.5749C30.1813 22.5028 30.1813 23.4327 30.132 24.3605C30.0446 25.2868 29.8942 26.206 29.6818 27.1115C29.3263 28.5523 28.8869 29.9707 28.3657 31.3595C29.3568 30.1843 30.1522 28.8555 30.7209 27.4248C31.0986 26.5056 31.3772 25.5483 31.5521 24.5695C31.7201 23.5804 31.8013 22.5783 31.7945 21.5749C31.7513 19.5701 31.3526 17.5891 30.617 15.7251C30.0144 14.3329 29.2217 13.0321 28.2617 11.86Z" fill="#531036"/>
<path d="M47.7266 52.5646C47.6435 52.2005 47.4248 51.8821 47.1157 51.6749C46.8066 51.4677 46.4303 51.3875 46.0641 51.4503L42.8777 52.077L45.8563 50.8582C46.0298 50.7859 46.1874 50.6799 46.3198 50.546C46.4522 50.4121 46.5568 50.2529 46.6277 50.078C46.6986 49.9031 46.7343 49.716 46.7326 49.5271C46.731 49.3383 46.6922 49.1516 46.6183 48.9779C46.55 48.8047 46.4478 48.647 46.3178 48.5142C46.1878 48.3814 46.0327 48.2762 45.8615 48.2048C45.6903 48.1333 45.5067 48.0973 45.3214 48.0985C45.1361 48.0997 44.9529 48.1383 44.7826 48.212L41.804 49.4655L44.4709 47.6547C44.782 47.4421 44.9991 47.1167 45.0766 46.7466C45.1541 46.3765 45.086 45.9906 44.8865 45.6699C44.7821 45.5143 44.6481 45.3809 44.4923 45.2774C44.3365 45.1739 44.1619 45.1024 43.9785 45.0668C43.7951 45.0312 43.6065 45.0324 43.4236 45.0702C43.2407 45.108 43.0669 45.1816 42.9123 45.287L40.2108 47.0628L42.4967 44.7994C42.6286 44.6668 42.7332 44.5094 42.8046 44.3361C42.876 44.1628 42.9128 43.9772 42.9128 43.7897C42.9128 43.6022 42.876 43.4165 42.8046 43.2433C42.7332 43.07 42.6286 42.9126 42.4967 42.78C42.3648 42.6474 42.2082 42.5421 42.0359 42.4703C41.8636 42.3985 41.6788 42.3617 41.4923 42.3617C41.3058 42.3617 41.121 42.3985 40.9487 42.4703C40.7764 42.5421 40.6199 42.6474 40.488 42.78L38.2021 45.0432L40.003 42.3621C40.1079 42.2067 40.1812 42.032 40.2188 41.848C40.2563 41.6641 40.2575 41.4745 40.2221 41.2901C40.1867 41.1058 40.1155 40.9304 40.0125 40.7737C39.9096 40.617 39.7769 40.4824 39.6221 40.3773C39.3031 40.1768 38.9193 40.1084 38.5512 40.1863C38.1831 40.2642 37.8594 40.4824 37.6479 40.7952L35.8468 43.4762L37.0937 40.4817C37.1676 40.3081 37.2065 40.1216 37.2081 39.9327C37.2097 39.7439 37.174 39.5565 37.1031 39.3816C37.0323 39.2067 36.9276 39.0478 36.7952 38.9139C36.6628 38.7799 36.5053 38.6737 36.3317 38.6014C35.9777 38.463 35.5839 38.4692 35.2344 38.6189C34.8849 38.7685 34.6074 39.0497 34.4614 39.4022L33.2492 42.3968L33.8727 39.1933C33.9462 38.8193 33.8688 38.4312 33.6577 38.1145C33.4466 37.7978 33.1191 37.5785 32.747 37.5046C32.375 37.4307 31.989 37.5085 31.674 37.7207C31.359 37.9329 31.1408 38.2623 31.0673 38.6363L30.4438 41.8397L30.4438 38.6014C30.4438 38.2228 30.2942 37.8597 30.0279 37.5919C29.7616 37.3242 29.4004 37.1737 29.0237 37.1737C28.6471 37.1737 28.286 37.3242 28.0197 37.5919C27.7534 37.8597 27.6038 38.2228 27.6038 38.6014L27.6038 41.8397L26.9803 38.6363C26.9611 38.4376 26.9008 38.2451 26.8031 38.0714C26.7054 37.8976 26.5726 37.7464 26.4131 37.6274C26.2537 37.5085 26.0712 37.4245 25.8775 37.3809C25.6837 37.3372 25.4831 37.3349 25.2884 37.3741C25.0937 37.4132 24.9095 37.4929 24.7474 37.6081C24.5852 37.7233 24.449 37.8715 24.3473 38.0429C24.2456 38.2143 24.1808 38.4052 24.157 38.6034C24.1333 38.8015 24.1513 39.0025 24.2096 39.1933L24.833 42.3968L23.5862 39.4022C23.4402 39.058 23.1685 38.7831 22.827 38.6342C22.4856 38.4852 22.1003 38.4735 21.7505 38.6014C21.3998 38.7482 21.1201 39.0271 20.9712 39.3784C20.8224 39.7298 20.8162 40.1257 20.9539 40.4817L22.2007 43.4762L20.3997 40.7952C20.1882 40.4824 19.8645 40.2642 19.4964 40.1863C19.1283 40.1084 18.7445 40.1768 18.4255 40.3773C18.1201 40.5952 17.9101 40.9232 17.8391 41.2929C17.7681 41.6626 17.8417 42.0456 18.0446 42.3621L19.8455 45.0432L17.5596 42.78C17.2933 42.5121 16.932 42.3617 16.5553 42.3617C16.1786 42.3617 15.8173 42.5121 15.5509 42.78C15.2845 43.0478 15.1348 43.4109 15.1348 43.7897C15.1348 44.1684 15.2845 44.5316 15.5509 44.7994L17.8368 47.0628L15.1353 45.287C14.9851 45.1776 14.8141 45.1004 14.633 45.0604C14.4519 45.0204 14.2646 45.0183 14.0826 45.0542C13.9007 45.0902 13.728 45.1634 13.5754 45.2693C13.4228 45.3752 13.2936 45.5116 13.1957 45.6699C13.0909 45.8253 13.0176 46.0001 12.98 46.184C12.9424 46.368 12.9412 46.5576 12.9766 46.7419C13.012 46.9263 13.0832 47.1017 13.1862 47.2584C13.2892 47.415 13.4218 47.5497 13.5767 47.6547L16.2436 49.4655L13.265 48.212C13.0947 48.1383 12.9115 48.0997 12.7262 48.0985C12.5409 48.0973 12.3573 48.1333 12.1861 48.2048C12.0149 48.2762 11.8598 48.3814 11.7298 48.5142C11.5998 48.647 11.4976 48.8047 11.4293 48.9779C11.3555 49.1516 11.3166 49.3383 11.315 49.5271C11.3133 49.716 11.3489 49.9031 11.4198 50.078C11.4907 50.2529 11.5954 50.4121 11.7278 50.546C11.8602 50.6799 12.0178 50.7859 12.1913 50.8582L15.1698 52.077L12.0182 51.4503C11.8339 51.4137 11.6443 51.4139 11.4602 51.4509C11.2761 51.488 11.1011 51.5611 10.9451 51.6662C10.7891 51.7713 10.6552 51.9063 10.5511 52.0634C10.447 52.2205 10.3747 52.3968 10.3383 52.582C10.3019 52.7672 10.3022 52.9578 10.3391 53.1429C10.3759 53.328 10.4487 53.5038 10.5532 53.6606C10.6577 53.8174 10.792 53.9521 10.9483 54.0567C11.1046 54.1614 11.2798 54.2342 11.464 54.2708L14.6158 54.8975L11.3946 54.8975C11.018 54.8975 10.6568 55.0478 10.3905 55.3156C10.1242 55.5833 9.97461 55.9464 9.97461 56.3251C9.97461 56.7037 10.1242 57.0668 10.3905 57.3346C10.6568 57.6023 11.018 57.7528 11.3946 57.7528L14.6158 57.7528L11.464 58.3796C11.2664 58.3988 11.0749 58.4595 10.9021 58.5577C10.7293 58.6559 10.5789 58.7895 10.4606 58.9498C10.3423 59.1101 10.2588 59.2936 10.2154 59.4883C10.172 59.6831 10.1696 59.8847 10.2085 60.0804C10.2475 60.2762 10.3268 60.4615 10.4414 60.6245C10.556 60.7875 10.7033 60.9246 10.8738 61.0268C11.0443 61.129 11.2342 61.1941 11.4313 61.2179C11.6284 61.2417 11.8284 61.2238 12.0182 61.1652L15.1698 60.5384L12.1913 61.7919C12.019 61.8606 11.8622 61.9633 11.7301 62.0939C11.598 62.2246 11.4933 62.3807 11.4222 62.5528C11.3512 62.7249 11.3152 62.9096 11.3164 63.0959C11.3176 63.2822 11.356 63.4664 11.4293 63.6375C11.5682 63.9876 11.8392 64.2682 12.183 64.4183C12.5269 64.5683 12.9158 64.5755 13.265 64.4383L16.2436 63.1849L13.5767 64.9955C13.4192 65.0939 13.2835 65.2239 13.1782 65.3773C13.0728 65.5307 13 65.7042 12.9642 65.8872C12.9285 66.0701 12.9306 66.2584 12.9704 66.4405C13.0102 66.6226 13.087 66.7945 13.1957 66.9454C13.4008 67.2558 13.7184 67.4732 14.0808 67.5513C14.4432 67.6293 14.8217 67.5619 15.1353 67.3633L17.8368 65.5526L15.5509 67.8508C15.419 67.9834 15.3144 68.1409 15.243 68.3141C15.1716 68.4874 15.1348 68.6731 15.1348 68.8606C15.1348 69.0482 15.1716 69.2338 15.243 69.4071C15.3144 69.5803 15.419 69.7378 15.5509 69.8704C15.6828 70.003 15.8394 70.1082 16.0117 70.1799C16.184 70.2517 16.3688 70.2886 16.5553 70.2886C16.7418 70.2886 16.9265 70.2517 17.0988 70.1799C17.2711 70.1082 17.4277 70.003 17.5596 69.8704L19.8455 67.5722L18.0446 70.2535C17.8417 70.57 17.7681 70.953 17.8391 71.3227C17.9101 71.6924 18.1201 72.0202 18.4255 72.2382C18.5785 72.3483 18.7521 72.4259 18.9359 72.4663C19.1197 72.5067 19.3098 72.5092 19.4945 72.4733C19.6792 72.4375 19.8548 72.3642 20.0104 72.2579C20.1661 72.1517 20.2985 72.0146 20.3997 71.8552L22.2007 69.174L20.9539 72.1686C20.8266 72.5202 20.8383 72.9076 20.9864 73.2509C21.1346 73.5942 21.4081 73.8673 21.7505 74.014C21.9207 74.0877 22.1039 74.1263 22.2893 74.1275C22.4746 74.1288 22.6582 74.0926 22.8294 74.0212C23.0005 73.9497 23.1557 73.8445 23.2857 73.7117C23.4157 73.5789 23.5179 73.4212 23.5862 73.248L24.833 70.2535L24.2096 73.4222C24.1513 73.6129 24.1333 73.8139 24.157 74.012C24.1808 74.2102 24.2456 74.4011 24.3473 74.5726C24.449 74.744 24.5852 74.8921 24.7474 75.0073C24.9095 75.1225 25.0937 75.2023 25.2884 75.2414C25.4831 75.2805 25.6837 75.2781 25.8775 75.2345C26.0712 75.1908 26.2537 75.1069 26.4131 74.988C26.5726 74.869 26.7054 74.7178 26.8031 74.5441C26.9008 74.3703 26.9611 74.1778 26.9803 73.9792L27.6038 70.8106L27.6038 74.0489C27.6038 74.4275 27.7534 74.7907 28.0197 75.0584C28.286 75.3261 28.6471 75.4766 29.0237 75.4766C29.4004 75.4766 29.7616 75.3261 30.0279 75.0584C30.2942 74.7907 30.4438 74.4275 30.4438 74.0489L30.4438 70.8106L31.0673 73.9792C31.1408 74.3532 31.359 74.6826 31.674 74.8949C31.989 75.1071 32.375 75.1848 32.747 75.1109C33.1191 75.037 33.4466 74.8176 33.6577 74.5008C33.8688 74.1841 33.9462 73.7962 33.8727 73.4222L33.2492 70.2535L34.4614 73.248C34.5333 73.4224 34.639 73.5808 34.7722 73.714C34.9054 73.8471 35.0636 73.9524 35.2376 74.0236C35.4115 74.0949 35.5978 74.1307 35.7856 74.129C35.9734 74.1274 36.159 74.0883 36.3317 74.014C36.504 73.9454 36.6608 73.8427 36.7929 73.712C36.925 73.5814 37.0296 73.4253 37.1007 73.2532C37.1717 73.0811 37.2078 72.8965 37.2066 72.7102C37.2054 72.5239 37.167 72.3397 37.0937 72.1686L35.8468 69.174L37.6479 71.8552C37.7525 72.0107 37.8865 72.1439 38.0423 72.2473C38.1982 72.3507 38.3727 72.4222 38.556 72.4578C38.7394 72.4934 38.9278 72.4923 39.1107 72.4546C39.2936 72.4169 39.4675 72.3433 39.6221 72.2382C39.7767 72.133 39.9092 71.9982 40.012 71.8416C40.1148 71.6849 40.186 71.5094 40.2214 71.3251C40.2568 71.1408 40.2557 70.9513 40.2182 70.7675C40.1808 70.5836 40.1076 70.4089 40.003 70.2535L38.2021 67.5722L40.488 69.8704C40.6199 70.003 40.7764 70.1082 40.9487 70.1799C41.121 70.2517 41.3058 70.2886 41.4923 70.2886C41.6788 70.2886 41.8636 70.2517 42.0359 70.1799C42.2082 70.1082 42.3648 70.003 42.4967 69.8704C42.6286 69.7378 42.7332 69.5803 42.8046 69.4071C42.876 69.2338 42.9128 69.0482 42.9128 68.8606C42.9128 68.6731 42.876 68.4874 42.8046 68.3141C42.7332 68.1409 42.6286 67.9834 42.4967 67.8508L40.2108 65.5526L42.9123 67.3633C43.2313 67.5638 43.6151 67.6322 43.9832 67.5543C44.3512 67.4764 44.6751 67.2582 44.8865 66.9454C45.0841 66.6302 45.1512 66.2498 45.0735 65.8855C44.9959 65.5211 44.7796 65.2017 44.4709 64.9955L41.804 63.1849L44.7826 64.4384C45.1318 64.5755 45.5207 64.5683 45.8646 64.4183C46.2084 64.2682 46.4794 63.9876 46.6183 63.6375C46.6916 63.4664 46.73 63.2822 46.7312 63.0959C46.7324 62.9096 46.6963 62.7249 46.6253 62.5528C46.5542 62.3807 46.4496 62.2246 46.3175 62.0939C46.1854 61.9633 46.0286 61.8606 45.8563 61.7919L42.8777 60.5384L46.0641 61.1652C46.2539 61.2238 46.4537 61.2417 46.6508 61.2179C46.8479 61.1941 47.0379 61.129 47.2084 61.0268C47.3789 60.9246 47.5262 60.7875 47.6408 60.6245C47.7554 60.4615 47.8347 60.2762 47.8736 60.0804C47.9126 59.8847 47.9103 59.6831 47.8669 59.4883C47.8235 59.2936 47.7399 59.1101 47.6216 58.9498C47.5033 58.7895 47.3529 58.6559 47.1801 58.5577C47.0072 58.4595 46.8159 58.3988 46.6183 58.3796L43.4318 57.7528L46.653 57.7528C47.0296 57.7528 47.3907 57.6023 47.657 57.3346C47.9233 57.0668 48.0729 56.7037 48.0729 56.3251C48.0729 56.1376 48.0362 55.9521 47.9649 55.7789C47.8935 55.6057 47.7888 55.4481 47.657 55.3156C47.5251 55.183 47.3686 55.0779 47.1963 55.0061C47.0241 54.9344 46.8394 54.8975 46.653 54.8975L43.4665 54.8975L46.653 54.2708C47.0158 54.1796 47.3297 53.9515 47.5296 53.6338C47.7295 53.3161 47.8001 52.9332 47.7266 52.5646Z" fill="#E89B23"/>
<path d="M30.8247 38.1149C30.9529 37.8126 31.1706 37.5573 31.4481 37.3836C31.6484 37.2457 31.8744 37.1501 32.1125 37.1022C32.3505 37.0543 32.5957 37.0553 32.8334 37.1052C33.3155 37.2059 33.7386 37.4936 34.011 37.906C34.1856 38.1783 34.2925 38.4888 34.3227 38.8114C34.5115 38.5413 34.7771 38.335 35.0847 38.2195C35.5301 38.0447 36.0247 38.0447 36.4701 38.2195C36.7002 38.3048 36.9091 38.4392 37.0824 38.6135C37.2558 38.7878 37.3896 38.9979 37.4745 39.2292C37.5585 39.5369 37.5585 39.8617 37.4745 40.1694C37.7211 39.9553 38.0199 39.8111 38.3403 39.7516C38.578 39.7017 38.8233 39.7005 39.0614 39.7484C39.2995 39.7963 39.5255 39.8921 39.7258 40.03C40.0541 40.2619 40.3012 40.5922 40.4318 40.9736C40.5624 41.355 40.5698 41.7681 40.4531 42.154C40.7306 42.0041 41.0388 41.9208 41.3537 41.9105C41.8476 41.9176 42.3194 42.1172 42.6697 42.4675C42.8453 42.6396 42.9848 42.8455 43.08 43.0728C43.1752 43.3 43.2241 43.5441 43.2239 43.7907C43.2165 44.1124 43.1206 44.4258 42.9468 44.6961C43.2642 44.6087 43.5992 44.6087 43.9166 44.6961C44.1558 44.732 44.3847 44.819 44.5878 44.9511C44.7909 45.0832 44.9635 45.2573 45.0942 45.462C44.8255 45.7837 44.6577 46.1783 44.612 46.5959C44.5663 47.0134 44.6449 47.4354 44.8376 47.8081C45.0304 48.1808 45.3287 48.4877 45.695 48.6899C46.0612 48.8921 46.4789 48.9805 46.8951 48.9441C47.068 49.4041 47.068 49.9119 46.8951 50.3719C46.7687 50.6745 46.5658 50.9385 46.3064 51.1378C46.6261 51.1732 46.9338 51.2804 47.2068 51.4513C47.617 51.7251 47.9033 52.1504 48.0035 52.6351C48.0821 53.036 48.0261 53.4519 47.8443 53.8174C47.6625 54.1829 47.3652 54.4774 46.999 54.6547C47.3577 54.7815 47.6684 55.017 47.8882 55.3289C48.1079 55.6408 48.2259 56.0136 48.2259 56.3958C48.2259 56.778 48.1079 57.1508 47.8882 57.4627C47.6684 57.7745 47.3577 58.0101 46.999 58.1368C47.368 58.3204 47.6665 58.6212 47.8481 58.9927C48.0297 59.3641 48.0843 59.7855 48.0035 60.1913C47.9533 60.4265 47.857 60.6491 47.7202 60.8463C47.5834 61.0436 47.4089 61.2115 47.2068 61.3403C46.9489 61.5411 46.6326 61.6513 46.3064 61.6537C46.5578 61.861 46.7591 62.1229 46.8951 62.4198C47.068 62.8798 47.068 63.3875 46.8951 63.8475C46.7398 64.2248 46.4665 64.5409 46.1166 64.7482C45.7667 64.9555 45.3592 65.0427 44.9556 64.9965C45.1972 65.3172 45.328 65.7085 45.328 66.1108C45.328 66.5131 45.1972 66.9044 44.9556 67.2251C44.7308 67.5711 44.397 67.8312 44.0076 67.9638C43.6183 68.0964 43.1959 68.0937 42.8083 67.9563C42.9883 68.2365 43.0845 68.5628 43.0854 68.8964C43.0714 69.3915 42.8737 69.8635 42.5312 70.2196C42.3659 69.9287 42.0924 69.7158 41.7708 69.6276C41.4493 69.5395 41.1061 69.5833 40.8167 69.7495C40.5274 69.9157 40.3156 70.1907 40.2279 70.514C40.1402 70.8372 40.1839 71.1823 40.3492 71.4732C40.403 71.9206 40.2784 72.3712 40.0029 72.7267C39.66 72.9483 39.2545 73.0512 38.8481 73.0198C38.4417 72.9884 38.0567 72.8243 37.7516 72.5526C37.8385 72.8718 37.8385 73.2085 37.7516 73.5276C37.661 73.7556 37.5253 73.9626 37.3526 74.1362C37.1799 74.3098 36.9739 74.4463 36.7472 74.5373C36.3017 74.7122 35.8072 74.7122 35.3618 74.5373C35.0608 74.4103 34.7981 74.2062 34.5998 73.9454C34.5647 74.2669 34.4582 74.5762 34.2881 74.8507C34.0158 75.2631 33.5926 75.5509 33.1106 75.6516C32.6307 75.7185 32.1424 75.6204 31.7251 75.3731C31.4635 75.1815 31.25 74.931 31.1017 74.6418C30.9889 75.0341 30.7522 75.3788 30.4272 75.6238C30.1023 75.8688 29.7069 76.0008 29.3007 75.9999C28.8976 76.0049 28.5044 75.8738 28.1841 75.6276C27.8639 75.3814 27.6351 75.0343 27.5343 74.6418C27.3431 75.0052 27.0425 75.2986 26.6755 75.4799C26.3085 75.6613 25.8939 75.7214 25.4909 75.6516C25.0954 75.5679 24.7384 75.3553 24.4754 75.0468C24.2124 74.7383 24.0581 74.3512 24.0363 73.9454C23.7797 74.261 23.4312 74.4878 23.0399 74.594C22.6485 74.7002 22.2339 74.6803 21.8543 74.5373C21.4762 74.3748 21.1606 74.0937 20.9546 73.736C20.7486 73.3783 20.6632 72.9632 20.7112 72.5526C20.4816 72.7719 20.1923 72.9173 19.88 72.9705C19.4042 73.0699 18.9086 72.9826 18.4947 72.7267C18.0845 72.4529 17.7982 72.0275 17.698 71.5428C17.6111 71.2237 17.6111 70.887 17.698 70.5678C17.3461 70.788 16.9305 70.8819 16.5188 70.8343C16.107 70.7868 15.7234 70.6005 15.4303 70.3059C15.1372 70.0112 14.952 69.6256 14.9047 69.2116C14.8574 68.7976 14.9507 68.3797 15.1697 68.0259C14.782 68.1633 14.3597 68.166 13.9703 68.0334C13.581 67.9008 13.2471 67.6407 13.0223 67.2947C12.7591 66.8819 12.6602 66.3847 12.7453 65.9019C12.8035 65.5824 12.9611 65.2896 13.1956 65.0661C12.7872 65.1144 12.3742 65.0287 12.0184 64.8216C11.6626 64.6145 11.383 64.2971 11.2213 63.9171C11.0485 63.4571 11.0485 62.9494 11.2213 62.4894C11.3574 62.1925 11.5587 61.9307 11.8101 61.7235C11.4839 61.721 11.1676 61.6108 10.9096 61.41C10.7076 61.2812 10.5331 61.1133 10.3964 60.9161C10.2596 60.7188 10.1632 60.4959 10.113 60.2608C10.0291 59.7669 10.1277 59.2593 10.3901 58.8333C10.59 58.5791 10.837 58.3662 11.1174 58.2065C10.7733 58.0654 10.4788 57.8244 10.2716 57.5143C10.0643 57.2042 9.95361 56.8391 9.95361 56.4655C9.95361 56.0919 10.0643 55.7268 10.2716 55.4167C10.4788 55.1066 10.7733 54.8656 11.1174 54.7245C10.8298 54.5753 10.5807 54.3607 10.3901 54.0977C10.1269 53.685 10.0279 53.1876 10.113 52.7048C10.2132 52.2201 10.4995 51.7946 10.9096 51.5208C11.1827 51.3498 11.4904 51.2429 11.8101 51.2075C11.5507 51.0082 11.3477 50.744 11.2213 50.4414C11.0485 49.9813 11.0485 49.4738 11.2213 49.0138C11.3929 48.6436 11.6757 48.337 12.0299 48.1371C12.3841 47.9372 12.7919 47.854 13.1956 47.8995C12.9253 47.5928 12.7622 47.2057 12.7309 46.7971C12.6996 46.3886 12.8019 45.9808 13.0223 45.6361C13.2587 45.3032 13.5933 45.0534 13.9787 44.9222C14.364 44.791 14.7807 44.785 15.1697 44.905C14.9656 44.5546 14.8822 44.1464 14.9323 43.7435C14.9824 43.3406 15.1632 42.9655 15.4468 42.6764C15.7416 42.3927 16.1178 42.2099 16.5219 42.1536C16.9261 42.0973 17.3377 42.1707 17.698 42.3631C17.6105 42.0559 17.6105 41.7301 17.698 41.4229C17.7982 40.9382 18.0845 40.5127 18.4947 40.2389C18.6941 40.0991 18.9201 40.0023 19.1584 39.9543C19.3968 39.9064 19.6425 39.9086 19.88 39.9605C20.1872 40.0287 20.4727 40.1722 20.7112 40.3783C20.6272 40.0706 20.6272 39.7458 20.7112 39.4381C20.8018 39.2101 20.9376 39.003 21.1103 38.8294C21.2829 38.6558 21.4889 38.5195 21.7157 38.4284C22.1732 38.2546 22.6782 38.2546 23.1357 38.4284C23.4323 38.563 23.6933 38.7657 23.8977 39.0203C23.9136 38.6127 24.0659 38.2225 24.3299 37.9128C24.5939 37.6031 24.9541 37.3922 25.3523 37.3141C25.7556 37.2387 26.1725 37.2962 26.5406 37.4782C26.9088 37.6601 27.2087 37.9567 27.3957 38.3238C27.4954 37.9279 27.7228 37.5763 28.0425 37.3243C28.3621 37.0723 28.7559 36.9338 29.1621 36.9309C29.5223 36.9498 29.8697 37.0711 30.164 37.2807C30.4583 37.4903 30.6874 37.7796 30.8247 38.1149ZM27.1879 41.9105L26.5645 38.7416C26.5624 38.5938 26.528 38.4483 26.4637 38.3153C26.3994 38.1823 26.307 38.0652 26.1927 37.9721C26.0784 37.879 25.9452 37.8122 25.8025 37.7766C25.6597 37.7409 25.511 37.7372 25.3667 37.7657C25.2224 37.7942 25.0861 37.8542 24.9673 37.9415C24.8486 38.0288 24.7504 38.1411 24.6796 38.2707C24.6089 38.4003 24.5673 38.5442 24.5579 38.6917C24.5484 38.8393 24.5714 38.9869 24.625 39.1246L25.2484 42.2934C25.2489 42.3918 25.2176 42.4877 25.1591 42.5665C25.1006 42.6454 25.0182 42.7028 24.9242 42.7304C24.8303 42.7579 24.73 42.754 24.6385 42.7191C24.547 42.6842 24.4693 42.6204 24.4172 42.5372L23.205 39.5425C23.0985 39.2984 22.9005 39.1066 22.654 39.0088C22.4074 38.911 22.1324 38.9151 21.8888 39.0203C21.6542 39.1191 21.4676 39.3066 21.3693 39.5425C21.3179 39.6635 21.2913 39.794 21.2913 39.9256C21.2913 40.0573 21.3179 40.1876 21.3693 40.3086L22.5816 43.3032C22.6227 43.4016 22.6279 43.5117 22.5962 43.6137C22.5646 43.7156 22.498 43.803 22.4084 43.8604C22.3322 43.9289 22.2335 43.9667 22.1313 43.9667C22.0291 43.9667 21.9305 43.9289 21.8543 43.8604L20.0532 41.1443C19.8999 40.9365 19.6795 40.7888 19.4298 40.7265C19.169 40.6845 18.9022 40.7439 18.6834 40.8927C18.4647 41.0414 18.3105 41.2683 18.2522 41.5273C18.1676 41.7636 18.1676 42.0223 18.2522 42.2586L20.0532 44.9747C20.0909 45.0105 20.121 45.0537 20.1415 45.1016C20.1621 45.1495 20.1727 45.2009 20.1727 45.2531C20.1727 45.3053 20.1621 45.357 20.1415 45.4049C20.121 45.4528 20.0909 45.4959 20.0532 45.5317C20.0146 45.5707 19.9687 45.6016 19.9182 45.6227C19.8677 45.6438 19.8135 45.6546 19.7588 45.6546C19.7041 45.6546 19.6499 45.6438 19.5994 45.6227C19.5489 45.6016 19.5031 45.5707 19.4644 45.5317L17.1785 43.2337C17.0882 43.141 16.9805 43.0673 16.8615 43.0171C16.7426 42.9668 16.6148 42.941 16.4858 42.941C16.3568 42.941 16.2291 42.9668 16.1101 43.0171C15.9912 43.0673 15.8835 43.141 15.7932 43.2337C15.613 43.4272 15.5127 43.6822 15.5127 43.9473C15.5127 44.2124 15.613 44.4677 15.7932 44.6612L18.0791 46.9593C18.1472 47.0359 18.1849 47.1351 18.1849 47.2379C18.1849 47.3407 18.1472 47.4399 18.0791 47.5165C18.0029 47.5851 17.9042 47.6228 17.8019 47.6228C17.6997 47.6228 17.6011 47.5851 17.5249 47.5165L14.858 45.7058C14.6371 45.5595 14.3677 45.5066 14.1084 45.5587C13.849 45.6109 13.6205 45.7639 13.4726 45.9844C13.422 46.0996 13.3958 46.2241 13.3958 46.35C13.3958 46.4759 13.422 46.6005 13.4726 46.7157C13.4882 46.8502 13.5337 46.9793 13.6057 47.0938C13.6776 47.2083 13.7741 47.3051 13.8882 47.3771L16.5551 49.153C16.6169 49.2326 16.6505 49.3307 16.6505 49.4316C16.6505 49.5326 16.6169 49.6307 16.5551 49.7103C16.5099 49.8039 16.4316 49.8771 16.3355 49.9158C16.2394 49.9544 16.1324 49.9556 16.0355 49.9192L13.057 48.6657C12.9366 48.614 12.8069 48.5873 12.6759 48.5873C12.545 48.5873 12.4154 48.614 12.295 48.6657C12.0471 48.7746 11.8491 48.9734 11.7408 49.2227C11.6894 49.3438 11.6628 49.474 11.6628 49.6057C11.6628 49.7374 11.6894 49.8676 11.7408 49.9887C11.8504 50.229 12.0494 50.4166 12.295 50.5111L15.2736 51.7646C15.368 51.8097 15.444 51.8867 15.4882 51.982C15.5325 52.0773 15.5423 52.1851 15.516 52.287C15.5002 52.3396 15.4742 52.3885 15.4395 52.4311C15.4048 52.4736 15.3621 52.5089 15.3138 52.5348C15.2656 52.5606 15.2127 52.5767 15.1582 52.582C15.1038 52.5872 15.0488 52.5817 14.9965 52.5656L11.8447 51.9388C11.7297 51.89 11.6061 51.8647 11.4811 51.8647C11.3562 51.8647 11.2325 51.89 11.1174 51.9388C11.0024 52.001 10.9042 52.0905 10.8317 52.1998C10.7593 52.3091 10.7147 52.4349 10.7018 52.5656C10.6513 52.6808 10.6251 52.8052 10.6251 52.9311C10.6251 53.057 10.6513 53.1815 10.7018 53.2967C10.768 53.4088 10.8583 53.5047 10.9662 53.577C11.0741 53.6493 11.1968 53.6963 11.3252 53.7145L14.477 54.3761C14.5305 54.3801 14.5826 54.3954 14.6298 54.421C14.677 54.4465 14.7182 54.4819 14.7509 54.5247C14.7836 54.5674 14.8069 54.6166 14.8194 54.669C14.8319 54.7214 14.8333 54.7758 14.8234 54.8288C14.8147 54.9335 14.767 55.0311 14.69 55.1021C14.613 55.1731 14.5122 55.2121 14.4077 55.2118L11.1867 55.2118C10.9203 55.2118 10.6649 55.3182 10.4765 55.5076C10.2881 55.697 10.1823 55.9539 10.1823 56.2217C10.1823 56.3527 10.2084 56.4824 10.2593 56.603C10.3102 56.7236 10.3848 56.8327 10.4785 56.9237C10.5723 57.0147 10.6832 57.0857 10.8049 57.1326C10.9266 57.1795 11.0564 57.2013 11.1867 57.1966L14.4077 57.1966C14.5179 57.1966 14.6237 57.2406 14.7016 57.319C14.7796 57.3974 14.8234 57.5036 14.8234 57.6144C14.8333 57.6674 14.8319 57.722 14.8194 57.7745C14.8069 57.8269 14.7836 57.876 14.7509 57.9188C14.7182 57.9615 14.677 57.9967 14.6298 58.0223C14.5826 58.0478 14.5305 58.0631 14.477 58.0671L11.3252 58.6939C11.199 58.7185 11.0788 58.7681 10.9718 58.8399C10.8648 58.9116 10.773 59.0042 10.7018 59.1119C10.6018 59.3573 10.6018 59.6324 10.7018 59.8779C10.72 60.0069 10.7668 60.1302 10.8387 60.2387C10.9107 60.3472 11.0059 60.4381 11.1174 60.5046C11.232 60.5554 11.3559 60.5817 11.4811 60.5817C11.6064 60.5817 11.7302 60.5554 11.8447 60.5046L14.9965 59.8779C15.0975 59.8688 15.1985 59.8943 15.2833 59.9501C15.368 60.006 15.4315 60.0889 15.4636 60.1856C15.4956 60.2823 15.4944 60.3869 15.4599 60.4827C15.4254 60.5785 15.3597 60.6599 15.2736 60.7135L12.295 62.2805C12.0471 62.3894 11.8491 62.5884 11.7408 62.8376C11.6894 62.9587 11.6628 63.089 11.6628 63.2206C11.6628 63.3523 11.6894 63.4826 11.7408 63.6037C11.8473 63.8477 12.0454 64.0395 12.2919 64.1374C12.5385 64.2352 12.8134 64.2311 13.057 64.126L16.0355 62.8725C16.1366 62.8217 16.2536 62.8133 16.3608 62.8492C16.4679 62.8851 16.5565 62.9624 16.607 63.064C16.6576 63.1656 16.6659 63.2831 16.6302 63.3908C16.5945 63.4986 16.5176 63.5878 16.4166 63.6385L13.7497 65.4492C13.6382 65.5157 13.5428 65.6066 13.4709 65.7151C13.399 65.8235 13.3522 65.9468 13.334 66.0759C13.287 66.271 13.3011 66.476 13.3743 66.6627C13.4475 66.8495 13.5762 67.009 13.743 67.1194C13.9097 67.2299 14.1062 67.2859 14.3058 67.2799C14.5054 67.2739 14.6982 67.2061 14.858 67.0858L17.5249 65.3099C17.5605 65.2719 17.6035 65.2417 17.6511 65.221C17.6987 65.2004 17.75 65.1898 17.8019 65.1898C17.8538 65.1898 17.9052 65.2004 17.9529 65.221C18.0005 65.2417 18.0435 65.2719 18.0791 65.3099C18.1437 65.3949 18.1786 65.4988 18.1786 65.6058C18.1786 65.7128 18.1437 65.8169 18.0791 65.9019L15.7932 68.2001C15.7022 68.2915 15.63 68.4 15.5808 68.5195C15.5316 68.639 15.5062 68.7671 15.5062 68.8964C15.5062 69.0257 15.5316 69.1538 15.5808 69.2733C15.63 69.3928 15.7022 69.5014 15.7932 69.5929C15.8841 69.6843 15.992 69.7569 16.1109 69.8063C16.2297 69.8558 16.3571 69.8813 16.4858 69.8813C16.6144 69.8813 16.7418 69.8558 16.8607 69.8063C16.9796 69.7569 17.0876 69.6843 17.1785 69.5929L19.4644 67.2947C19.549 67.2297 19.6524 67.1946 19.7588 67.1946C19.8652 67.1946 19.9686 67.2297 20.0532 67.2947C20.1239 67.3769 20.1628 67.4819 20.1628 67.5906C20.1628 67.6993 20.1239 67.8043 20.0532 67.8866L18.2522 70.5678C18.1678 70.8161 18.1678 71.0856 18.2522 71.3339C18.3142 71.585 18.4611 71.8066 18.6678 71.9606C18.9119 72.0613 19.1856 72.0613 19.4298 71.9606C19.5561 71.936 19.6762 71.8865 19.7832 71.8147C19.8903 71.743 19.982 71.6505 20.0532 71.5428L21.8543 68.8617C21.9133 68.7818 21.9987 68.7256 22.0952 68.7034C22.1918 68.6813 22.2929 68.6945 22.3806 68.7407C22.4683 68.7869 22.5368 68.863 22.5736 68.9554C22.6105 69.0478 22.6133 69.1503 22.5816 69.2446L21.3693 72.2392C21.2647 72.484 21.2607 72.7606 21.358 73.0084C21.4553 73.2563 21.6461 73.4553 21.8888 73.5624C22.0115 73.6134 22.1432 73.6395 22.276 73.6391C22.4088 73.6387 22.5401 73.6117 22.6625 73.5599C22.7849 73.5081 22.8959 73.4324 22.989 73.3372C23.0821 73.242 23.1555 73.1291 23.205 73.0052L24.4172 70.0107C24.4561 69.9108 24.5318 69.8297 24.6285 69.7843C24.7252 69.739 24.8355 69.7327 24.9367 69.7669C25.0372 69.7987 25.1234 69.8649 25.1803 69.9539C25.2373 70.043 25.2613 70.1494 25.2484 70.2545L24.625 73.4579C24.5998 73.5837 24.5995 73.7132 24.6241 73.8391C24.6488 73.965 24.698 74.0847 24.7687 74.1915C24.8395 74.2982 24.9306 74.3898 25.0367 74.4612C25.1428 74.5325 25.2618 74.5821 25.387 74.6071C25.6439 74.659 25.9107 74.608 26.1308 74.4649C26.3508 74.3218 26.5064 74.0979 26.5645 73.841L27.1879 70.6723C27.1879 70.5615 27.2318 70.4551 27.3097 70.3768C27.3876 70.2984 27.4934 70.2545 27.6036 70.2545C27.7139 70.2545 27.8195 70.2984 27.8975 70.3768C27.9754 70.4551 28.0192 70.5615 28.0192 70.6723L28.0192 73.9106C28.0192 74.1784 28.125 74.4353 28.3134 74.6247C28.5018 74.8141 28.7572 74.9204 29.0236 74.9204C29.29 74.9204 29.5455 74.8141 29.7339 74.6247C29.9222 74.4353 30.028 74.1784 30.028 73.9106L30.028 70.6723C30.0276 70.5673 30.0667 70.4659 30.1373 70.3885C30.2079 70.311 30.3049 70.2632 30.4091 70.2545C30.4617 70.2445 30.5159 70.2458 30.568 70.2584C30.6202 70.2709 30.6692 70.2944 30.7117 70.3273C30.7542 70.3601 30.7893 70.4017 30.8147 70.4491C30.8402 70.4966 30.8553 70.5489 30.8592 70.6027L31.4827 73.7713C31.5131 73.9004 31.5686 74.0222 31.6458 74.1297C31.7231 74.2373 31.8207 74.3285 31.933 74.3981C32.0476 74.449 32.1714 74.4752 32.2966 74.4752C32.4218 74.4752 32.5457 74.449 32.6603 74.3981C32.788 74.3776 32.9097 74.3295 33.0172 74.2574C33.1248 74.1853 33.2157 74.0908 33.2837 73.9802C33.361 73.8768 33.4164 73.7586 33.4461 73.6328C33.4759 73.507 33.4795 73.3763 33.4568 73.249L32.7989 70.0455C32.7859 69.9405 32.81 69.8341 32.8669 69.745C32.9239 69.656 33.0101 69.5898 33.1106 69.558C33.2117 69.5238 33.3221 69.5301 33.4188 69.5754C33.5155 69.6208 33.5912 69.7019 33.6301 69.8018L34.8769 72.7963C34.9179 72.9216 34.9856 73.0364 35.0754 73.1326C35.1651 73.2289 35.2747 73.3042 35.3965 73.3535C35.5169 73.4052 35.6464 73.4319 35.7774 73.4319C35.9084 73.4319 36.038 73.4052 36.1584 73.3535C36.2802 73.3042 36.3897 73.2289 36.4794 73.1326C36.5692 73.0364 36.6369 72.9216 36.6779 72.7963C36.7294 72.6752 36.7558 72.545 36.7558 72.4133C36.7558 72.2817 36.7294 72.1513 36.6779 72.0302L35.4657 69.0357C35.4421 68.9902 35.4279 68.9403 35.4238 68.8891C35.4198 68.8379 35.426 68.7864 35.4421 68.7376C35.4583 68.6889 35.484 68.644 35.5178 68.6055C35.5516 68.5669 35.5928 68.5356 35.6388 68.5134C35.7206 68.4424 35.8252 68.4032 35.9333 68.4032C36.0414 68.4032 36.1459 68.4424 36.2277 68.5134L37.9941 71.1946C38.142 71.4151 38.3704 71.568 38.6297 71.6202C38.8891 71.6723 39.1586 71.6195 39.3794 71.4732C39.4866 71.4017 39.5785 71.3093 39.6498 71.2017C39.7212 71.0941 39.7706 70.9733 39.7951 70.8464C39.8951 70.6009 39.8951 70.3257 39.7951 70.0803L37.9941 67.3991C37.9295 67.3141 37.8944 67.2102 37.8944 67.1032C37.8944 66.9962 37.9295 66.8921 37.9941 66.8071C38.0703 66.7386 38.1689 66.7008 38.2711 66.7008C38.3733 66.7008 38.4719 66.7386 38.5481 66.8071L40.8341 69.1053C40.9243 69.198 41.0322 69.2716 41.1511 69.3219C41.2701 69.3721 41.3978 69.398 41.5268 69.398C41.6558 69.398 41.7835 69.3721 41.9024 69.3219C42.0214 69.2716 42.1292 69.198 42.2195 69.1053C42.3162 69.0172 42.3934 68.9098 42.4463 68.7898C42.4991 68.6699 42.5264 68.5402 42.5264 68.409C42.5264 68.2778 42.4991 68.1481 42.4463 68.0281C42.3934 67.9082 42.3162 67.8006 42.2195 67.7125L40.0029 65.7626C39.9641 65.7237 39.9334 65.6777 39.9124 65.6269C39.8914 65.5761 39.8806 65.5216 39.8806 65.4666C39.8806 65.4116 39.8914 65.3572 39.9124 65.3064C39.9334 65.2556 39.9641 65.2094 40.0029 65.1706C40.0385 65.1326 40.0814 65.1025 40.1291 65.0818C40.1767 65.0612 40.228 65.0505 40.2799 65.0505C40.3318 65.0505 40.3832 65.0612 40.4308 65.0818C40.4785 65.1025 40.5214 65.1326 40.557 65.1706L43.2585 66.9465C43.3736 66.9953 43.4973 67.0205 43.6222 67.0205C43.7472 67.0205 43.8707 66.9953 43.9858 66.9465C44.2395 66.8932 44.4628 66.7435 44.6092 66.5286C44.686 66.4202 44.7399 66.2971 44.7676 66.167C44.7952 66.0369 44.7962 65.9025 44.7702 65.772C44.7443 65.6415 44.692 65.5178 44.6166 65.4084C44.5413 65.299 44.4445 65.2062 44.3322 65.1358L41.6654 63.3251C41.5972 63.2485 41.5595 63.1493 41.5595 63.0465C41.5595 62.9438 41.5972 62.8446 41.6654 62.768C41.717 62.6718 41.8016 62.5975 41.9035 62.5591C42.0054 62.5207 42.1176 62.5206 42.2195 62.559L45.1981 63.8126C45.3185 63.8643 45.448 63.891 45.579 63.891C45.71 63.891 45.8396 63.8643 45.96 63.8126C46.1947 63.7137 46.3812 63.5262 46.4795 63.2903C46.531 63.1692 46.5575 63.0389 46.5575 62.9072C46.5575 62.7756 46.531 62.6453 46.4795 62.5243C46.3856 62.2773 46.1991 62.0772 45.96 61.967L42.9814 60.7484C42.882 60.7093 42.8014 60.6333 42.7563 60.5361C42.7111 60.4388 42.705 60.3277 42.739 60.226C42.7467 60.1715 42.7659 60.1194 42.7955 60.0732C42.825 60.0269 42.8642 59.9877 42.9102 59.958C42.9562 59.9282 43.008 59.9088 43.0621 59.901C43.1163 59.8932 43.1714 59.8972 43.2239 59.9127L46.3756 60.5395C46.4896 60.5925 46.6138 60.62 46.7393 60.62C46.8649 60.62 46.989 60.5925 47.1029 60.5395C47.2153 60.4698 47.3129 60.3786 47.3901 60.271C47.4674 60.1635 47.5228 60.0418 47.5532 59.9127C47.5784 59.7824 47.5778 59.6483 47.5513 59.5183C47.5249 59.3882 47.4731 59.2646 47.3991 59.1546C47.3251 59.0447 47.2303 58.9506 47.1201 58.8775C47.0098 58.8044 46.8864 58.7537 46.7567 58.7287L43.6049 58.102C43.5008 58.0848 43.4071 58.0285 43.3428 57.9445C43.2785 57.8604 43.2483 57.7548 43.2585 57.6493C43.2665 57.5411 43.3129 57.4395 43.3892 57.3628C43.4655 57.2861 43.5666 57.2395 43.6741 57.2314L46.8951 57.2314C47.0254 57.2361 47.1552 57.2144 47.2769 57.1675C47.3986 57.1206 47.5097 57.0496 47.6034 56.9586C47.6972 56.8676 47.7717 56.7585 47.8226 56.6379C47.8735 56.5172 47.8997 56.3876 47.8996 56.2566C47.8996 55.9888 47.7938 55.7319 47.6054 55.5425C47.4171 55.3531 47.1615 55.2466 46.8951 55.2466L43.4663 55.2466C43.364 55.2399 43.2671 55.1983 43.1915 55.1287C43.1159 55.059 43.0663 54.9655 43.0507 54.8637C43.0405 54.7581 43.0707 54.6527 43.135 54.5687C43.1993 54.4846 43.293 54.4282 43.3971 54.411L46.5489 53.7494C46.6772 53.7285 46.7999 53.6819 46.9099 53.6123C47.0199 53.5427 47.1149 53.4517 47.1892 53.3445C47.2635 53.2373 47.3156 53.1161 47.3425 52.9883C47.3693 52.8605 47.3703 52.7285 47.3454 52.6002C47.28 52.3453 47.1243 52.1233 46.9074 51.9758C46.6905 51.8283 46.4275 51.7656 46.1678 51.7994L43.0161 52.4262C42.966 52.4419 42.9133 52.4471 42.8612 52.4415C42.8091 52.4358 42.7588 52.4194 42.7132 52.3932C42.6677 52.3671 42.6281 52.3318 42.5968 52.2895C42.5654 52.2473 42.5431 52.1991 42.5312 52.1478C42.4972 52.046 42.5033 51.9349 42.5485 51.8377C42.5936 51.7404 42.6742 51.6645 42.7736 51.6254L45.7522 50.3719C45.9869 50.273 46.1734 50.0853 46.2717 49.8495C46.3232 49.7284 46.3497 49.5982 46.3497 49.4665C46.3497 49.3348 46.3232 49.2046 46.2717 49.0835C46.2259 48.9609 46.156 48.8486 46.0662 48.7537C45.9763 48.6588 45.8684 48.5832 45.7488 48.5312C45.6291 48.4791 45.5004 48.4519 45.37 48.451C45.2397 48.4502 45.1105 48.4758 44.9903 48.5263L42.0116 49.7798C41.9097 49.8181 41.7976 49.8182 41.6957 49.7798C41.5938 49.7414 41.5092 49.6671 41.4576 49.5708C41.3958 49.4913 41.3621 49.3934 41.3621 49.2924C41.3621 49.1915 41.3958 49.0934 41.4576 49.0138L44.1244 47.2379C44.2367 47.1675 44.3335 47.0749 44.4088 46.9655C44.4842 46.856 44.5365 46.7323 44.5624 46.6018C44.5884 46.4713 44.5874 46.3368 44.5598 46.2067C44.5321 46.0766 44.4782 45.9536 44.4014 45.8452C44.3334 45.7347 44.2427 45.64 44.1351 45.5679C44.0275 45.4958 43.9057 45.4477 43.778 45.4272C43.6635 45.3763 43.5396 45.3502 43.4143 45.3502C43.2891 45.3502 43.1653 45.3763 43.0507 45.4272L40.3492 47.2379C40.273 47.3064 40.1743 47.3444 40.0721 47.3444C39.9699 47.3444 39.8713 47.3064 39.7951 47.2379C39.7573 47.2021 39.7272 47.1589 39.7067 47.111C39.6861 47.0631 39.6755 47.0115 39.6755 46.9593C39.6755 46.9071 39.6861 46.8557 39.7067 46.8078C39.7272 46.7599 39.7573 46.7167 39.7951 46.6809L42.0463 44.3826C42.1438 44.2949 42.222 44.1876 42.2757 44.0676C42.3293 43.9477 42.3574 43.8177 42.358 43.6861C42.358 43.5494 42.3304 43.4142 42.2768 43.2885C42.2232 43.1628 42.1448 43.0493 42.0463 42.955C41.8558 42.7837 41.6092 42.6889 41.3537 42.6889C41.0981 42.6889 40.8514 42.7837 40.6609 42.955L38.375 45.2531C38.3394 45.291 38.2965 45.3213 38.2488 45.3419C38.2012 45.3626 38.1499 45.3734 38.098 45.3734C38.0461 45.3734 37.9947 45.3626 37.947 45.3419C37.8994 45.3213 37.8565 45.291 37.8208 45.2531C37.7527 45.1765 37.715 45.0775 37.715 44.9747C37.715 44.8719 37.7527 44.7727 37.8208 44.6961L39.6219 41.98C39.6931 41.8727 39.7423 41.7524 39.7669 41.6259C39.7915 41.4993 39.791 41.3692 39.7652 41.2429C39.7395 41.1166 39.689 40.9967 39.6168 40.8901C39.5447 40.7835 39.4522 40.6925 39.3448 40.6221C39.1281 40.4723 38.8616 40.4137 38.6026 40.4593C38.3435 40.5049 38.1126 40.6508 37.9594 40.8657L36.193 43.5818C36.1085 43.6467 36.005 43.6819 35.8986 43.6819C35.7922 43.6819 35.6888 43.6467 35.6043 43.5818C35.5147 43.5244 35.4481 43.437 35.4164 43.335C35.3848 43.2331 35.3899 43.123 35.431 43.0245L36.6433 40.03C36.6947 39.9089 36.7213 39.7787 36.7213 39.647C36.7213 39.5154 36.6947 39.3851 36.6433 39.264C36.6001 39.144 36.5312 39.0349 36.4414 38.9446C36.3516 38.8544 36.2432 38.7851 36.1238 38.7416C36.0033 38.6899 35.8737 38.6632 35.7427 38.6632C35.6118 38.6632 35.4822 38.6899 35.3618 38.7416C35.2424 38.7851 35.134 38.8544 35.0442 38.9446C34.9544 39.0349 34.8855 39.144 34.8423 39.264L33.5954 42.2586C33.5432 42.3418 33.4656 42.4056 33.3741 42.4405C33.2826 42.4754 33.1823 42.4795 33.0884 42.452C32.9944 42.4244 32.912 42.3668 32.8535 42.2879C32.795 42.209 32.7636 42.1132 32.7642 42.0148L33.4223 38.8462C33.464 38.5841 33.4048 38.3157 33.2568 38.0958C33.1089 37.8759 32.8832 37.7208 32.6256 37.6622C32.3906 37.5771 32.1334 37.5771 31.8983 37.6622C31.6693 37.8165 31.5081 38.0534 31.4481 38.3238L30.8247 41.4926C30.8008 41.5938 30.743 41.6836 30.661 41.747C30.579 41.8104 30.4778 41.8435 30.3744 41.8407C30.2731 41.8251 30.18 41.7752 30.1108 41.6992C30.0415 41.6232 30 41.5258 29.9933 41.4229L29.9933 38.1846C29.9933 37.9168 29.8876 37.6599 29.6992 37.4705C29.5108 37.2811 29.2554 37.1747 28.989 37.1747C28.7226 37.1747 28.4671 37.2811 28.2787 37.4705C28.0904 37.6599 27.9846 37.9168 27.9846 38.1846L27.9846 41.4229C27.9849 41.528 27.946 41.6292 27.8754 41.7066C27.8048 41.7841 27.7078 41.832 27.6036 41.8407C27.5468 41.8885 27.4783 41.9201 27.4052 41.9323C27.3322 41.9446 27.2571 41.9371 27.1879 41.9105Z" fill="#531036"/>
<path d="M41.042 52.5653C41.682 56.2917 41.2865 60.1234 39.8991 63.6383C35.8122 61.2705 34.6692 54.1669 34.6692 54.1669C33.6302 64.6132 28.5735 68.4435 27.7423 69.0703C26.7379 68.4435 21.7158 64.7176 20.8153 54.1669C20.8153 54.1669 19.6378 61.1312 15.5855 63.6383C14.1758 60.1294 13.7679 56.2946 14.4079 52.5653C14.4079 52.5653 12.3991 61.4446 1.38525 58.9027C2.70007 58.2876 3.84692 57.3611 4.72761 56.2028C5.60829 55.0444 6.19653 53.6888 6.44191 52.2519C8.58926 43.8949 14.8929 39.0201 27.6038 38.846L28.3311 38.846C41.0075 39.0201 47.3457 43.8949 49.4584 52.2519C49.7128 53.6902 50.3084 55.0457 51.1947 56.2034C52.0809 57.3611 53.2318 58.2872 54.5497 58.9027C43.0856 61.4446 41.042 52.5653 41.042 52.5653Z" fill="#873B6E"/>
<path d="M44.9216 44.2427C47.0737 46.4445 48.5729 49.2057 49.2509 52.2165C49.502 53.6061 50.0792 54.9155 50.9346 56.0359C51.7899 57.1562 52.8987 58.0554 54.169 58.6585L55.0002 58.9718L54.1343 59.1458C46.203 60.9913 42.8088 56.9522 41.5273 54.4451C41.8172 57.6256 41.3297 60.8291 40.1073 63.777L40.1073 64.0208L39.8648 64.0208C37.2614 61.9937 35.4772 59.0866 34.8428 55.838C34.6902 58.4613 33.9953 61.0237 32.8027 63.3619C31.61 65.7001 29.9457 67.7626 27.9159 69.418L27.7426 69.418C25.7128 67.7626 24.0485 65.7001 22.8558 63.3619C21.6632 61.0237 20.9683 58.4613 20.8157 55.838C20.1932 59.0827 18.4211 61.99 15.8283 64.0208L15.5859 64.0208L15.5859 63.777C14.4053 60.8179 13.9307 57.6219 14.2004 54.4451C12.8843 56.9522 9.49011 60.9913 1.55874 59.1458L0.692871 58.9718L1.55874 58.6585C2.82255 58.051 3.92449 57.15 4.77362 56.0299C5.62275 54.9098 6.19473 53.6027 6.44226 52.2165C8.72816 43.2676 15.6552 38.8106 27.6042 38.5669L28.8163 38.5669C34.7022 38.3646 40.4495 40.3901 44.9216 44.2427ZM51.5367 57.4745C50.1641 56.042 49.2061 54.2603 48.766 52.3211C46.5494 43.5811 39.7263 39.2634 27.9851 39.0893L27.7426 39.0893L27.2578 39.0893C15.4127 39.0893 8.58965 43.5811 6.47693 52.3211C6.2035 53.6604 5.65583 54.9279 4.86875 56.0429C4.08167 57.1579 3.07238 58.0961 1.90511 58.7977C11.9146 60.7128 13.8195 52.8782 13.8887 52.53L14.4082 52.53C13.8171 56.1092 14.1633 59.7814 15.4127 63.1851C18.0142 60.7729 19.7238 57.544 20.2615 54.0273L20.5733 52.0773L20.7811 54.0273C21.7855 64.2646 26.5998 67.9556 27.7081 68.7216C28.8164 67.9904 33.596 64.2646 34.635 54.0273L34.8082 52.0773L35.1199 54.0273C35.6732 57.5388 37.3803 60.7628 39.9687 63.1851C41.2297 59.7844 41.5879 56.1122 41.0078 52.53L41.4927 52.53C41.4927 52.8782 43.5016 60.7128 53.4764 58.7977C52.7656 58.4603 52.1111 58.0139 51.5367 57.4745Z" fill="#541136"/>
<path d="M14.1306 44.4179C14.6155 44.0349 15.1004 43.6867 15.6199 43.3385C16.1216 42.9856 16.6419 42.6602 17.1785 42.3636C18.2258 41.7706 19.3276 41.2807 20.4688 40.901C25.0584 39.4608 29.9755 39.4608 34.5651 40.901C35.7063 41.2807 36.8082 41.7706 37.8555 42.3636C38.4097 42.677 38.8945 42.9903 39.414 43.3385C39.9335 43.6867 40.4185 44.0349 40.9034 44.4179C42.7777 45.9685 44.3611 47.8436 45.579 49.9545C46.4811 51.4933 47.1467 53.1602 47.5532 54.899C47.5558 54.9648 47.5377 55.0299 47.5014 55.0848C47.4651 55.1396 47.4126 55.1815 47.3512 55.2046C47.2898 55.2278 47.2228 55.2309 47.1596 55.2135C47.0964 55.1962 47.0402 55.1592 46.999 55.1079C46.1886 53.6283 45.2743 52.2085 44.263 50.8597C42.9125 49.0555 41.3416 47.4296 39.5872 46.0198C38.73 45.3113 37.8275 44.6599 36.8857 44.0698C36.4355 43.7564 35.9159 43.4779 35.431 43.1993L34.7037 42.7815C34.4613 42.7815 34.1842 42.5376 33.9417 42.3983C31.8525 41.3992 29.7006 40.5385 27.4997 39.8216C25.3123 40.5445 23.1722 41.4051 21.0923 42.3983C20.8498 42.3983 20.5727 42.6422 20.3303 42.7815L19.6029 43.1993C19.118 43.4779 18.5985 43.7564 18.1483 44.0698C17.2065 44.6599 16.304 45.3113 15.4468 46.0198C13.6925 47.4296 12.1215 49.0555 10.7711 50.8597C9.75969 52.2085 8.84529 53.6283 8.03488 55.1079C7.99375 55.1592 7.93764 55.1962 7.87443 55.2135C7.81121 55.2309 7.74416 55.2278 7.6828 55.2046C7.62144 55.1815 7.56887 55.1396 7.5326 55.0848C7.49634 55.0299 7.47815 54.9648 7.48071 54.899C7.88719 53.1602 8.55279 51.4933 9.45492 49.9545C10.6728 47.8436 12.2563 45.9685 14.1306 44.4179Z" fill="#F8CA95"/>
<path d="M42.6008 45.6011C43.8442 46.8785 44.926 48.3053 45.8218 49.8491C46.713 51.4056 47.3778 53.0824 47.796 54.8284C47.8375 54.9647 47.8256 55.1118 47.7625 55.2395C47.6994 55.3671 47.59 55.4656 47.4569 55.5147C47.3238 55.5638 47.177 55.5598 47.0468 55.5034C46.9166 55.447 46.8129 55.3424 46.757 55.2114C45.9591 53.7431 45.0562 52.3351 44.0555 50.9983C42.718 49.2263 41.1711 47.6244 39.449 46.2278C38.5904 45.521 37.6881 44.8697 36.7475 44.2779C36.4704 44.069 36.1587 43.8947 35.8816 43.7206L35.2929 43.4074L34.5655 43.0242C34.3303 42.883 34.0875 42.7551 33.8382 42.6412C31.7875 41.6453 29.6695 40.796 27.5001 40.0994C25.3439 40.8017 23.2378 41.6509 21.1965 42.6412C20.9436 42.7478 20.7002 42.8759 20.4691 43.0242L19.7072 43.4074L19.1531 43.7206C18.876 43.8947 18.5643 44.069 18.2872 44.2779C17.3465 44.8697 16.4442 45.521 15.5857 46.2278C13.8635 47.6244 12.3167 49.2263 10.9792 50.9983C9.97848 52.3351 9.0756 53.7431 8.27768 55.2114C8.22174 55.3424 8.11796 55.447 7.98775 55.5034C7.85755 55.5598 7.71087 55.5638 7.57776 55.5147C7.44464 55.4656 7.33526 55.3671 7.27219 55.2395C7.20911 55.1118 7.19715 54.9647 7.23868 54.8284C7.65684 53.0824 8.32157 51.4056 9.21278 49.8491C10.4589 47.6975 12.0776 45.7871 13.9924 44.2082L15.2393 43.2679L15.7241 42.9547C16.1398 42.6761 16.59 42.3974 17.0403 42.1537C18.1478 41.5513 19.307 41.0502 20.5038 40.6564C22.7887 39.8788 25.1925 39.5133 27.604 39.577C30.015 39.5198 32.4176 39.8851 34.7041 40.6564C35.8982 41.0572 37.0567 41.5581 38.1675 42.1537C38.6178 42.3974 39.0681 42.6761 39.4837 42.9547L39.9685 43.2679L41.2154 44.2082C41.5964 44.6608 42.0813 45.1136 42.6008 45.6011ZM47.2418 55.0025C46.8353 53.2911 46.1818 51.6489 45.3023 50.1277C44.1029 48.0339 42.5296 46.1806 40.6612 44.6609C40.2803 44.3126 39.8646 44.034 39.449 43.7206L38.9642 43.4074C38.5486 43.1636 38.1328 42.8849 37.6826 42.6412C36.58 42.0377 35.4197 41.5477 34.2191 41.1788C32.4698 40.6002 30.6541 40.2492 28.8161 40.1342C30.5224 40.7198 32.1884 41.4177 33.8035 42.2234C34.0674 42.33 34.3223 42.458 34.5655 42.6063L35.3275 42.9895C35.5042 43.118 35.6893 43.2342 35.8816 43.3377C36.1939 43.5027 36.4948 43.6888 36.7822 43.8947C37.7397 44.4777 38.654 45.1296 39.5182 45.8449C41.2751 47.2762 42.8564 48.9126 44.2286 50.7196C45.2563 52.0815 46.1714 53.5255 46.9648 55.0374L47.2418 55.0025ZM7.75818 55.0025C8.55157 53.4906 9.46671 52.0466 10.4944 50.6848C12.5495 47.9409 15.0703 45.5833 17.9408 43.7206L18.8414 43.1984C19.0337 43.095 19.2187 42.9786 19.3954 42.8501L20.1574 42.4671C20.4032 42.3133 20.6576 42.1738 20.9194 42.0493C22.5415 41.2695 24.2067 40.5835 25.9068 39.9948C24.0688 40.1098 22.2531 40.461 20.5038 41.0396C19.3626 41.4192 18.2608 41.9089 17.2135 42.502C16.7633 42.7457 16.3476 43.0242 15.9319 43.2679L15.4471 43.5814C15.0315 43.8948 14.6159 44.1734 14.2349 44.5217C12.3665 46.0414 10.7932 47.8945 9.59382 49.9883C8.71426 51.5095 8.06083 53.1519 7.65428 54.8633L7.75818 55.0025Z" fill="#531036"/>
<path d="M27.5 41.3882C29.4402 41.7535 31.2744 42.5506 32.8684 43.7211C34.4735 44.9341 35.8168 46.4624 36.8167 48.2131C37.8358 49.9267 38.5289 51.8159 38.8603 53.7844C39.148 55.2043 39.2296 56.6586 39.1026 58.1021C39.0813 58.1636 39.0416 58.2168 38.9889 58.2545C38.9361 58.2922 38.873 58.3125 38.8083 58.3125C38.7435 58.3125 38.6804 58.2922 38.6276 58.2545C38.5749 58.2168 38.5352 58.1636 38.5139 58.1021C38.1675 56.7441 37.7866 55.4209 37.3363 54.1325C36.7377 52.4017 35.972 50.734 35.0504 49.1531C34.1483 47.5937 33.0545 46.1548 31.7947 44.8703C30.471 43.567 29.0207 42.4004 27.4654 41.3882C25.9277 42.41 24.4897 43.5759 23.1707 44.8703C21.9109 46.1548 20.8171 47.5937 19.915 49.1531C18.9934 50.734 18.2278 52.4017 17.6291 54.1325C17.1789 55.4209 16.7979 56.7441 16.4515 58.1021C16.4303 58.1636 16.3905 58.2168 16.3377 58.2545C16.2849 58.2922 16.2218 58.3125 16.1571 58.3125C16.0923 58.3125 16.0293 58.2922 15.9765 58.2545C15.9238 58.2168 15.884 58.1636 15.8627 58.1021C15.7357 56.6586 15.8174 55.2043 16.1052 53.7844C16.4365 51.8159 17.1295 49.9267 18.1486 48.2131C19.1485 46.4624 20.4918 44.9341 22.0969 43.7211C23.7011 42.5458 25.5478 41.7485 27.5 41.3882Z" fill="#F8CA95"/>
<path d="M34.669 44.8699C35.608 45.8052 36.423 46.8586 37.0935 48.0039C38.093 49.7675 38.7953 51.6854 39.1716 53.6796C39.4364 55.126 39.5177 56.6 39.4139 58.0669C39.3991 58.2003 39.3396 58.3248 39.2452 58.4197C39.1508 58.5146 39.0271 58.5743 38.8944 58.5893C38.7641 58.595 38.6356 58.5571 38.529 58.4815C38.4225 58.4059 38.3439 58.2968 38.3057 58.1714C37.9847 56.8279 37.5916 55.5027 37.1281 54.2018C36.529 52.4993 35.7753 50.8559 34.8768 49.2922C33.981 47.7484 32.8991 46.3214 31.6558 45.044C30.3764 43.761 28.9855 42.5957 27.4997 41.5619C26.0251 42.5965 24.6457 43.7618 23.3781 45.044C22.1347 46.3214 21.0528 47.7484 20.157 49.2922C19.2585 50.8559 18.5049 52.4993 17.9057 54.2018C17.4423 55.5027 17.0492 56.8279 16.7282 58.1714C16.6899 58.2968 16.6114 58.4059 16.5048 58.4815C16.3983 58.5571 16.2697 58.595 16.1393 58.5893C16.0067 58.5743 15.883 58.5146 15.7886 58.4197C15.6942 58.3248 15.6347 58.2003 15.6198 58.0669C15.516 56.6 15.5975 55.126 15.8623 53.6796C16.2386 51.6854 16.9408 49.7675 17.9404 48.0039C18.9678 46.2216 20.3468 44.6693 21.9926 43.4423C23.5982 42.2402 25.4598 41.4294 27.4303 41.0743L28.885 40.8654L28.1576 41.2138C29.874 41.6231 31.4889 42.3816 32.9027 43.4423C33.533 43.8638 34.1241 44.3415 34.669 44.8699ZM38.8252 58.0669C38.9289 56.6347 38.8474 55.1951 38.5827 53.784C38.2207 51.8677 37.5292 50.0295 36.5393 48.352C35.5483 46.6347 34.216 45.1412 32.6255 43.9645C31.4102 43.0459 30.0364 42.3611 28.5733 41.9449C29.8085 42.7932 30.9674 43.7486 32.0368 44.8002C33.3115 46.106 34.4169 47.5684 35.327 49.1528C36.2372 50.7397 37.0023 52.4063 37.613 54.1321C38.0716 55.4463 38.4646 56.7829 38.7905 58.1366L38.8252 58.0669ZM16.1393 58.0669C16.4652 56.7132 16.8584 55.3769 17.317 54.0626C17.9277 52.3368 18.6927 50.6702 19.6028 49.0833C20.5052 47.4938 21.6115 46.0304 22.8932 44.7307C23.9626 43.6791 25.1215 42.7237 26.3566 41.8754C24.8936 42.2916 23.5198 42.9762 22.3044 43.8948C20.7139 45.0715 19.3816 46.565 18.3907 48.2823C17.4053 49.9835 16.7253 51.8459 16.3818 53.784C16.1172 55.1951 16.0357 56.6347 16.1393 58.0669Z" fill="#531036"/>
<path d="M29.8894 54.2025C29.9412 53.2979 29.9412 52.3912 29.8894 51.4866C29.8069 50.5712 29.6565 49.6632 29.4393 48.7705C29.0029 46.9132 28.412 45.0962 27.6729 43.3384C29.1543 44.7287 30.3336 46.4121 31.1363 48.2829C31.4862 49.2355 31.764 50.2134 31.9675 51.208C32.4979 54.2229 32.1615 57.3275 30.9978 60.1569C30.4058 61.6731 29.5756 63.0838 28.5387 64.3353C28.5387 64.5443 28.0884 64.3353 28.1577 64.1264C28.6914 62.6708 29.1311 61.182 29.4738 59.6694C29.8005 57.8665 29.9398 56.0343 29.8894 54.2025Z" fill="#F8CA95"/>
<path d="M28.0191 43.4774C29.3343 44.8262 30.3703 46.4241 31.067 48.1784C31.4552 49.1447 31.7453 50.1479 31.9328 51.1729C32.1009 52.1854 32.1819 53.2106 32.1752 54.2371C32.141 56.3028 31.7302 58.3445 30.9631 60.261C30.3535 61.7973 29.5124 63.2302 28.4694 64.5093C28.3848 64.5742 28.2813 64.6094 28.1749 64.6094C28.0685 64.6094 27.9651 64.5742 27.8805 64.5093C27.7805 64.4516 27.7024 64.3622 27.6586 64.255C27.6147 64.1478 27.6074 64.029 27.6381 63.9173C28.1573 62.4805 28.5967 61.0158 28.9542 59.5299C29.3565 57.7464 29.577 55.9264 29.6123 54.0979C29.6795 53.2055 29.6795 52.3091 29.6123 51.4167C29.5273 50.5016 29.3768 49.5938 29.162 48.7005C28.7091 46.8707 28.1186 45.0781 27.3956 43.3382L26.98 42.2588L27.8113 43.0596L28.0191 43.4774ZM28.0191 64.0217C28.9661 62.828 29.736 61.5027 30.305 60.087C31.057 58.2279 31.4564 56.2439 31.4826 54.2371C31.5065 53.2331 31.4252 52.2295 31.2401 51.2426C31.0643 50.2678 30.7976 49.3118 30.4435 48.3873C29.8631 46.9547 29.056 45.626 28.0537 44.4525C28.6021 45.8351 29.0535 47.2545 29.4045 48.7005L29.8547 51.4515C29.9047 52.3678 29.9047 53.286 29.8547 54.2023C29.8087 56.0664 29.5766 57.9213 29.162 59.7389C28.9241 61.1847 28.6002 62.6148 28.1922 64.0217L28.0191 64.0217Z" fill="#531036"/>
<path d="M27.4995 43.3371C26.7604 45.0949 26.1694 46.9119 25.7331 48.7692C25.5158 49.6619 25.3653 50.5699 25.2828 51.4853C25.231 52.3899 25.231 53.2966 25.2828 54.2012C25.3236 56.0428 25.5558 57.875 25.9756 59.6681C26.2995 61.0831 26.7042 62.4783 27.1877 63.8466C27.2037 63.9084 27.1982 63.9738 27.1719 64.0319C27.1457 64.0901 27.1003 64.1374 27.0435 64.1659C26.9867 64.1945 26.9218 64.2025 26.8598 64.1888C26.7978 64.175 26.7424 64.1402 26.7029 64.0902C25.7664 62.8955 25.0081 61.5701 24.4516 60.1556C23.2879 57.3262 22.9515 54.2216 23.4818 51.2066C23.6854 50.212 23.9632 49.2342 24.313 48.2816C25.034 46.4349 26.1177 44.7533 27.4995 43.3371Z" fill="#F8CA95"/>
<path d="M28.1577 42.3624L27.7421 43.4418C27.014 45.1918 26.4235 46.9963 25.9758 48.839C25.7585 49.72 25.608 50.6162 25.5255 51.5201C25.4583 52.4125 25.4583 53.3089 25.5255 54.2013C25.5607 56.0298 25.7812 57.8499 26.1836 59.6334C26.5057 61.0375 26.9104 62.4212 27.3957 63.777C27.4287 63.8938 27.423 64.0182 27.3792 64.1313C27.3355 64.2444 27.2562 64.3401 27.1533 64.4038C27.0638 64.487 26.9463 64.5332 26.8243 64.5332C26.7023 64.5332 26.5849 64.487 26.4953 64.4038C25.5295 63.1914 24.7474 61.8421 24.1747 60.3995C23.4109 58.4941 23.0001 56.4642 22.9625 54.4102C22.9544 53.3721 23.0356 52.3352 23.2049 51.3112C23.3924 50.2862 23.6825 49.2829 24.0708 48.3166C24.8423 46.4083 26.0252 44.6958 27.5343 43.3024L28.1577 42.3624ZM26.7723 63.9512C26.2874 62.4887 25.9065 61.0959 25.5947 59.7379C25.1801 57.9204 24.9481 56.0655 24.9021 54.2013C24.8522 53.2851 24.8522 52.3668 24.9021 51.4506L25.3523 48.6996C25.7033 47.2536 26.1547 45.8342 26.7031 44.4516C25.7007 45.625 24.8937 46.9538 24.3133 48.3863C23.9591 49.3108 23.6924 50.2669 23.5166 51.2417C23.3315 52.2285 23.2503 53.2322 23.2743 54.2362C23.3004 56.2429 23.6998 58.227 24.4518 60.086C25.0379 61.4792 25.8192 62.7808 26.7723 63.9512Z" fill="#531036"/>
</svg>
